SplineFontDB: 3.2
FontName: Entity-MediumOblique
FullName: Entity Medium Oblique
FamilyName: Entity
Weight: Medium
Copyright: Based on Geist Copyright 2024 The Geist Project Authors https:github.comvercelgeist-font.git
Version: 0.1
ItalicAngle: -10
UnderlinePosition: -125
UnderlineWidth: 50
Ascent: 800
Descent: 200
InvalidEm: 0
sfntRevision: 0x0000199a
LayerCount: 2
Layer: 0 0 "Back" 1
Layer: 1 0 "Fore" 0
XUID: [1021 1008 -1557834819 5403392]
StyleMap: 0x0040
FSType: 0
OS2Version: 4
OS2_WeightWidthSlopeOnly: 0
OS2_UseTypoMetrics: 1
CreationTime: 1728311655
ModificationTime: 1746816070
PfmFamily: 81
TTFWeight: 500
TTFWidth: 5
LineGap: 0
VLineGap: 0
Panose: 0 0 0 0 0 0 0 0 0 0
OS2TypoAscent: 1005
OS2TypoAOffset: 0
OS2TypoDescent: -295
OS2TypoDOffset: 0
OS2TypoLinegap: 0
OS2WinAscent: 1012
OS2WinAOffset: 0
OS2WinDescent: 262
OS2WinDOffset: 0
HheadAscent: 1005
HheadAOffset: 0
HheadDescent: -295
HheadDOffset: 0
OS2SubXSize: 650
OS2SubYSize: 600
OS2SubXOff: 0
OS2SubYOff: 75
OS2SupXSize: 650
OS2SupYSize: 600
OS2SupXOff: 0
OS2SupYOff: 350
OS2StrikeYSize: 50
OS2StrikeYPos: 319
OS2CapHeight: 710
OS2XHeight: 532
OS2Vendor: 'VRCL'
OS2CodePages: 20000097.00000000
OS2UnicodeRanges: a10002ff.5001e5fb.00000000.00000000
Lookup: 1 0 0 "'aalt' Access All Alternates in Latin lookup 0" { "'aalt' Access All Alternates in Latin lookup 0 subtable"  } ['aalt' ('DFLT' <'dflt' > 'latn' <'AZE ' 'CAT ' 'CRT ' 'KAZ ' 'MAH ' 'MOL ' 'NLD ' 'ROM ' 'TAT ' 'TRK ' 'dflt' > ) ]
Lookup: 3 0 0 "'aalt' Access All Alternates in Latin lookup 1" { "'aalt' Access All Alternates in Latin lookup 1 subtable"  } ['aalt' ('DFLT' <'dflt' > 'latn' <'AZE ' 'CAT ' 'CRT ' 'KAZ ' 'MAH ' 'MOL ' 'NLD ' 'ROM ' 'TAT ' 'TRK ' 'dflt' > ) ]

StartChar: .notdef
Encoding: 65536 -1 0
Width: 600
GlyphClass: 1
Flags: HMW
HStem: 0 36<95 510 95 565> 674 36<95 95 95 510>
VStem: 40 33<64 646 64 710> 532 33<64 646 646 646>
LayerCount: 2
Fore
SplineSet
-22.595703125 0 m 1
 102.595703125 710 l 1
 627.595703125 710 l 1
 502.404296875 0 l 1
 -22.595703125 0 l 1
151.248046875 674 m 1
 308.11328125 384 l 1
 566.248046875 674 l 1
 151.248046875 674 l 1
124.311523438 646 m 1
 21.6884765625 64 l 1
 282 355 l 1
 124.311523438 646 l 1
323 355 m 1
 480.688476562 64 l 1
 583.311523438 646 l 1
 323 355 l 1
38.751953125 36 m 1
 453.751953125 36 l 1
 297.88671875 326 l 1
 38.751953125 36 l 1
EndSplineSet
Validated: 524289
EndChar

StartChar: A
Encoding: 65 65 1
Width: 689
GlyphClass: 2
Flags: HMW
HStem: 0 21G<20 20 20 135 554 554 554 669> 185 98<233 456 233 489 199 456> 607 103<344 344> 690 20G<276 413 413 413>
VStem: 20 649<0 0>
AnchorPoint: "Anchor-3" 406.596 710 basechar 0
AnchorPoint: "Anchor-2" 606.404 0 basechar 0
AnchorPoint: "Anchor-0" 281.404 0 basechar 0
LayerCount: 2
Fore
SplineSet
-42.595703125 0 m 1xd8
 338.595703125 710 l 1
 475.595703125 710 l 1
 606.404296875 0 l 1
 491.404296875 0 l 1
 459.024414062 185 l 1
 169.024414062 185 l 1
 72.404296875 0 l 1
 -42.595703125 0 l 1xd8
220.3046875 283 m 1
 443.3046875 283 l 1
 388.434570312 607 l 1xe8
 220.3046875 283 l 1
EndSplineSet
Validated: 524289
Substitution2: "Single Substitution lookup 27 subtable" ordfeminine
Substitution2: "'aalt' Access All Alternates in Latin lookup 0 subtable" ordfeminine
EndChar

StartChar: Aacute
Encoding: 193 193 2
Width: 689
GlyphClass: 2
Flags: HMW
HStem: 0 21G<20 20 20 135 554 554 554 669> 185 98<233 456 233 489 199 456> 607 103<344 344> 690 20G<276 413 413 413> 774 134<297 472 361 382>
VStem: 20 649<0 0>
AnchorPoint: "Anchor-3" 389.14 710 basechar 0
AnchorPoint: "Anchor-2" 588.947 0 basechar 0
AnchorPoint: "Anchor-0" 263.947 0 basechar 0
LayerCount: 2
Fore
SplineSet
353.424804688 774 m 1xdc
 441.052734375 908 l 1
 552.052734375 908 l 1
 438.424804688 774 l 1
 353.424804688 774 l 1xdc
-60.052734375 0 m 1
 321.139648438 710 l 1
 458.139648438 710 l 1
 588.947265625 0 l 1
 473.947265625 0 l 1
 441.568359375 185 l 1
 151.568359375 185 l 1
 54.947265625 0 l 1
 -60.052734375 0 l 1
202.84765625 283 m 1
 425.84765625 283 l 1
 370.978515625 607 l 1xec
 202.84765625 283 l 1
EndSplineSet
Validated: 524289
EndChar

StartChar: Abreve
Encoding: 258 258 3
Width: 689
GlyphClass: 2
Flags: HMW
HStem: 0 21G<20 20 20 135 554 554 554 669> 185 98<233 456 233 489 199 456> 607 103<344 344> 690 20G<276 413 413 413> 777 69<322 366 322 387>
VStem: 20 649<0 0>
AnchorPoint: "Anchor-3" 388.787 710 basechar 0
AnchorPoint: "Anchor-2" 588.595 0 basechar 0
AnchorPoint: "Anchor-0" 263.595 0 basechar 0
LayerCount: 2
Fore
SplineSet
400.600585938 777 m 0xdc
 315.600585938 777 268.59375 828 279.405273438 912 c 1
 346.405273438 912 l 1
 344.293945312 866 368.767578125 846 412.767578125 846 c 0
 456.767578125 846 488.293945312 866 502.405273438 912 c 1
 569.405273438 912 l 1
 550.59375 828 486.600585938 777 400.600585938 777 c 0xdc
-60.4052734375 0 m 1
 320.787109375 710 l 1
 457.787109375 710 l 1
 588.594726562 0 l 1
 473.594726562 0 l 1
 441.215820312 185 l 1
 151.215820312 185 l 1
 54.5947265625 0 l 1
 -60.4052734375 0 l 1
202.495117188 283 m 1
 425.495117188 283 l 1
 370.625 607 l 1xec
 202.495117188 283 l 1
EndSplineSet
Validated: 524321
EndChar

StartChar: uni01CD
Encoding: 461 461 4
Width: 689
GlyphClass: 2
Flags: HMW
HStem: 0 21G<20 20 20 135 554 554 554 669> 185 98<233 456 233 489 199 456> 607 103<344 344> 690 20G<276 413 413 413> 774 139<197 400 197 289>
VStem: 20 649<0 0>
AnchorPoint: "Anchor-3" 388.699 710 basechar 0
AnchorPoint: "Anchor-2" 588.507 0 basechar 0
AnchorPoint: "Anchor-0" 263.507 0 basechar 0
LayerCount: 2
Fore
SplineSet
277.493164062 913 m 1xdc
 359.493164062 913 l 1
 408.799804688 824 l 1
 490.493164062 913 l 1
 572.493164062 913 l 1
 455.983398438 774 l 1
 344.983398438 774 l 1
 277.493164062 913 l 1xdc
-60.4931640625 0 m 1
 320.69921875 710 l 1
 457.69921875 710 l 1
 588.506835938 0 l 1
 473.506835938 0 l 1
 441.126953125 185 l 1
 151.126953125 185 l 1
 54.5068359375 0 l 1
 -60.4931640625 0 l 1
202.407226562 283 m 1
 425.407226562 283 l 1
 370.537109375 607 l 1xec
 202.407226562 283 l 1
EndSplineSet
Validated: 524289
EndChar

StartChar: Acircumflex
Encoding: 194 194 5
Width: 689
GlyphClass: 2
Flags: HMW
HStem: 0 21G<20 20 20 135 554 554 554 669> 185 98<233 456 233 489 199 456> 607 103<344 344> 690 20G<276 413 413 413> 774 139<197 400 197 400 289 410 289 492>
VStem: 20 649<0 0>
AnchorPoint: "Anchor-3" 388.699 710 basechar 0
AnchorPoint: "Anchor-2" 588.507 0 basechar 0
AnchorPoint: "Anchor-0" 263.507 0 basechar 0
LayerCount: 2
Fore
SplineSet
252.983398438 774 m 1xdc
 369.493164062 913 l 1
 480.493164062 913 l 1
 547.983398438 774 l 1
 465.983398438 774 l 1
 415.676757812 863 l 1
 334.983398438 774 l 1
 252.983398438 774 l 1xdc
-60.4931640625 0 m 1
 320.69921875 710 l 1
 457.69921875 710 l 1
 588.506835938 0 l 1
 473.506835938 0 l 1
 441.126953125 185 l 1
 151.126953125 185 l 1
 54.5068359375 0 l 1
 -60.4931640625 0 l 1
202.407226562 283 m 1
 425.407226562 283 l 1
 370.537109375 607 l 1xec
 202.407226562 283 l 1
EndSplineSet
Validated: 524289
EndChar

StartChar: Adieresis
Encoding: 196 196 6
Width: 689
GlyphClass: 2
Flags: HMW
HStem: 0 21G<20 20 20 135 554 554 554 669> 185 98<233 456 233 489 199 456> 607 103<344 344> 690 20G<276 413 413 413> 786 106<197 304 197 304 385 491 197 385>
VStem: 197 107<786 892 786 892> 385 106<786 892 786 892>
AnchorPoint: "Anchor-3" 390.551 710 basechar 0
AnchorPoint: "Anchor-2" 590.358 0 basechar 0
AnchorPoint: "Anchor-0" 265.358 0 basechar 0
LayerCount: 2
Fore
SplineSet
256.951171875 786 m 1xde
 275.641601562 892 l 1
 382.641601562 892 l 1
 363.951171875 786 l 1
 256.951171875 786 l 1xde
444.951171875 786 m 1
 463.641601562 892 l 1
 569.641601562 892 l 1
 550.951171875 786 l 1
 444.951171875 786 l 1
-58.6416015625 0 m 1
 322.55078125 710 l 1
 459.55078125 710 l 1
 590.358398438 0 l 1
 475.358398438 0 l 1
 442.978515625 185 l 1
 152.978515625 185 l 1
 56.3583984375 0 l 1
 -58.6416015625 0 l 1
204.258789062 283 m 1
 427.258789062 283 l 1
 372.388671875 607 l 1xee
 204.258789062 283 l 1
EndSplineSet
Validated: 524289
Substitution2: "'ss08' Style Set 8 in Latin lookup 41 subtable" Adieresis.ss08
Substitution2: "'aalt' Access All Alternates in Latin lookup 0 subtable" Adieresis.ss08
EndChar

StartChar: Agrave
Encoding: 192 192 7
Width: 689
GlyphClass: 2
Flags: HMW
HStem: 0 21G<20 20 20 135 554 554 554 669> 185 98<233 456 233 489 199 456> 607 103<344 344> 690 20G<276 413 413 413> 779 135<308 308 308 329 218 393>
VStem: 20 649<0 0>
AnchorPoint: "Anchor-3" 388.61 710 basechar 0
AnchorPoint: "Anchor-2" 588.419 0 basechar 0
AnchorPoint: "Anchor-0" 263.419 0 basechar 0
LayerCount: 2
Fore
SplineSet
364.77734375 779 m 1xdc
 298.581054688 914 l 1
 409.581054688 914 l 1
 449.77734375 779 l 1
 364.77734375 779 l 1xdc
-60.5810546875 0 m 1
 320.610351562 710 l 1
 457.610351562 710 l 1
 588.418945312 0 l 1
 473.418945312 0 l 1
 441.0390625 185 l 1
 151.0390625 185 l 1
 54.4189453125 0 l 1
 -60.5810546875 0 l 1
202.319335938 283 m 1
 425.319335938 283 l 1
 370.44921875 607 l 1xec
 202.319335938 283 l 1
EndSplineSet
Validated: 524289
EndChar

StartChar: Amacron
Encoding: 256 256 8
Width: 689
GlyphClass: 2
Flags: HMW
HStem: 0 21G<20 20 20 135 554 554 554 669> 185 98<233 456 233 489 199 456> 607 103<344 344> 690 20G<276 413 413 413> 797 85<205 484 205 484>
VStem: 20 649<0 0> 205 279<797 882 797 882>
AnchorPoint: "Anchor-3" 391.432 710 basechar 0
AnchorPoint: "Anchor-2" 591.24 0 basechar 0
AnchorPoint: "Anchor-0" 266.24 0 basechar 0
LayerCount: 2
Fore
SplineSet
267.772460938 797 m 1xda
 282.759765625 882 l 1
 561.759765625 882 l 1
 546.772460938 797 l 1
 267.772460938 797 l 1xda
-57.759765625 0 m 1
 323.431640625 710 l 1
 460.431640625 710 l 1
 591.240234375 0 l 1
 476.240234375 0 l 1
 443.860351562 185 l 1
 153.860351562 185 l 1
 57.240234375 0 l 1xdc
 -57.759765625 0 l 1
205.140625 283 m 1
 428.140625 283 l 1
 373.270507812 607 l 1xec
 205.140625 283 l 1
EndSplineSet
Validated: 524289
EndChar

StartChar: Aogonek
Encoding: 260 260 9
Width: 689
GlyphClass: 2
Flags: HMW
HStem: -212 75<624 630.5> 0 21G<20 20 20 135 554 554 554 583 669 669> 185 98<233 456 233 489 199 456> 607 103<344 344> 690 20G<276 413 413 413>
VStem: 20 685<-186 0> 512 92<-120 -117.5>
AnchorPoint: "Anchor-3" 425.287 710 basechar 0
AnchorPoint: "Anchor-2" 625.095 0 basechar 0
AnchorPoint: "Anchor-0" 300.095 0 basechar 0
LayerCount: 2
Fore
SplineSet
-23.9052734375 0 m 1xec
 357.287109375 710 l 1
 494.287109375 710 l 1
 625.094726562 0 l 1
 584.16015625 -45 l 2
 554.517578125 -77 543.34375 -95 540.345703125 -112 c 0xea
 537.524414062 -128 547.9375 -137 563.9375 -137 c 0
 582.9375 -137 599.819335938 -132 613.23046875 -124 c 1
 628.297851562 -186 l 1xec
 609.653320312 -201 567.712890625 -212 530.712890625 -212 c 0
 468.712890625 -212 435.297851562 -186 443.9375 -137 c 0xea
 450.814453125 -98 486.043945312 -57 519.391601562 -21 c 2
 539.094726562 0 l 1
 510.094726562 0 l 1
 477.71484375 185 l 1
 187.71484375 185 l 1
 91.0947265625 0 l 1
 -23.9052734375 0 l 1xec
238.995117188 283 m 1
 461.995117188 283 l 1
 407.125 607 l 1xf4
 238.995117188 283 l 1
EndSplineSet
Validated: 524321
EndChar

StartChar: Aring
Encoding: 197 197 10
Width: 691
GlyphClass: 2
Flags: HMW
HStem: 0 21G<17 17 17 132 551 551 551 666> 185 98<230 453 230 486 197 453> 607 103<342 342> 690 20G<273 410 410 410> 756 54<329.5 352.5 329.5 368> 891 55<329.5 352.5>
VStem: 245 56<839.5 862.5 839.5 878> 381 56<839.5 862.5>
AnchorPoint: "Anchor-3" 383.789 710 basechar 0
AnchorPoint: "Anchor-2" 582.598 0 basechar 0
AnchorPoint: "Anchor-0" 258.598 0 basechar 0
LayerCount: 2
Fore
SplineSet
390.900390625 756 m 0xdf
 336.900390625 756 302.129882812 797 311.651367188 851 c 0
 321.172851562 905 370.40234375 946 424.40234375 946 c 0
 478.40234375 946 513.172851562 905 503.651367188 851 c 0
 494.129882812 797 444.900390625 756 390.900390625 756 c 0xdf
400.421875 810 m 0
 423.421875 810 443.595703125 828 447.651367188 851 c 0
 451.70703125 874 437.705078125 891 414.705078125 891 c 0
 391.705078125 891 371.70703125 874 367.651367188 851 c 0
 363.595703125 828 377.421875 810 400.421875 810 c 0
-66.40234375 0 m 1
 314.7890625 710 l 1
 451.7890625 710 l 1
 582.59765625 0 l 1
 467.59765625 0 l 1
 435.217773438 185 l 1
 146.217773438 185 l 1
 48.59765625 0 l 1
 -66.40234375 0 l 1
196.498046875 283 m 1
 419.498046875 283 l 1
 365.627929688 607 l 1xef
 196.498046875 283 l 1
EndSplineSet
Validated: 524321
EndChar

StartChar: Atilde
Encoding: 195 195 11
Width: 691
GlyphClass: 2
Flags: HMW
HStem: 0 21G<17 17 17 132 551 551 551 666> 185 98<230 453 230 486 197 453> 607 103<342 342> 690 20G<273 410 410 410> 787 67<387.5 407 387.5 423> 839 67<261 281>
VStem: 171 60<780 780> 436 59<915 915>
AnchorPoint: "Anchor-3" 386.522 710 basechar 0
AnchorPoint: "Anchor-2" 585.33 0 basechar 0
AnchorPoint: "Anchor-0" 261.33 0 basechar 0
LayerCount: 2
Fore
SplineSet
450.099609375 787 m 0xdb
 422.099609375 787 402.686523438 796 383.037109375 815 c 0
 365.034179688 832 357.268554688 839 339.268554688 839 c 0
 317.268554688 839 297.9765625 826 287.865234375 780 c 1
 227.865234375 780 l 1
 244.147460938 861 291.083007812 906 350.083007812 906 c 0xd7
 382.083007812 906 402.142578125 895 422.79296875 876 c 0
 438.971679688 860 449.9140625 854 464.9140625 854 c 0
 488.9140625 854 504.206054688 867 516.669921875 915 c 1
 575.669921875 915 l 1
 558.563476562 835 512.099609375 787 450.099609375 787 c 0xdb
-63.669921875 0 m 1
 317.522460938 710 l 1
 454.522460938 710 l 1
 585.330078125 0 l 1
 470.330078125 0 l 1
 437.951171875 185 l 1
 148.951171875 185 l 1
 51.330078125 0 l 1
 -63.669921875 0 l 1
199.23046875 283 m 1
 422.23046875 283 l 1
 368.361328125 607 l 1xe7
 199.23046875 283 l 1
EndSplineSet
Validated: 524289
EndChar

StartChar: AE
Encoding: 198 198 12
Width: 995
GlyphClass: 2
Flags: HMW
HStem: 0 99<611 942 611 942> 185 97<284 503 284 503 233 503> 308 96<611 922 611 922> 611 99<611 934 611 611> 614 96<455 503 455 455>
VStem: 503 108<99 185 185 185 282 308 404 611>
AnchorPoint: "Anchor-3" 587.596 710 basechar 0
AnchorPoint: "Anchor-0" 462.404 0 basechar 0
LayerCount: 2
Fore
SplineSet
-42.595703125 0 m 1xd4
 462.595703125 710 l 1
 996.595703125 710 l 1
 979.139648438 611 l 1
 656.139648438 611 l 1
 619.639648438 404 l 1
 930.639648438 404 l 1
 913.712890625 308 l 1
 602.712890625 308 l 1xb4
 565.860351562 99 l 1
 896.860351562 99 l 1
 879.404296875 0 l 1
 440.404296875 0 l 1
 473.024414062 185 l 1
 203.024414062 185 l 1
 75.404296875 0 l 1
 -42.595703125 0 l 1xd4
548.668945312 614 m 1xcc
 500.668945312 614 l 1
 271.127929688 282 l 1
 490.127929688 282 l 1
 548.668945312 614 l 1xcc
EndSplineSet
Validated: 524289
EndChar

StartChar: B
Encoding: 66 66 13
Width: 688
GlyphClass: 2
Flags: HMW
HStem: 0 97<194 376 376 379> 315 52 315 92<194 339 339 376 194 339> 613 97<194 339 194 194>
VStem: 86 108<97 97 97 315 407 613> 488 111<477.5 545> 518 111<169.5 240>
AnchorPoint: "Anchor-3" 406.596 710 basechar 0
AnchorPoint: "Anchor-0" 281.404 0 basechar 0
LayerCount: 2
Fore
SplineSet
23.404296875 0 m 1xda
 148.595703125 710 l 1
 403.595703125 710 l 2
 573.595703125 710 651.192382812 651 627.741210938 518 c 0xbc
 613.458984375 437 554.231445312 379 469.116210938 367 c 1
 569 355 617.5390625 290 600.788085938 195 c 0
 577.865234375 65 476.404296875 0 316.404296875 0 c 2
 23.404296875 0 l 1xda
203.168945312 407 m 1
 348.168945312 407 l 2
 443.168945312 407 503.693359375 444 515.331054688 510 c 0
 527.673828125 580 482.4921875 613 384.4921875 613 c 2
 239.4921875 613 l 1
 203.168945312 407 l 1
148.5078125 97 m 1
 330.5078125 97 l 2
 419.5078125 97 479.03125 134 491.55078125 205 c 0xba
 503.893554688 275 457.947265625 315 368.947265625 315 c 2
 186.947265625 315 l 1
 148.5078125 97 l 1
EndSplineSet
Validated: 524321
EndChar

StartChar: C
Encoding: 67 67 14
Width: 713
GlyphClass: 2
Flags: HMW
HStem: -16 99<304.5 425.5 304.5 455.5> 627 99<304.5 423>
VStem: 44 112<269 438.5 269 468.5>
AnchorPoint: "Anchor-3" 429.596 710 basechar 0
AnchorPoint: "Anchor-0" 307.404 0 basechar 0
LayerCount: 2
Fore
SplineSet
302.583007812 -16 m 0
 110.583007812 -16 3.091796875 123 43.8232421875 354 c 0
 84.2021484375 583 239.416992188 726 434.416992188 726 c 0
 610.416992188 726 687.842773438 632 690.51171875 477 c 1
 576.454101562 471 l 1
 574.557617188 568 524.9609375 627 416.9609375 627 c 0
 287.9609375 627 185.623046875 523 155.823242188 354 c 0
 125.84765625 184 193.0390625 83 320.0390625 83 c 0
 435.0390625 83 507.5 148 543.19140625 254 c 1
 655.1328125 248 l 1
 599.744140625 87 477.583007812 -16 302.583007812 -16 c 0
EndSplineSet
Validated: 524321
EndChar

StartChar: Cacute
Encoding: 262 262 15
Width: 713
GlyphClass: 2
Flags: HMW
HStem: -16 99<304.5 425.5 304.5 455.5> 627 99<304.5 423> 774 134<320 494 383 404>
VStem: 44 112<269 438.5 269 468.5>
AnchorPoint: "Anchor-3" 413.551 710 basechar 0
AnchorPoint: "Anchor-0" 291.358 0 basechar 0
LayerCount: 2
Fore
SplineSet
377.834960938 774 m 1
 464.462890625 908 l 1
 575.462890625 908 l 1
 461.834960938 774 l 1
 377.834960938 774 l 1
286.537109375 -16 m 0
 94.537109375 -16 -12.9541015625 123 27.7783203125 354 c 0
 68.1572265625 583 223.37109375 726 418.37109375 726 c 0
 594.37109375 726 671.796875 632 674.465820312 477 c 1
 560.408203125 471 l 1
 558.51171875 568 508.915039062 627 400.915039062 627 c 0
 271.915039062 627 169.577148438 523 139.778320312 354 c 0
 109.802734375 184 176.993164062 83 303.993164062 83 c 0
 418.993164062 83 491.454101562 148 527.145507812 254 c 1
 639.086914062 248 l 1
 583.698242188 87 461.537109375 -16 286.537109375 -16 c 0
EndSplineSet
Validated: 524321
EndChar

StartChar: Ccaron
Encoding: 268 268 16
Width: 713
GlyphClass: 2
Flags: HMW
HStem: -16 99<304.5 425.5 304.5 455.5> 627 99<304.5 423> 774 139<220 422 220 312>
VStem: 44 112<269 438.5 269 468.5>
AnchorPoint: "Anchor-3" 413.109 710 basechar 0
AnchorPoint: "Anchor-0" 290.917 0 basechar 0
LayerCount: 2
Fore
SplineSet
301.904296875 913 m 1
 382.904296875 913 l 1
 433.2109375 824 l 1
 514.904296875 913 l 1
 595.904296875 913 l 1
 479.39453125 774 l 1
 369.39453125 774 l 1
 301.904296875 913 l 1
286.095703125 -16 m 0
 94.095703125 -16 -13.39453125 123 27.3369140625 354 c 0
 67.7158203125 583 222.930664062 726 417.930664062 726 c 0
 593.930664062 726 671.356445312 632 674.025390625 477 c 1
 559.967773438 471 l 1
 558.071289062 568 508.474609375 627 400.474609375 627 c 0
 271.474609375 627 169.13671875 523 139.336914062 354 c 0
 109.361328125 184 176.552734375 83 303.552734375 83 c 0
 418.552734375 83 491.013671875 148 526.704101562 254 c 1
 638.646484375 248 l 1
 583.2578125 87 461.095703125 -16 286.095703125 -16 c 0
EndSplineSet
Validated: 524321
EndChar

StartChar: Ccedilla
Encoding: 199 199 17
Width: 713
GlyphClass: 2
Flags: HMW
HStem: -224 62<343 375.5 343 395> -81 47<339 382> -81 164<339 369> -14 21G<328 328> -14 97<328 328> 627 99<304.5 423>
VStem: 44 112<269 438.5 269 468.5> 411 67<-136 -111.5>
AnchorPoint: "Anchor-3" 447.935 710 basechar 0
AnchorPoint: "Anchor-0" 325.742 0 basechar 0
LayerCount: 2
Fore
SplineSet
278.245117188 -224 m 0xc7
 213.245117188 -224 178.240234375 -190 171.350585938 -144 c 1
 231.23046875 -122 l 1
 237.29296875 -150 254.176757812 -162 286.176757812 -162 c 0
 319.176757812 -162 340.645507812 -148 344.876953125 -124 c 0
 349.28515625 -99 340.458984375 -81 280.458984375 -81 c 1xa7
 254.278320312 -48 l 1
 281.2734375 -14 l 1x97
 114.447265625 4 24.427734375 140 62.162109375 354 c 0
 102.541015625 583 257.754882812 726 452.754882812 726 c 0
 628.754882812 726 706.180664062 632 708.849609375 477 c 1
 594.791992188 471 l 1
 592.895507812 568 543.298828125 627 435.298828125 627 c 0
 306.298828125 627 203.9609375 523 174.162109375 354 c 0
 144.186523438 184 211.376953125 83 338.376953125 83 c 0x8f
 453.376953125 83 525.837890625 148 561.529296875 254 c 1
 673.470703125 248 l 1
 621.668945312 96 509.036132812 -4 349.096679688 -15 c 1
 331.747070312 -34 l 1
 397.041015625 -38 420.517578125 -75 411.524414062 -126 c 0
 400.768554688 -187 344.245117188 -224 278.245117188 -224 c 0xc7
EndSplineSet
Validated: 524321
EndChar

StartChar: Ccircumflex
Encoding: 264 264 18
Width: 713
GlyphClass: 2
Flags: HMW
HStem: -16 99<304.5 425.5 304.5 455.5> 627 99<304.5 423> 774 139<220 422 220 422 312 433 312 514>
VStem: 44 112<269 438.5 269 468.5>
AnchorPoint: "Anchor-3" 413.109 710 basechar 0
AnchorPoint: "Anchor-0" 290.917 0 basechar 0
LayerCount: 2
Fore
SplineSet
277.39453125 774 m 1
 393.904296875 913 l 1
 503.904296875 913 l 1
 571.39453125 774 l 1
 490.39453125 774 l 1
 440.087890625 863 l 1
 358.39453125 774 l 1
 277.39453125 774 l 1
286.095703125 -16 m 0
 94.095703125 -16 -13.39453125 123 27.3369140625 354 c 0
 67.7158203125 583 222.930664062 726 417.930664062 726 c 0
 593.930664062 726 671.356445312 632 674.025390625 477 c 1
 559.967773438 471 l 1
 558.071289062 568 508.474609375 627 400.474609375 627 c 0
 271.474609375 627 169.13671875 523 139.336914062 354 c 0
 109.361328125 184 176.552734375 83 303.552734375 83 c 0
 418.552734375 83 491.013671875 148 526.704101562 254 c 1
 638.646484375 248 l 1
 583.2578125 87 461.095703125 -16 286.095703125 -16 c 0
EndSplineSet
Validated: 524321
EndChar

StartChar: Cdotaccent
Encoding: 266 266 19
Width: 713
GlyphClass: 2
Flags: HMW
HStem: -16 99<304.5 425.5 304.5 455.5> 627 99<304.5 423> 787 106<312 422 312 422>
VStem: 44 112<269 438.5 269 468.5> 312 110<787 893 787 893>
AnchorPoint: "Anchor-3" 414.873 710 basechar 0
AnchorPoint: "Anchor-0" 292.681 0 basechar 0
LayerCount: 2
Fore
SplineSet
373.450195312 787 m 1
 392.140625 893 l 1
 502.140625 893 l 1
 483.450195312 787 l 1
 373.450195312 787 l 1
287.859375 -16 m 0
 95.859375 -16 -11.630859375 123 29.1005859375 354 c 0
 69.4794921875 583 224.694335938 726 419.694335938 726 c 0
 595.694335938 726 673.119140625 632 675.7890625 477 c 1
 561.73046875 471 l 1
 559.833984375 568 510.237304688 627 402.237304688 627 c 0
 273.237304688 627 170.899414062 523 141.100585938 354 c 0
 111.125 184 178.315429688 83 305.315429688 83 c 0
 420.315429688 83 492.77734375 148 528.467773438 254 c 1
 640.41015625 248 l 1
 585.021484375 87 462.859375 -16 287.859375 -16 c 0
EndSplineSet
Validated: 524321
Substitution2: "'ss08' Style Set 8 in Latin lookup 41 subtable" Cdotaccent.ss08
Substitution2: "'aalt' Access All Alternates in Latin lookup 0 subtable" Cdotaccent.ss08
EndChar

StartChar: D
Encoding: 68 68 20
Width: 705
GlyphClass: 2
Flags: HMW
HStem: 0 99<194 314 314 320> 611 99<194 314 194 194>
VStem: 86 108<99 99 99 611> 549 112<268.5 440.5>
AnchorPoint: "Anchor-3" 386.596 710 basechar 0
AnchorPoint: "Anchor-1" 203 355 basechar 0
AnchorPoint: "Anchor-0" 261.404 0 basechar 0
LayerCount: 2
Fore
SplineSet
23.404296875 0 m 1
 148.595703125 710 l 1
 376.595703125 710 l 2
 598.595703125 710 701.026367188 582 660.823242188 354 c 0
 620.797851562 127 476.404296875 0 257.404296875 0 c 2
 23.404296875 0 l 1
148.860351562 99 m 1
 268.860351562 99 l 2
 425.860351562 99 518.671875 183 548.823242188 354 c 0
 579.328125 527 516.139648438 611 359.139648438 611 c 2
 239.139648438 611 l 1
 148.860351562 99 l 1
EndSplineSet
Validated: 524321
EndChar

StartChar: Dcaron
Encoding: 270 270 21
Width: 705
GlyphClass: 2
Flags: HMW
HStem: 0 99<194 314 314 320> 611 99<194 314 194 194> 774 139<176 379 176 268>
VStem: 86 108<99 99 99 611> 549 112<268.5 440.5>
AnchorPoint: "Anchor-3" 368.699 710 basechar 0
AnchorPoint: "Anchor-1" 185.103 355 basechar 0
AnchorPoint: "Anchor-0" 243.507 0 basechar 0
LayerCount: 2
Fore
SplineSet
256.493164062 913 m 1
 338.493164062 913 l 1
 388.799804688 824 l 1
 470.493164062 913 l 1
 551.493164062 913 l 1
 434.983398438 774 l 1
 323.983398438 774 l 1
 256.493164062 913 l 1
5.5068359375 0 m 1
 130.69921875 710 l 1
 358.69921875 710 l 2
 580.69921875 710 683.12890625 582 642.926757812 354 c 0
 602.900390625 127 458.506835938 0 239.506835938 0 c 2
 5.5068359375 0 l 1
130.962890625 99 m 1
 250.962890625 99 l 2
 407.962890625 99 500.774414062 183 530.926757812 354 c 0
 561.430664062 527 498.2421875 611 341.2421875 611 c 2
 221.2421875 611 l 1
 130.962890625 99 l 1
EndSplineSet
Validated: 524321
EndChar

StartChar: Dcroat
Encoding: 272 272 22
Width: 705
GlyphClass: 2
Flags: HMW
HStem: 0 99<194 314 314 320> 310 90<16 86 16 86 194 390> 611 99<194 314 194 194>
VStem: 86 108<99 99 99 310 400 611> 549 112<268.5 440.5>
AnchorPoint: "Anchor-3" 386.596 710 basechar 0
AnchorPoint: "Anchor-1" 203 355 basechar 0
AnchorPoint: "Anchor-0" 261.404 0 basechar 0
LayerCount: 2
Fore
SplineSet
23.404296875 0 m 1
 78.0654296875 310 l 1
 8.0654296875 310 l 1
 23.9345703125 400 l 1
 93.9345703125 400 l 1
 148.595703125 710 l 1
 376.595703125 710 l 2
 598.595703125 710 701.026367188 582 660.823242188 354 c 0
 620.797851562 127 476.404296875 0 257.404296875 0 c 2
 23.404296875 0 l 1
148.860351562 99 m 1
 268.860351562 99 l 2
 425.860351562 99 518.671875 183 548.823242188 354 c 0
 579.328125 527 516.139648438 611 359.139648438 611 c 2
 239.139648438 611 l 1
 201.934570312 400 l 1
 397.934570312 400 l 1
 382.065429688 310 l 1
 186.065429688 310 l 1
 148.860351562 99 l 1
EndSplineSet
Validated: 524321
EndChar

StartChar: Eth
Encoding: 208 208 23
Width: 705
GlyphClass: 2
Flags: HMW
HStem: 0 99<194 314 314 320> 310 90<16 86 16 86 194 390> 611 99<194 314 194 194>
VStem: 86 108<99 99 99 310 400 611> 549 112<268.5 440.5>
AnchorPoint: "Anchor-3" 386.596 710 basechar 0
AnchorPoint: "Anchor-1" 203 355 basechar 0
AnchorPoint: "Anchor-0" 261.404 0 basechar 0
LayerCount: 2
Fore
SplineSet
23.404296875 0 m 1
 78.0654296875 310 l 1
 8.0654296875 310 l 1
 23.9345703125 400 l 1
 93.9345703125 400 l 1
 148.595703125 710 l 1
 376.595703125 710 l 2
 598.595703125 710 701.026367188 582 660.823242188 354 c 0
 620.797851562 127 476.404296875 0 257.404296875 0 c 2
 23.404296875 0 l 1
148.860351562 99 m 1
 268.860351562 99 l 2
 425.860351562 99 518.671875 183 548.823242188 354 c 0
 579.328125 527 516.139648438 611 359.139648438 611 c 2
 239.139648438 611 l 1
 201.934570312 400 l 1
 397.934570312 400 l 1
 382.065429688 310 l 1
 186.065429688 310 l 1
 148.860351562 99 l 1
EndSplineSet
Validated: 524321
EndChar

StartChar: E
Encoding: 69 69 24
Width: 609
GlyphClass: 2
Flags: HMW
HStem: 0 99<194 556 194 556> 308 96<194 536 194 536> 611 99<194 548 194 194>
VStem: 86 108<99 308 404 611>
AnchorPoint: "Anchor-3" 381.596 710 basechar 0
AnchorPoint: "Anchor-2" 493.404 0 basechar 0
AnchorPoint: "Anchor-0" 257.404 0 basechar 0
LayerCount: 2
Fore
SplineSet
23.404296875 0 m 1
 148.595703125 710 l 1
 610.595703125 710 l 1
 593.139648438 611 l 1
 239.139648438 611 l 1
 202.639648438 404 l 1
 544.639648438 404 l 1
 527.712890625 308 l 1
 185.712890625 308 l 1
 148.860351562 99 l 1
 510.860351562 99 l 1
 493.404296875 0 l 1
 23.404296875 0 l 1
EndSplineSet
Validated: 524289
EndChar

StartChar: Eacute
Encoding: 201 201 25
Width: 609
GlyphClass: 2
Flags: HMW
HStem: 0 99<194 556 194 556> 308 96<194 536 194 536> 611 99<194 548 194 194> 774 134<271 446 335 356>
VStem: 86 108<99 308 404 611>
AnchorPoint: "Anchor-3" 364.14 710 basechar 0
AnchorPoint: "Anchor-2" 475.947 0 basechar 0
AnchorPoint: "Anchor-0" 239.947 0 basechar 0
LayerCount: 2
Fore
SplineSet
327.424804688 774 m 1
 415.052734375 908 l 1
 526.052734375 908 l 1
 412.424804688 774 l 1
 327.424804688 774 l 1
5.947265625 0 m 1
 131.139648438 710 l 1
 593.139648438 710 l 1
 575.68359375 611 l 1
 221.68359375 611 l 1
 185.18359375 404 l 1
 527.18359375 404 l 1
 510.255859375 308 l 1
 168.255859375 308 l 1
 131.404296875 99 l 1
 493.404296875 99 l 1
 475.947265625 0 l 1
 5.947265625 0 l 1
EndSplineSet
Validated: 524289
EndChar

StartChar: Ecaron
Encoding: 282 282 26
Width: 609
GlyphClass: 2
Flags: HMW
HStem: 0 99<194 556 194 556> 308 96<194 536 194 536> 611 99<194 548 194 194> 774 139<171 374 171 263>
VStem: 86 108<99 308 404 611>
AnchorPoint: "Anchor-3" 363.699 710 basechar 0
AnchorPoint: "Anchor-2" 475.507 0 basechar 0
AnchorPoint: "Anchor-0" 239.507 0 basechar 0
LayerCount: 2
Fore
SplineSet
251.493164062 913 m 1
 333.493164062 913 l 1
 383.799804688 824 l 1
 464.493164062 913 l 1
 546.493164062 913 l 1
 429.983398438 774 l 1
 318.983398438 774 l 1
 251.493164062 913 l 1
5.5068359375 0 m 1
 130.69921875 710 l 1
 592.69921875 710 l 1
 575.2421875 611 l 1
 221.2421875 611 l 1
 184.743164062 404 l 1
 526.743164062 404 l 1
 509.815429688 308 l 1
 167.815429688 308 l 1
 130.962890625 99 l 1
 492.962890625 99 l 1
 475.506835938 0 l 1
 5.5068359375 0 l 1
EndSplineSet
Validated: 524289
EndChar

StartChar: Ecircumflex
Encoding: 202 202 27
Width: 609
GlyphClass: 2
Flags: HMW
HStem: 0 99<194 556 194 556> 308 96<194 536 194 536> 611 99<194 548 194 194> 774 139<171 374 171 374 263 384 263 466>
VStem: 86 108<99 308 404 611>
AnchorPoint: "Anchor-3" 363.699 710 basechar 0
AnchorPoint: "Anchor-2" 475.507 0 basechar 0
AnchorPoint: "Anchor-0" 239.507 0 basechar 0
LayerCount: 2
Fore
SplineSet
226.983398438 774 m 1
 343.493164062 913 l 1
 454.493164062 913 l 1
 521.983398438 774 l 1
 439.983398438 774 l 1
 390.676757812 863 l 1
 308.983398438 774 l 1
 226.983398438 774 l 1
5.5068359375 0 m 1
 130.69921875 710 l 1
 592.69921875 710 l 1
 575.2421875 611 l 1
 221.2421875 611 l 1
 184.743164062 404 l 1
 526.743164062 404 l 1
 509.815429688 308 l 1
 167.815429688 308 l 1
 130.962890625 99 l 1
 492.962890625 99 l 1
 475.506835938 0 l 1
 5.5068359375 0 l 1
EndSplineSet
Validated: 524289
EndChar

StartChar: Edieresis
Encoding: 203 203 28
Width: 609
GlyphClass: 2
Flags: HMW
HStem: 0 99<194 556 194 556> 308 96<194 536 194 536> 611 99<194 548 194 194> 786 106<172 278 172 278 359 466 172 359>
VStem: 86 108<99 308 404 611> 172 106<786 892 786 892> 359 107<786 892 786 892>
AnchorPoint: "Anchor-3" 365.551 710 basechar 0
AnchorPoint: "Anchor-2" 477.358 0 basechar 0
AnchorPoint: "Anchor-0" 241.358 0 basechar 0
LayerCount: 2
Fore
SplineSet
231.951171875 786 m 1xf6
 250.641601562 892 l 1
 356.641601562 892 l 1
 337.951171875 786 l 1
 231.951171875 786 l 1xf6
418.951171875 786 m 1
 437.641601562 892 l 1
 544.641601562 892 l 1
 525.951171875 786 l 1
 418.951171875 786 l 1
7.3583984375 0 m 1xfa
 132.55078125 710 l 1
 594.55078125 710 l 1
 577.09375 611 l 1
 223.09375 611 l 1
 186.594726562 404 l 1
 528.594726562 404 l 1
 511.666992188 308 l 1
 169.666992188 308 l 1
 132.814453125 99 l 1
 494.814453125 99 l 1
 477.358398438 0 l 1
 7.3583984375 0 l 1xfa
EndSplineSet
Validated: 524289
Substitution2: "'ss08' Style Set 8 in Latin lookup 41 subtable" Edieresis.ss08
Substitution2: "'aalt' Access All Alternates in Latin lookup 0 subtable" Edieresis.ss08
EndChar

StartChar: Edotaccent
Encoding: 278 278 29
Width: 609
GlyphClass: 2
Flags: HMW
HStem: 0 99<194 556 194 556> 308 96<194 536 194 536> 611 99<194 548 194 194> 787 106<263 374 263 374>
VStem: 86 108<99 308 404 611> 263 111<787 893 787 893>
AnchorPoint: "Anchor-3" 365.462 710 basechar 0
AnchorPoint: "Anchor-2" 477.27 0 basechar 0
AnchorPoint: "Anchor-0" 241.27 0 basechar 0
LayerCount: 2
Fore
SplineSet
323.0390625 787 m 1
 341.73046875 893 l 1
 452.73046875 893 l 1
 434.0390625 787 l 1
 323.0390625 787 l 1
7.26953125 0 m 1
 132.461914062 710 l 1
 594.461914062 710 l 1
 577.005859375 611 l 1
 223.005859375 611 l 1
 186.505859375 404 l 1
 528.505859375 404 l 1
 511.579101562 308 l 1
 169.579101562 308 l 1
 132.7265625 99 l 1
 494.7265625 99 l 1
 477.26953125 0 l 1
 7.26953125 0 l 1
EndSplineSet
Validated: 524289
Substitution2: "'ss08' Style Set 8 in Latin lookup 41 subtable" Edotaccent.ss08
Substitution2: "'aalt' Access All Alternates in Latin lookup 0 subtable" Edotaccent.ss08
EndChar

StartChar: Egrave
Encoding: 200 200 30
Width: 609
GlyphClass: 2
Flags: HMW
HStem: 0 99<194 556 194 556> 308 96<194 536 194 536> 611 99<194 548 194 194> 779 135<282 282 282 303 192 367>
VStem: 86 108<99 308 404 611>
AnchorPoint: "Anchor-3" 363.61 710 basechar 0
AnchorPoint: "Anchor-2" 475.419 0 basechar 0
AnchorPoint: "Anchor-0" 239.419 0 basechar 0
LayerCount: 2
Fore
SplineSet
338.77734375 779 m 1
 272.581054688 914 l 1
 383.581054688 914 l 1
 423.77734375 779 l 1
 338.77734375 779 l 1
5.4189453125 0 m 1
 130.610351562 710 l 1
 592.610351562 710 l 1
 575.154296875 611 l 1
 221.154296875 611 l 1
 184.654296875 404 l 1
 526.654296875 404 l 1
 509.727539062 308 l 1
 167.727539062 308 l 1
 130.875 99 l 1
 492.875 99 l 1
 475.418945312 0 l 1
 5.4189453125 0 l 1
EndSplineSet
Validated: 524289
EndChar

StartChar: Emacron
Encoding: 274 274 31
Width: 609
GlyphClass: 2
Flags: HMW
HStem: 0 99<194 556 194 556> 308 96<194 536 194 536> 611 99<194 548 194 194> 797 85<179 458 179 458>
VStem: 86 108<99 308 404 611> 179 279<797 882 797 882>
AnchorPoint: "Anchor-3" 366.432 710 basechar 0
AnchorPoint: "Anchor-2" 478.24 0 basechar 0
AnchorPoint: "Anchor-0" 242.24 0 basechar 0
LayerCount: 2
Fore
SplineSet
241.772460938 797 m 1xf4
 256.759765625 882 l 1
 535.759765625 882 l 1
 520.772460938 797 l 1
 241.772460938 797 l 1xf4
8.240234375 0 m 1xf8
 133.431640625 710 l 1
 595.431640625 710 l 1
 577.975585938 611 l 1
 223.975585938 611 l 1
 187.475585938 404 l 1
 529.475585938 404 l 1
 512.548828125 308 l 1
 170.548828125 308 l 1
 133.696289062 99 l 1
 495.696289062 99 l 1
 478.240234375 0 l 1
 8.240234375 0 l 1xf8
EndSplineSet
Validated: 524289
EndChar

StartChar: Eogonek
Encoding: 280 280 32
Width: 609
GlyphClass: 2
Flags: HMW
HStem: -212 75<511 517.5> 0 99<194 470 194 556> 308 96<194 536 194 536> 611 99<194 548 194 194>
VStem: 86 108<99 308 404 611> 399 92<-120 -117.5>
AnchorPoint: "Anchor-3" 400.287 710 basechar 0
AnchorPoint: "Anchor-2" 512.095 0 basechar 0
AnchorPoint: "Anchor-0" 276.095 0 basechar 0
LayerCount: 2
Fore
SplineSet
42.0947265625 0 m 1
 167.287109375 710 l 1
 629.287109375 710 l 1
 611.830078125 611 l 1
 257.830078125 611 l 1
 221.331054688 404 l 1
 563.331054688 404 l 1
 546.403320312 308 l 1
 204.403320312 308 l 1
 167.55078125 99 l 1
 529.55078125 99 l 1
 512.094726562 0 l 1
 471.16015625 -45 l 2
 441.517578125 -77 430.34375 -95 427.345703125 -112 c 0
 424.524414062 -128 434.9375 -137 450.9375 -137 c 0
 469.9375 -137 486.819335938 -132 500.23046875 -124 c 1
 515.297851562 -186 l 1
 496.653320312 -201 454.712890625 -212 417.712890625 -212 c 0
 355.712890625 -212 322.297851562 -186 330.9375 -137 c 0
 337.814453125 -98 373.043945312 -57 406.391601562 -21 c 2
 426.094726562 0 l 1
 42.0947265625 0 l 1
EndSplineSet
Validated: 524321
EndChar

StartChar: uni1EBC
Encoding: 7868 7868 33
Width: 609
GlyphClass: 2
Flags: HMW
HStem: 0 99<194 556 194 556> 308 96<194 536 194 536> 611 99<194 548 194 194> 785 67<372.5 392 372.5 408> 837 67<246 266>
VStem: 86 108<99 308 404 611> 156 60<778 778> 421 59<913 913>
AnchorPoint: "Anchor-3" 363.699 710 basechar 0
AnchorPoint: "Anchor-2" 475.507 0 basechar 0
AnchorPoint: "Anchor-0" 239.507 0 basechar 0
LayerCount: 2
Fore
SplineSet
434.923828125 785 m 0xf5
 406.923828125 785 387.510742188 794 367.860351562 813 c 0
 349.858398438 830 342.092773438 837 324.092773438 837 c 0
 302.092773438 837 282.799804688 824 272.689453125 778 c 1
 212.689453125 778 l 1
 228.971679688 859 275.90625 904 334.90625 904 c 0xea
 366.90625 904 386.966796875 893 407.616210938 874 c 0
 423.794921875 858 434.737304688 852 449.737304688 852 c 0
 473.737304688 852 489.029296875 865 501.493164062 913 c 1
 560.493164062 913 l 1
 543.38671875 833 496.923828125 785 434.923828125 785 c 0xf5
5.5068359375 0 m 1xe4
 130.69921875 710 l 1
 592.69921875 710 l 1
 575.2421875 611 l 1
 221.2421875 611 l 1
 184.743164062 404 l 1
 526.743164062 404 l 1
 509.815429688 308 l 1
 167.815429688 308 l 1
 130.962890625 99 l 1
 492.962890625 99 l 1
 475.506835938 0 l 1
 5.5068359375 0 l 1xe4
EndSplineSet
Validated: 524289
EndChar

StartChar: uni018F
Encoding: 399 399 34
Width: 728
GlyphClass: 1
Flags: HMW
HStem: -16 99<303 413.5 303 450> 299 96<160 570 160 160> 627 99<317.5 412.5>
VStem: 570 114<299 299> 571 113<395 395>
LayerCount: 2
Fore
SplineSet
684 355 m 0xe8
 642.2109375 118 478.583007812 -16 290.583007812 -16 c 0
 128.583007812 -16 -0.08203125 105 41.8837890625 343 c 2
 51.052734375 395 l 1
 578.052734375 395 l 1
 593.149414062 543 516.9609375 627 403.9609375 627 c 0
 326.9609375 627 254.37890625 584 204.21484375 498 c 1
 91.8017578125 507 l 1
 157.60546875 642 280.416992188 726 421.416992188 726 c 0
 619.416992188 726 724.555664062 585 684 355 c 0xe8
309.0390625 83 m 0
 422.0390625 83 522.086914062 157 560.125976562 299 c 1xf0
 150.125976562 299 l 1
 142.911132812 156 201.0390625 83 309.0390625 83 c 0
EndSplineSet
Validated: 524321
EndChar

StartChar: F
Encoding: 70 70 35
Width: 595
GlyphClass: 1
Flags: HMW
HStem: 0 21G<86 86 86 194> 299 96<194 529 194 529> 611 99<194 547 194 194>
VStem: 86 108<0 299 395 611>
LayerCount: 2
Fore
SplineSet
23.404296875 0 m 1
 148.595703125 710 l 1
 609.595703125 710 l 1
 592.139648438 611 l 1
 239.139648438 611 l 1
 201.052734375 395 l 1
 536.052734375 395 l 1
 519.125976562 299 l 1
 184.125976562 299 l 1
 131.404296875 0 l 1
 23.404296875 0 l 1
EndSplineSet
Validated: 524289
EndChar

StartChar: G
Encoding: 71 71 36
Width: 713
GlyphClass: 2
Flags: HMW
HStem: -16 99<296 414> 0 21G<590 664 590 590> 271 91<371 561 371 664> 627 99<295 425>
VStem: 44 112<276.5 428.5 276.5 460.5> 561 103<271 271> 587.5 76.5
AnchorPoint: "Anchor-3" 431.596 710 basechar 0
AnchorPoint: "Anchor-0" 309.404 0 basechar 0
LayerCount: 2
Fore
SplineSet
299.583007812 -16 m 0xba
 97.5830078125 -16 5.7373046875 138 43.8232421875 354 c 0
 81.380859375 567 230.416992188 726 434.416992188 726 c 0
 609.416992188 726 681.608398438 625 685.275390625 487 c 1
 571.216796875 481 l 1
 569.557617188 568 528.9609375 627 416.9609375 627 c 0
 268.9609375 627 182.096679688 503 155.823242188 354 c 0
 128.493164062 199 174.0390625 83 322.0390625 83 c 0
 438.0390625 83 523.850585938 167 546.188476562 271 c 1xbc
 356.188476562 271 l 1
 372.234375 362 l 1
 665.234375 362 l 1
 601.404296875 0 l 1
 527.404296875 0 l 1x7a
 542.329101562 113 l 1
 493.751953125 36 397.583007812 -16 299.583007812 -16 c 0xba
EndSplineSet
Validated: 524321
Substitution2: "'ss06' Style Set 6 in Latin lookup 39 subtable" G.ss06
Substitution2: "'aalt' Access All Alternates in Latin lookup 0 subtable" G.ss06
EndChar

StartChar: Gbreve
Encoding: 286 286 37
Width: 713
GlyphClass: 2
Flags: HMW
HStem: -16 99<296 414> 0 21G<590 664 590 590> 271 91<371 561 371 664> 627 99<295 425> 777 69<347 391 347 412>
VStem: 44 112<276.5 428.5 276.5 460.5> 561 103<271 271> 587.5 76.5
AnchorPoint: "Anchor-3" 415.197 710 basechar 0
AnchorPoint: "Anchor-0" 293.006 0 basechar 0
LayerCount: 2
Fore
SplineSet
427.01171875 777 m 0xbd
 342.01171875 777 295.00390625 828 305.815429688 912 c 1
 372.815429688 912 l 1
 370.705078125 866 395.177734375 846 439.177734375 846 c 0
 483.177734375 846 514.705078125 866 528.815429688 912 c 1
 595.815429688 912 l 1
 577.00390625 828 513.01171875 777 427.01171875 777 c 0xbd
283.184570312 -16 m 0
 81.1845703125 -16 -10.6611328125 138 27.4248046875 354 c 0
 64.9833984375 567 214.018554688 726 418.018554688 726 c 0
 593.018554688 726 665.209960938 625 668.876953125 487 c 1
 554.818359375 481 l 1
 553.159179688 568 512.5625 627 400.5625 627 c 0
 252.5625 627 165.698242188 503 139.424804688 354 c 0
 112.094726562 199 157.640625 83 305.640625 83 c 0
 421.640625 83 507.452148438 167 529.790039062 271 c 1xbe
 339.790039062 271 l 1
 355.8359375 362 l 1
 648.8359375 362 l 1
 585.005859375 0 l 1
 511.005859375 0 l 1x7d
 525.930664062 113 l 1
 477.353515625 36 381.184570312 -16 283.184570312 -16 c 0
EndSplineSet
Validated: 524321
Substitution2: "'ss06' Style Set 6 in Latin lookup 39 subtable" Gbreve.ss06
Substitution2: "'aalt' Access All Alternates in Latin lookup 0 subtable" Gbreve.ss06
EndChar

StartChar: Gcaron
Encoding: 486 486 38
Width: 713
GlyphClass: 2
Flags: HMW
HStem: -16 99<296 414> 0 21G<590 664 590 590> 271 91<371 561 371 664> 627 99<295 425> 774 139<222 425 222 314>
VStem: 44 112<276.5 428.5 276.5 460.5> 561 103<271 271> 587.5 76.5
AnchorPoint: "Anchor-3" 415.109 710 basechar 0
AnchorPoint: "Anchor-0" 292.917 0 basechar 0
LayerCount: 2
Fore
SplineSet
303.904296875 913 m 1xbd
 385.904296875 913 l 1
 435.2109375 824 l 1
 516.904296875 913 l 1
 598.904296875 913 l 1
 482.39453125 774 l 1
 371.39453125 774 l 1
 303.904296875 913 l 1xbd
283.095703125 -16 m 0
 81.095703125 -16 -10.75 138 27.3369140625 354 c 0
 64.89453125 567 213.930664062 726 417.930664062 726 c 0
 592.930664062 726 665.122070312 625 668.7890625 487 c 1
 554.73046875 481 l 1
 553.071289062 568 512.474609375 627 400.474609375 627 c 0
 252.474609375 627 165.609375 503 139.336914062 354 c 0
 112.006835938 199 157.552734375 83 305.552734375 83 c 0
 421.552734375 83 507.364257812 167 529.702148438 271 c 1xbe
 339.702148438 271 l 1
 355.748046875 362 l 1
 648.748046875 362 l 1
 584.916992188 0 l 1
 510.916992188 0 l 1x7d
 525.842773438 113 l 1
 477.264648438 36 381.095703125 -16 283.095703125 -16 c 0
EndSplineSet
Validated: 524321
EndChar

StartChar: Gcircumflex
Encoding: 284 284 39
Width: 713
GlyphClass: 2
Flags: HMW
HStem: -16 99<296 414> 0 21G<590 664 590 590> 271 91<371 561 371 664> 627 99<295 425> 774 139<222 425 222 425 314 435 314 517>
VStem: 44 112<276.5 428.5 276.5 460.5> 561 103<271 271> 587.5 76.5
AnchorPoint: "Anchor-3" 415.109 710 basechar 0
AnchorPoint: "Anchor-0" 292.917 0 basechar 0
LayerCount: 2
Fore
SplineSet
279.39453125 774 m 1xbd
 395.904296875 913 l 1
 506.904296875 913 l 1
 574.39453125 774 l 1
 492.39453125 774 l 1
 442.087890625 863 l 1
 361.39453125 774 l 1
 279.39453125 774 l 1xbd
283.095703125 -16 m 0
 81.095703125 -16 -10.75 138 27.3369140625 354 c 0
 64.89453125 567 213.930664062 726 417.930664062 726 c 0
 592.930664062 726 665.122070312 625 668.7890625 487 c 1
 554.73046875 481 l 1
 553.071289062 568 512.474609375 627 400.474609375 627 c 0
 252.474609375 627 165.609375 503 139.336914062 354 c 0
 112.006835938 199 157.552734375 83 305.552734375 83 c 0
 421.552734375 83 507.364257812 167 529.702148438 271 c 1xbe
 339.702148438 271 l 1
 355.748046875 362 l 1
 648.748046875 362 l 1
 584.916992188 0 l 1
 510.916992188 0 l 1x7d
 525.842773438 113 l 1
 477.264648438 36 381.095703125 -16 283.095703125 -16 c 0
EndSplineSet
Validated: 524321
Substitution2: "'ss06' Style Set 6 in Latin lookup 39 subtable" Gcircumflex.ss06
Substitution2: "'aalt' Access All Alternates in Latin lookup 0 subtable" Gcircumflex.ss06
EndChar

StartChar: uni0122
Encoding: 290 290 40
Width: 713
GlyphClass: 2
Flags: HMW
HStem: -150 98<317 352 317 427> -16 99<296 414> 0 21G<590 664 590 590> 271 91<371 561 371 664> 627 99<295 425>
VStem: 44 112<276.5 428.5 276.5 460.5> 317 110<-141 -52 -141 -52 -141 -52> 561 103<271 271> 587.5 76.5
AnchorPoint: "Anchor-3" 451.697 710 basechar 0
AnchorPoint: "Anchor-0" 286.481 -244 basechar 0
LayerCount: 2
Fore
SplineSet
319.68359375 -16 m 0xde80
 117.68359375 -16 25.837890625 138 63.9248046875 354 c 0
 101.482421875 567 250.518554688 726 454.518554688 726 c 0
 629.518554688 726 701.709960938 625 705.375976562 487 c 1
 591.318359375 481 l 1
 589.659179688 568 549.0625 627 437.0625 627 c 0
 289.0625 627 202.197265625 503 175.924804688 354 c 0
 148.594726562 199 194.140625 83 342.140625 83 c 0
 458.140625 83 543.952148438 167 566.290039062 271 c 1xdf
 376.290039062 271 l 1
 392.3359375 362 l 1
 685.3359375 362 l 1
 621.504882812 0 l 1
 547.504882812 0 l 1xbe80
 562.4296875 113 l 1
 513.852539062 36 417.68359375 -16 319.68359375 -16 c 0xde80
212.481445312 -244 m 1
 283.055664062 -150 l 1
 248.055664062 -150 l 1
 265.3359375 -52 l 1
 375.3359375 -52 l 1
 359.643554688 -141 l 1
 280.481445312 -244 l 1
 212.481445312 -244 l 1
EndSplineSet
Validated: 524321
Substitution2: "'ss06' Style Set 6 in Latin lookup 39 subtable" uni0122.ss06
Substitution2: "'aalt' Access All Alternates in Latin lookup 0 subtable" uni0122.ss06
EndChar

StartChar: Gdotaccent
Encoding: 288 288 41
Width: 713
GlyphClass: 2
Flags: HMW
HStem: -16 99<296 414> 0 21G<590 664 590 590> 271 91<371 561 371 664> 627 99<295 425> 787 106<314 425 314 425>
VStem: 44 112<276.5 428.5 276.5 460.5> 314 111<787 893 787 893> 561 103<271 271> 587.5 76.5
AnchorPoint: "Anchor-3" 416.873 710 basechar 0
AnchorPoint: "Anchor-0" 294.681 0 basechar 0
LayerCount: 2
Fore
SplineSet
375.450195312 787 m 1xbe80
 394.140625 893 l 1
 505.140625 893 l 1
 486.450195312 787 l 1
 375.450195312 787 l 1xbe80
284.859375 -16 m 0
 82.859375 -16 -8.986328125 138 29.1005859375 354 c 0
 66.658203125 567 215.694335938 726 419.694335938 726 c 0
 594.694335938 726 666.884765625 625 670.551757812 487 c 1
 556.494140625 481 l 1
 554.833984375 568 514.237304688 627 402.237304688 627 c 0
 254.237304688 627 167.373046875 503 141.100585938 354 c 0
 113.76953125 199 159.315429688 83 307.315429688 83 c 0
 423.315429688 83 509.126953125 167 531.46484375 271 c 1xbf
 341.46484375 271 l 1
 357.510742188 362 l 1
 650.510742188 362 l 1
 586.680664062 0 l 1
 512.680664062 0 l 1x7e80
 527.60546875 113 l 1
 479.028320312 36 382.859375 -16 284.859375 -16 c 0
EndSplineSet
Validated: 524321
Substitution2: "'ss08' Style Set 8 in Latin lookup 41 subtable" Gdotaccent.ss08
Substitution2: "'ss06' Style Set 6 in Latin lookup 39 subtable" Gdotaccent.ss06
AlternateSubs2: "'aalt' Access All Alternates in Latin lookup 1 subtable" Gdotaccent.ss06 Gdotaccent.ss08
EndChar

StartChar: uni1E20
Encoding: 7712 7712 42
Width: 713
GlyphClass: 2
Flags: HMW
HStem: -16 99<296 414> 0 21G<590 664 590 590> 271 91<371 561 371 664> 627 99<295 425> 797 85<230 509 230 509>
VStem: 44 112<276.5 428.5 276.5 460.5> 230 279<797 882 797 882> 561 103<271 271> 587.5 76.5
AnchorPoint: "Anchor-3" 417.843 710 basechar 0
AnchorPoint: "Anchor-0" 295.65 0 basechar 0
LayerCount: 2
Fore
SplineSet
294.182617188 797 m 1xbe80
 309.170898438 882 l 1
 588.170898438 882 l 1
 573.182617188 797 l 1
 294.182617188 797 l 1xbe80
285.829101562 -16 m 0
 83.8291015625 -16 -8.0166015625 138 30.0703125 354 c 0
 67.6279296875 567 216.6640625 726 420.6640625 726 c 0
 595.6640625 726 667.854492188 625 671.521484375 487 c 1
 557.463867188 481 l 1
 555.803710938 568 515.20703125 627 403.20703125 627 c 0
 255.20703125 627 168.342773438 503 142.0703125 354 c 0
 114.739257812 199 160.28515625 83 308.28515625 83 c 0
 424.28515625 83 510.096679688 167 532.434570312 271 c 1xbd
 342.434570312 271 l 1
 358.48046875 362 l 1
 651.48046875 362 l 1
 587.650390625 0 l 1
 513.650390625 0 l 1x7c80
 528.575195312 113 l 1
 479.998046875 36 383.829101562 -16 285.829101562 -16 c 0
EndSplineSet
Validated: 524321
Substitution2: "'ss06' Style Set 6 in Latin lookup 39 subtable" uni1E20.ss06
Substitution2: "'aalt' Access All Alternates in Latin lookup 0 subtable" uni1E20.ss06
EndChar

StartChar: uni01E4
Encoding: 484 484 43
Width: 756
GlyphClass: 2
Flags: HMW
HStem: -16 99<294.5 403.5 294.5 434.5> 156 70<371 524 371 554 656 717> 280 82<371 561 371 664> 627 99<295 427>
VStem: 44 112<276 428.5 276 458> 561 103<280 319>
AnchorPoint: "Anchor-3" 433.596 710 basechar 0
AnchorPoint: "Anchor-0" 310.404 0 basechar 0
LayerCount: 2
Fore
SplineSet
302.583007812 -16 m 0
 90.5830078125 -16 7.1474609375 146 43.8232421875 354 c 0
 80.5 562 227.416992188 726 437.416992188 726 c 0
 602.416992188 726 682.842773438 632 685.275390625 487 c 1
 571.216796875 481 l 1
 570.028320312 565 530.9609375 627 418.9609375 627 c 0
 266.9609375 627 182.096679688 503 155.823242188 354 c 0
 128.31640625 198 174.0390625 83 319.0390625 83 c 0
 392.0390625 83 448.799804688 110 488.911132812 156 c 1
 335.911132812 156 l 1
 348.25390625 226 l 1
 531.25390625 226 l 1
 538.250976562 243 543.424804688 261 547.775390625 280 c 1
 357.775390625 280 l 1
 372.234375 362 l 1
 665.234375 362 l 1
 657.65234375 319 l 2
 651.833007812 286 643.3671875 255 633.25390625 226 c 1
 694.25390625 226 l 1
 681.911132812 156 l 1
 601.911132812 156 l 1
 539.162109375 44 435.583007812 -16 302.583007812 -16 c 0
EndSplineSet
Validated: 524321
EndChar

StartChar: H
Encoding: 72 72 44
Width: 716
GlyphClass: 2
Flags: HMW
HStem: 0 21G<86 86 86 194 522 522 522 630> 308 98<194 522 194 522> 690 20G<86 194 194 194 522 630 630 630>
VStem: 86 108<0 308 406 710> 522 108<0 308 308 308 406 710 0 710>
AnchorPoint: "Anchor-3" 420.596 710 basechar 0
AnchorPoint: "Anchor-1" 395.91 570 basechar 0
AnchorPoint: "Anchor-0" 295.404 0 basechar 0
LayerCount: 2
Fore
SplineSet
23.404296875 0 m 1
 148.595703125 710 l 1
 256.595703125 710 l 1
 202.993164062 406 l 1
 530.993164062 406 l 1
 584.595703125 710 l 1
 692.595703125 710 l 1
 567.404296875 0 l 1
 459.404296875 0 l 1
 513.712890625 308 l 1
 185.712890625 308 l 1
 131.404296875 0 l 1
 23.404296875 0 l 1
EndSplineSet
Validated: 524289
EndChar

StartChar: Hbar
Encoding: 294 294 45
Width: 716
GlyphClass: 2
Flags: HMW
HStem: 0 21G<86 86 86 194 522 522 522 630> 308 98<194 522 194 522> 525 91<12 86 12 86 194 522 630 704> 525 185<12 194 12 194 86 194 86 522>
VStem: 86 108<0 308 406 525 616 710> 522 108<0 308 308 308 406 525 0 525 616 710>
AnchorPoint: "Anchor-3" 420.596 710 basechar 0
AnchorPoint: "Anchor-1" 395.91 570 basechar 0
AnchorPoint: "Anchor-0" 295.404 0 basechar 0
LayerCount: 2
Fore
SplineSet
23.404296875 0 m 1xdc
 115.975585938 525 l 1
 41.9755859375 525 l 1xdc
 58.021484375 616 l 1
 132.021484375 616 l 1xec
 148.595703125 710 l 1
 256.595703125 710 l 1xdc
 240.021484375 616 l 1
 568.021484375 616 l 1xec
 584.595703125 710 l 1
 692.595703125 710 l 1xdc
 676.021484375 616 l 1
 750.021484375 616 l 1xec
 733.975585938 525 l 1
 659.975585938 525 l 1
 567.404296875 0 l 1
 459.404296875 0 l 1
 513.712890625 308 l 1
 185.712890625 308 l 1
 131.404296875 0 l 1
 23.404296875 0 l 1xdc
202.993164062 406 m 1
 530.993164062 406 l 1
 551.975585938 525 l 1
 223.975585938 525 l 1
 202.993164062 406 l 1
EndSplineSet
Validated: 524289
EndChar

StartChar: Hcircumflex
Encoding: 292 292 46
Width: 716
GlyphClass: 2
Flags: HMW
HStem: 0 21G<86 86 86 194 522 522 522 630> 308 98<194 522 194 522> 690 20G<86 194 194 194 522 630 630 630> 774 139<211 414 211 414 303 424 303 506>
VStem: 86 108<0 308 406 710> 522 108<0 308 308 308 406 710 0 710>
AnchorPoint: "Anchor-3" 402.699 710 basechar 0
AnchorPoint: "Anchor-1" 378.013 570 basechar 0
AnchorPoint: "Anchor-0" 277.507 0 basechar 0
LayerCount: 2
Fore
SplineSet
266.983398438 774 m 1
 383.493164062 913 l 1
 494.493164062 913 l 1
 561.983398438 774 l 1
 479.983398438 774 l 1
 429.676757812 863 l 1
 347.983398438 774 l 1
 266.983398438 774 l 1
5.5068359375 0 m 1
 130.69921875 710 l 1
 238.69921875 710 l 1
 185.095703125 406 l 1
 513.095703125 406 l 1
 566.69921875 710 l 1
 674.69921875 710 l 1
 549.506835938 0 l 1
 441.506835938 0 l 1
 495.815429688 308 l 1
 167.815429688 308 l 1
 113.506835938 0 l 1
 5.5068359375 0 l 1
EndSplineSet
Validated: 524289
EndChar

StartChar: I
Encoding: 73 73 47
Width: 280
GlyphClass: 2
Flags: HMW
HStem: 0 21G<86 86 86 194> 690 20G<86 194 194 194>
VStem: 86 108<0 710 0 710>
AnchorPoint: "Anchor-3" 202.596 710 basechar 0
AnchorPoint: "Anchor-2" 131.404 0 basechar 0
AnchorPoint: "Anchor-0" 77.4043 0 basechar 0
LayerCount: 2
Fore
SplineSet
23.404296875 0 m 1
 148.595703125 710 l 1
 256.595703125 710 l 1
 131.404296875 0 l 1
 23.404296875 0 l 1
EndSplineSet
Validated: 524289
Substitution2: "'ss05' Style Set 5 in Latin lookup 38 subtable" I.ss05
Substitution2: "'aalt' Access All Alternates in Latin lookup 0 subtable" I.ss05
EndChar

StartChar: IJ
Encoding: 306 306 48
Width: 869
GlyphClass: 2
Flags: HMW
HStem: -16 99<520 601.5 520 632.5> 0 21G<86 86 86 194> 690 20G<86 194 194 194 690 798 798 798>
VStem: 86 108<0 710 0 710> 323 110<239 245> 690 108<250 710>
AnchorPoint: "Anchor-3" 809.007 710 basechar 0
AnchorPoint: "Anchor-2" 132.814 0 basechar 0
AnchorPoint: "Anchor-0" 78.8145 0 basechar 0
LayerCount: 2
Fore
SplineSet
24.814453125 0 m 1x74
 150.006835938 710 l 1
 258.006835938 710 l 1
 132.814453125 0 l 1
 24.814453125 0 l 1x74
495.993164062 -16 m 0
 352.993164062 -16 278.68359375 90 303.95703125 239 c 1
 415.014648438 245 l 1
 397.32421875 139 433.44921875 83 513.44921875 83 c 0
 596.44921875 83 653.676757812 141 672.896484375 250 c 2
 754.006835938 710 l 1
 862.006835938 710 l 1
 780.896484375 250 l 2xbc
 752.155273438 87 640.993164062 -16 495.993164062 -16 c 0
EndSplineSet
Validated: 524321
EndChar

StartChar: Iacute
Encoding: 205 205 49
Width: 280
GlyphClass: 2
Flags: HMW
HStem: 0 21G<86 86 86 194> 690 20G<86 194 194 194> 774 134<93 267 156 177>
VStem: 86 108<0 710 0 710>
AnchorPoint: "Anchor-3" 185.14 710 basechar 0
AnchorPoint: "Anchor-2" 113.947 0 basechar 0
AnchorPoint: "Anchor-0" 59.9473 0 basechar 0
LayerCount: 2
Fore
SplineSet
149.424804688 774 m 1
 236.052734375 908 l 1
 347.052734375 908 l 1
 233.424804688 774 l 1
 149.424804688 774 l 1
5.947265625 0 m 1
 131.139648438 710 l 1
 239.139648438 710 l 1
 113.947265625 0 l 1
 5.947265625 0 l 1
EndSplineSet
Validated: 524289
Substitution2: "'ss05' Style Set 5 in Latin lookup 38 subtable" Iacute.ss05
Substitution2: "'aalt' Access All Alternates in Latin lookup 0 subtable" Iacute.ss05
EndChar

StartChar: Icircumflex
Encoding: 206 206 50
Width: 280
GlyphClass: 2
Flags: HMW
HStem: 0 21G<86 86 86 194> 690 20G<86 194 194 194> 774 139<-7 195 -7 195 85 206 85 287>
VStem: 86 108<0 710 0 710>
AnchorPoint: "Anchor-3" 184.699 710 basechar 0
AnchorPoint: "Anchor-2" 113.507 0 basechar 0
AnchorPoint: "Anchor-0" 59.5068 0 basechar 0
LayerCount: 2
Fore
SplineSet
48.9833984375 774 m 1
 165.493164062 913 l 1
 275.493164062 913 l 1
 342.983398438 774 l 1
 261.983398438 774 l 1
 211.676757812 863 l 1
 129.983398438 774 l 1
 48.9833984375 774 l 1
5.5068359375 0 m 1
 130.69921875 710 l 1
 238.69921875 710 l 1
 113.506835938 0 l 1
 5.5068359375 0 l 1
EndSplineSet
Validated: 524289
Substitution2: "'ss05' Style Set 5 in Latin lookup 38 subtable" Icircumflex.ss05
Substitution2: "'aalt' Access All Alternates in Latin lookup 0 subtable" Icircumflex.ss05
EndChar

StartChar: Idieresis
Encoding: 207 207 51
Width: 280
GlyphClass: 2
Flags: HMW
HStem: 0 21G<86 86 86 194> 690 20G<86 194 194 194> 786 106<-7 99 -7 99 181 287 -7 181>
VStem: -7 106<786 892 786 892> 86 108<0 710 0 710> 181 106<786 892 786 892>
AnchorPoint: "Anchor-3" 186.551 710 basechar 0
AnchorPoint: "Anchor-2" 115.358 0 basechar 0
AnchorPoint: "Anchor-0" 61.3584 0 basechar 0
LayerCount: 2
Fore
SplineSet
52.951171875 786 m 1xf4
 71.6416015625 892 l 1
 177.641601562 892 l 1
 158.951171875 786 l 1
 52.951171875 786 l 1xf4
240.951171875 786 m 1
 259.641601562 892 l 1
 365.641601562 892 l 1
 346.951171875 786 l 1
 240.951171875 786 l 1
7.3583984375 0 m 1xe8
 132.55078125 710 l 1
 240.55078125 710 l 1
 115.358398438 0 l 1
 7.3583984375 0 l 1xe8
EndSplineSet
Validated: 524289
Substitution2: "'ss08' Style Set 8 in Latin lookup 41 subtable" Idieresis.ss08
Substitution2: "'ss05' Style Set 5 in Latin lookup 38 subtable" Idieresis.ss05
AlternateSubs2: "'aalt' Access All Alternates in Latin lookup 1 subtable" Idieresis.ss05 Idieresis.ss08
EndChar

StartChar: Idotaccent
Encoding: 304 304 52
Width: 280
GlyphClass: 2
Flags: HMW
HStem: 0 21G<86 86 86 194> 690 20G<86 194 194 194> 787 106<85 195 85 195>
VStem: 85 110<787 893 787 893> 86 108<0 710 0 710>
AnchorPoint: "Anchor-3" 186.462 710 basechar 0
AnchorPoint: "Anchor-2" 115.27 0 basechar 0
AnchorPoint: "Anchor-0" 61.2695 0 basechar 0
LayerCount: 2
Fore
SplineSet
145.0390625 787 m 1xf0
 163.73046875 893 l 1
 273.73046875 893 l 1
 255.0390625 787 l 1
 145.0390625 787 l 1xf0
7.26953125 0 m 1xe8
 132.461914062 710 l 1
 240.461914062 710 l 1
 115.26953125 0 l 1
 7.26953125 0 l 1xe8
EndSplineSet
Validated: 524289
Substitution2: "'ss08' Style Set 8 in Latin lookup 41 subtable" Idotaccent.ss08
Substitution2: "'ss05' Style Set 5 in Latin lookup 38 subtable" Idotaccent.ss05
AlternateSubs2: "'aalt' Access All Alternates in Latin lookup 1 subtable" Idotaccent.ss05 Idotaccent.ss08
EndChar

StartChar: Igrave
Encoding: 204 204 53
Width: 280
GlyphClass: 2
Flags: HMW
HStem: 0 21G<86 86 86 194> 690 20G<86 194 194 194> 779 135<103 103 103 125 13 188>
VStem: 86 108<0 710 0 710>
AnchorPoint: "Anchor-3" 184.61 710 basechar 0
AnchorPoint: "Anchor-2" 113.419 0 basechar 0
AnchorPoint: "Anchor-0" 59.4189 0 basechar 0
LayerCount: 2
Fore
SplineSet
159.77734375 779 m 1
 93.5810546875 914 l 1
 205.581054688 914 l 1
 244.77734375 779 l 1
 159.77734375 779 l 1
5.4189453125 0 m 1
 130.610351562 710 l 1
 238.610351562 710 l 1
 113.418945312 0 l 1
 5.4189453125 0 l 1
EndSplineSet
Validated: 524289
Substitution2: "'ss05' Style Set 5 in Latin lookup 38 subtable" Igrave.ss05
Substitution2: "'aalt' Access All Alternates in Latin lookup 0 subtable" Igrave.ss05
EndChar

StartChar: Imacron
Encoding: 298 298 54
Width: 280
GlyphClass: 2
Flags: HMW
HStem: 0 21G<86 86 86 194> 690 20G<86 194 194 194> 797 85<1 279 1 279>
VStem: 86 108<0 710 0 710>
AnchorPoint: "Anchor-3" 187.432 710 basechar 0
AnchorPoint: "Anchor-2" 116.24 0 basechar 0
AnchorPoint: "Anchor-0" 62.2402 0 basechar 0
LayerCount: 2
Fore
SplineSet
63.7724609375 797 m 1
 78.759765625 882 l 1
 356.759765625 882 l 1
 341.772460938 797 l 1
 63.7724609375 797 l 1
8.240234375 0 m 1
 133.431640625 710 l 1
 241.431640625 710 l 1
 116.240234375 0 l 1
 8.240234375 0 l 1
EndSplineSet
Validated: 524289
Substitution2: "'ss05' Style Set 5 in Latin lookup 38 subtable" Imacron.ss05
Substitution2: "'aalt' Access All Alternates in Latin lookup 0 subtable" Imacron.ss05
EndChar

StartChar: Iogonek
Encoding: 302 302 55
Width: 280
GlyphClass: 2
Flags: HMW
HStem: -212 75<149 155.5> 0 21G<86 86 86 108 194 194> 690 20G<86 194 194 194>
VStem: 37 92<-120 -117.5> 86 108<0 710 0 710>
AnchorPoint: "Anchor-3" 221.287 710 basechar 0
AnchorPoint: "Anchor-2" 150.095 0 basechar 0
AnchorPoint: "Anchor-0" 96.0947 0 basechar 0
LayerCount: 2
Fore
SplineSet
42.0947265625 0 m 1xe8
 167.287109375 710 l 1
 275.287109375 710 l 1
 150.094726562 0 l 1xe8
 109.16015625 -45 l 2
 79.517578125 -77 68.34375 -95 65.345703125 -112 c 0
 62.5244140625 -128 72.9375 -137 88.9375 -137 c 0
 107.9375 -137 124.819335938 -132 138.23046875 -124 c 1
 153.297851562 -186 l 1
 134.653320312 -201 92.712890625 -212 55.712890625 -212 c 0
 -6.287109375 -212 -39.7021484375 -186 -31.0625 -137 c 0xf0
 -24.185546875 -98 11.0439453125 -57 44.3916015625 -21 c 2
 64.0947265625 0 l 1
 42.0947265625 0 l 1xe8
EndSplineSet
Validated: 524321
Substitution2: "'ss05' Style Set 5 in Latin lookup 38 subtable" Iogonek.ss05
Substitution2: "'aalt' Access All Alternates in Latin lookup 0 subtable" Iogonek.ss05
EndChar

StartChar: Itilde
Encoding: 296 296 56
Width: 280
GlyphClass: 2
Flags: HMW
HStem: 0 21G<86 86 86 194> 690 20G<86 194 194 194> 785 67<194.5 213.5 194.5 229> 837 67<67 87>
VStem: -23 60<778 778> 86 108<0 710 0 710> 242 60<913 913>
AnchorPoint: "Anchor-3" 184.699 710 basechar 0
AnchorPoint: "Anchor-2" 113.507 0 basechar 0
AnchorPoint: "Anchor-0" 59.5068 0 basechar 0
LayerCount: 2
Fore
SplineSet
255.923828125 785 m 0xe6
 227.923828125 785 208.510742188 794 188.860351562 813 c 0
 171.858398438 830 163.092773438 837 145.092773438 837 c 0
 123.092773438 837 103.799804688 824 93.689453125 778 c 1
 33.689453125 778 l 1
 49.9716796875 859 97.90625 904 156.90625 904 c 0xdc
 188.90625 904 207.966796875 893 228.616210938 874 c 0
 245.794921875 858 256.737304688 852 271.737304688 852 c 0
 294.737304688 852 310.029296875 865 322.493164062 913 c 1
 382.493164062 913 l 1
 364.38671875 833 317.923828125 785 255.923828125 785 c 0xe6
5.5068359375 0 m 1
 130.69921875 710 l 1
 238.69921875 710 l 1
 113.506835938 0 l 1
 5.5068359375 0 l 1
EndSplineSet
Validated: 524289
Substitution2: "'ss05' Style Set 5 in Latin lookup 38 subtable" Itilde.ss05
Substitution2: "'aalt' Access All Alternates in Latin lookup 0 subtable" Itilde.ss05
EndChar

StartChar: J
Encoding: 74 74 57
Width: 607
GlyphClass: 2
Flags: HMW
HStem: -16 99<258 339.5 258 370.5> 690 20G<428 536 536 536>
VStem: 61 110<239 245> 428 108<250 710>
AnchorPoint: "Anchor-3" 547.007 710 basechar 0
LayerCount: 2
Fore
SplineSet
233.993164062 -16 m 0
 90.9931640625 -16 16.68359375 90 41.95703125 239 c 1
 153.014648438 245 l 1
 135.32421875 139 171.44921875 83 251.44921875 83 c 0
 334.44921875 83 391.676757812 141 410.896484375 250 c 2
 492.006835938 710 l 1
 600.006835938 710 l 1
 518.896484375 250 l 2
 490.155273438 87 378.993164062 -16 233.993164062 -16 c 0
EndSplineSet
Validated: 524321
Substitution2: "Single Substitution lookup 16 subtable" uni004A0301
Substitution2: "'aalt' Access All Alternates in Latin lookup 0 subtable" uni004A0301
EndChar

StartChar: uni004A0301
Encoding: 65537 -1 58
Width: 607
GlyphClass: 2
Flags: HMW
HStem: -16 99<258 339.5 258 370.5> 690 20G<428 536 536 536> 774 134<435 610 499 520>
VStem: 61 110<239 245> 428 108<250 710>
AnchorPoint: "Anchor-3" 529.551 710 basechar 0
LayerCount: 2
Fore
SplineSet
492.834960938 774 m 1
 580.462890625 908 l 1
 691.462890625 908 l 1
 577.834960938 774 l 1
 492.834960938 774 l 1
216.537109375 -16 m 0
 73.537109375 -16 -0.7724609375 90 24.5 239 c 1
 135.55859375 245 l 1
 117.8671875 139 153.993164062 83 233.993164062 83 c 0
 316.993164062 83 374.220703125 141 393.439453125 250 c 2
 474.55078125 710 l 1
 582.55078125 710 l 1
 501.439453125 250 l 2
 472.698242188 87 361.537109375 -16 216.537109375 -16 c 0
EndSplineSet
Validated: 524321
EndChar

StartChar: Jcircumflex
Encoding: 308 308 59
Width: 607
GlyphClass: 2
Flags: HMW
HStem: -16 99<258 339.5 258 370.5> 690 20G<428 536 536 536> 774 139<335 538 335 538 427 549 427 630>
VStem: 61 110<239 245> 428 108<250 710>
AnchorPoint: "Anchor-3" 529.109 710 basechar 0
LayerCount: 2
Fore
SplineSet
392.39453125 774 m 1
 508.904296875 913 l 1
 619.904296875 913 l 1
 687.39453125 774 l 1
 606.39453125 774 l 1
 556.087890625 863 l 1
 474.39453125 774 l 1
 392.39453125 774 l 1
216.095703125 -16 m 0
 73.095703125 -16 -1.212890625 90 24.0595703125 239 c 1
 135.1171875 245 l 1
 117.426757812 139 153.552734375 83 233.552734375 83 c 0
 316.552734375 83 373.779296875 141 392.999023438 250 c 2
 474.109375 710 l 1
 582.109375 710 l 1
 500.999023438 250 l 2
 472.2578125 87 361.095703125 -16 216.095703125 -16 c 0
EndSplineSet
Validated: 524321
EndChar

StartChar: K
Encoding: 75 75 60
Width: 656
GlyphClass: 2
Flags: HMW
HStem: 0 21G<86 86 86 194 515 515 515 642> 690 20G<86 194 194 194 493 624 624 624>
VStem: 86 108<0 228 371 710>
AnchorPoint: "Anchor-3" 396.596 710 basechar 0
AnchorPoint: "Anchor-0" 287.404 0 basechar 0
LayerCount: 2
Fore
SplineSet
23.404296875 0 m 1
 148.595703125 710 l 1
 256.595703125 710 l 1
 196.821289062 371 l 1
 555.595703125 710 l 1
 686.595703125 710 l 1
 359.934570312 400 l 1
 579.404296875 0 l 1
 452.404296875 0 l 1
 274.534179688 324 l 1
 171.606445312 228 l 1
 131.404296875 0 l 1
 23.404296875 0 l 1
EndSplineSet
Validated: 524289
EndChar

StartChar: uni01E8
Encoding: 488 488 61
Width: 656
GlyphClass: 2
Flags: HMW
HStem: 0 21G<86 86 86 194 515 515 515 642> 690 20G<86 194 194 194 493 624 624 624> 774 139<187 389 187 279>
VStem: 86 108<0 228 371 710>
AnchorPoint: "Anchor-3" 378.699 710 basechar 0
AnchorPoint: "Anchor-0" 269.507 0 basechar 0
LayerCount: 2
Fore
SplineSet
267.493164062 913 m 1
 348.493164062 913 l 1
 398.799804688 824 l 1
 480.493164062 913 l 1
 561.493164062 913 l 1
 444.983398438 774 l 1
 334.983398438 774 l 1
 267.493164062 913 l 1
5.5068359375 0 m 1
 130.69921875 710 l 1
 238.69921875 710 l 1
 178.923828125 371 l 1
 537.69921875 710 l 1
 668.69921875 710 l 1
 342.037109375 400 l 1
 561.506835938 0 l 1
 434.506835938 0 l 1
 256.63671875 324 l 1
 153.708984375 228 l 1
 113.506835938 0 l 1
 5.5068359375 0 l 1
EndSplineSet
Validated: 524289
EndChar

StartChar: uni0136
Encoding: 310 310 62
Width: 656
GlyphClass: 2
Flags: HMW
HStem: -150 98<295 331 295 405> 0 21G<86 86 86 194 515 515 515 642> 690 20G<86 194 194 194 493 624 624 624>
VStem: 86 108<0 228 371 710> 295 110<-141 -52 -141 -52 -141 -52>
AnchorPoint: "Anchor-3" 418.108 710 basechar 0
AnchorPoint: "Anchor-0" 265.892 -244 basechar 0
LayerCount: 2
Fore
SplineSet
44.916015625 0 m 1
 170.108398438 710 l 1
 278.108398438 710 l 1
 218.333007812 371 l 1
 577.108398438 710 l 1
 708.108398438 710 l 1
 381.446289062 400 l 1
 600.916015625 0 l 1
 473.916015625 0 l 1
 296.045898438 324 l 1
 193.118164062 228 l 1
 152.916015625 0 l 1
 44.916015625 0 l 1
192.891601562 -244 m 1
 263.466796875 -150 l 1
 227.466796875 -150 l 1
 244.747070312 -52 l 1
 354.747070312 -52 l 1
 339.053710938 -141 l 1
 260.891601562 -244 l 1
 192.891601562 -244 l 1
EndSplineSet
Validated: 524289
EndChar

StartChar: L
Encoding: 76 76 63
Width: 583
GlyphClass: 2
Flags: HMW
HStem: 0 99<194 540 194 540> 690 20G<86 194 194 194>
VStem: 86 108<99 710 99 710 99 710>
AnchorPoint: "Anchor-4" 405.21 532 basechar 0
AnchorPoint: "Anchor-3" 202.596 710 basechar 0
AnchorPoint: "Anchor-1" 181.408 380 basechar 0
AnchorPoint: "Anchor-0" 250.404 0 basechar 0
LayerCount: 2
Fore
SplineSet
23.404296875 0 m 1
 148.595703125 710 l 1
 256.595703125 710 l 1
 148.860351562 99 l 1
 494.860351562 99 l 1
 477.404296875 0 l 1
 23.404296875 0 l 1
EndSplineSet
Validated: 524289
EndChar

StartChar: Lacute
Encoding: 313 313 64
Width: 583
GlyphClass: 2
Flags: HMW
HStem: 0 99<194 540 194 540> 690 20G<86 194 194 194> 774 134<93 267 156 177>
VStem: 86 108<99 710 99 710 99 710>
AnchorPoint: "Anchor-4" 387.754 532 basechar 0
AnchorPoint: "Anchor-3" 185.14 710 basechar 0
AnchorPoint: "Anchor-1" 163.952 380 basechar 0
AnchorPoint: "Anchor-0" 232.947 0 basechar 0
LayerCount: 2
Fore
SplineSet
149.424804688 774 m 1
 236.052734375 908 l 1
 347.052734375 908 l 1
 233.424804688 774 l 1
 149.424804688 774 l 1
5.947265625 0 m 1
 131.139648438 710 l 1
 239.139648438 710 l 1
 131.404296875 99 l 1
 477.404296875 99 l 1
 459.947265625 0 l 1
 5.947265625 0 l 1
EndSplineSet
Validated: 524289
EndChar

StartChar: Lcaron
Encoding: 317 317 65
Width: 583
GlyphClass: 2
Flags: HMW
HStem: 0 99<194 540 194 540> 445 265<86 394 424 470> 690 20G<86 194 194 194 424 523 523 523>
VStem: 86 108<99 710 99 710 99 710>
AnchorPoint: "Anchor-4" 405.21 532 basechar 0
AnchorPoint: "Anchor-3" 202.596 710 basechar 0
AnchorPoint: "Anchor-1" 181.408 380 basechar 0
AnchorPoint: "Anchor-0" 250.404 0 basechar 0
LayerCount: 2
Fore
SplineSet
23.404296875 0 m 1xb0
 148.595703125 710 l 1
 256.595703125 710 l 1
 148.860351562 99 l 1
 494.860351562 99 l 1
 477.404296875 0 l 1
 23.404296875 0 l 1xb0
409.869140625 445 m 1xd0
 486.595703125 710 l 1
 585.595703125 710 l 1
 485.869140625 445 l 1
 409.869140625 445 l 1xd0
EndSplineSet
Validated: 524289
EndChar

StartChar: uni013B
Encoding: 315 315 66
Width: 583
GlyphClass: 2
Flags: HMW
HStem: -150 98<258 294 258 368> 0 99<194 540 194 540> 690 20G<86 194 194 194>
VStem: 86 108<99 710 99 710 99 710> 258 110<-141 -52 -141 -52 -141 -52>
AnchorPoint: "Anchor-4" 426.722 532 basechar 0
AnchorPoint: "Anchor-3" 224.108 710 basechar 0
AnchorPoint: "Anchor-1" 202.92 380 basechar 0
AnchorPoint: "Anchor-0" 228.892 -244 basechar 0
LayerCount: 2
Fore
SplineSet
44.916015625 0 m 1
 170.108398438 710 l 1
 278.108398438 710 l 1
 170.372070312 99 l 1
 516.372070312 99 l 1
 498.916015625 0 l 1
 44.916015625 0 l 1
155.891601562 -244 m 1
 226.466796875 -150 l 1
 190.466796875 -150 l 1
 207.747070312 -52 l 1
 317.747070312 -52 l 1
 302.053710938 -141 l 1
 223.891601562 -244 l 1
 155.891601562 -244 l 1
EndSplineSet
Validated: 524289
Substitution2: "'locl' Localized Forms in Latin lookup 11 subtable" uni013B.loclMAH
Substitution2: "'aalt' Access All Alternates in Latin lookup 0 subtable" uni013B.loclMAH
EndChar

StartChar: Lslash
Encoding: 321 321 67
Width: 583
GlyphClass: 2
Flags: HMW
HStem: 0 99<194 540 194 540> 690 20G<86 194 194 194>
VStem: 86 108<99 291 291 291 431 710>
AnchorPoint: "Anchor-4" 405.21 532 basechar 0
AnchorPoint: "Anchor-3" 202.596 710 basechar 0
AnchorPoint: "Anchor-1" 181.408 380 basechar 0
AnchorPoint: "Anchor-0" 250.404 0 basechar 0
LayerCount: 2
Fore
SplineSet
23.404296875 0 m 1
 74.71484375 291 l 1
 -2.6328125 255 l 1
 12.35546875 340 l 1
 89.703125 376 l 1
 148.595703125 710 l 1
 256.595703125 710 l 1
 207.400390625 431 l 1
 365.272460938 504 l 1
 350.4609375 420 l 1
 192.413085938 346 l 1
 148.860351562 99 l 1
 494.860351562 99 l 1
 477.404296875 0 l 1
 23.404296875 0 l 1
EndSplineSet
Validated: 524289
EndChar

StartChar: M
Encoding: 77 77 68
Width: 890
GlyphClass: 2
Flags: HMW
HStem: 0 21G<86 86 86 194 696 696 696 804> 520 190<194 194 696 696>
VStem: 86 108<0 520 0 710> 696 108<0 520 520 520>
AnchorPoint: "Anchor-3" 507.596 710 basechar 0
AnchorPoint: "Anchor-0" 382.404 0 basechar 0
LayerCount: 2
Fore
SplineSet
23.404296875 0 m 1
 148.595703125 710 l 1
 296.595703125 710 l 1
 404.797851562 127 l 1
 718.595703125 710 l 1
 866.595703125 710 l 1
 741.404296875 0 l 1
 633.404296875 0 l 1
 725.09375 520 l 1
 442.580078125 1 l 1
 322.580078125 1 l 1
 223.09375 520 l 1
 131.404296875 0 l 1
 23.404296875 0 l 1
EndSplineSet
Validated: 524289
EndChar

StartChar: N
Encoding: 78 78 69
Width: 745
GlyphClass: 2
Flags: HMW
HStem: 0 21G<86 86 86 194 517 517 517 659> 0 131<517 551 551 551 551 659> 566 144<194 194> 690 20G<86 223 223 223 551 659 659 659>
VStem: 86 108<0 566 0 710> 551 108<131 710 0 710>
AnchorPoint: "Anchor-3" 446.596 710 basechar 0
AnchorPoint: "Anchor-0" 310.404 0 basechar 0
LayerCount: 2
Fore
SplineSet
23.404296875 0 m 1xac
 148.595703125 710 l 1
 285.595703125 710 l 1
 511.502929688 131 l 1x5c
 613.595703125 710 l 1
 721.595703125 710 l 1
 596.404296875 0 l 1
 454.404296875 0 l 1
 231.205078125 566 l 1
 131.404296875 0 l 1
 23.404296875 0 l 1xac
EndSplineSet
Validated: 524289
EndChar

StartChar: Nacute
Encoding: 323 323 70
Width: 745
GlyphClass: 2
Flags: HMW
HStem: 0 21G<86 86 86 194 517 517 517 659> 0 131<517 551 551 551 551 659> 566 144<194 194> 690 20G<86 223 223 223 551 659 659 659> 774 134<337 512 401 422>
VStem: 86 108<0 566 0 710> 551 108<131 710 0 710>
AnchorPoint: "Anchor-3" 429.14 710 basechar 0
AnchorPoint: "Anchor-0" 292.947 0 basechar 0
LayerCount: 2
Fore
SplineSet
393.424804688 774 m 1xae
 481.052734375 908 l 1
 592.052734375 908 l 1
 478.424804688 774 l 1
 393.424804688 774 l 1xae
5.947265625 0 m 1
 131.139648438 710 l 1
 268.139648438 710 l 1
 494.045898438 131 l 1x5e
 596.139648438 710 l 1
 704.139648438 710 l 1
 578.947265625 0 l 1
 436.947265625 0 l 1
 213.749023438 566 l 1
 113.947265625 0 l 1
 5.947265625 0 l 1
EndSplineSet
Validated: 524289
EndChar

StartChar: Ncaron
Encoding: 327 327 71
Width: 745
GlyphClass: 2
Flags: HMW
HStem: 0 21G<86 86 86 194 517 517 517 659> 0 131<517 551 551 551 551 659> 566 144<194 194> 690 20G<86 223 223 223 551 659 659 659> 774 139<237 440 237 329>
VStem: 86 108<0 566 0 710> 551 108<131 710 0 710>
AnchorPoint: "Anchor-3" 428.699 710 basechar 0
AnchorPoint: "Anchor-0" 292.507 0 basechar 0
LayerCount: 2
Fore
SplineSet
317.493164062 913 m 1xae
 399.493164062 913 l 1
 448.799804688 824 l 1
 530.493164062 913 l 1
 612.493164062 913 l 1
 495.983398438 774 l 1
 384.983398438 774 l 1
 317.493164062 913 l 1xae
5.5068359375 0 m 1
 130.69921875 710 l 1
 267.69921875 710 l 1
 493.60546875 131 l 1x5e
 595.69921875 710 l 1
 703.69921875 710 l 1
 578.506835938 0 l 1
 436.506835938 0 l 1
 213.307617188 566 l 1
 113.506835938 0 l 1
 5.5068359375 0 l 1
EndSplineSet
Validated: 524289
EndChar

StartChar: uni0145
Encoding: 325 325 72
Width: 745
GlyphClass: 2
Flags: HMW
HStem: -150 98<318 354 318 428> 0 21G<86 86 86 194 517 517 517 659> 0 131<517 551 551 551 551 659> 566 144<194 194> 690 20G<86 223 223 223 551 659 659 659>
VStem: 86 108<0 566 0 710> 318 110<-141 -52 -141 -52 -141 -52> 551 108<131 710 0 710>
AnchorPoint: "Anchor-3" 468.108 710 basechar 0
AnchorPoint: "Anchor-0" 288.892 -244 basechar 0
LayerCount: 2
Fore
SplineSet
44.916015625 0 m 1xd7
 170.108398438 710 l 1
 307.108398438 710 l 1
 533.014648438 131 l 1xaf
 635.108398438 710 l 1
 743.108398438 710 l 1
 617.916015625 0 l 1
 475.916015625 0 l 1
 252.716796875 566 l 1
 152.916015625 0 l 1
 44.916015625 0 l 1xd7
215.891601562 -244 m 1
 286.466796875 -150 l 1
 250.466796875 -150 l 1
 267.747070312 -52 l 1
 377.747070312 -52 l 1
 362.053710938 -141 l 1
 283.891601562 -244 l 1
 215.891601562 -244 l 1
EndSplineSet
Validated: 524289
Substitution2: "'locl' Localized Forms in Latin lookup 11 subtable" uni0145.loclMAH
Substitution2: "'aalt' Access All Alternates in Latin lookup 0 subtable" uni0145.loclMAH
EndChar

StartChar: Ntilde
Encoding: 209 209 73
Width: 745
GlyphClass: 2
Flags: HMW
HStem: 0 21G<86 86 86 194 517 517 517 659> 0 131<517 551 551 551 551 659> 566 144<194 194> 690 20G<86 223 223 223 551 659 659 659> 785 67<438.5 457.5 438.5 473.5> 837 67<311.5 332>
VStem: 86 108<0 566 0 710> 222 59<778 778> 486 60<913 913> 551 108<131 710 0 710>
AnchorPoint: "Anchor-3" 428.699 710 basechar 0
AnchorPoint: "Anchor-0" 292.507 0 basechar 0
LayerCount: 2
Fore
SplineSet
499.923828125 785 m 0x9a80
 472.923828125 785 453.510742188 794 432.860351562 813 c 0
 415.858398438 830 408.092773438 837 390.092773438 837 c 0
 367.092773438 837 348.799804688 824 337.689453125 778 c 1
 278.689453125 778 l 1
 293.971679688 859 341.90625 904 400.90625 904 c 0x9540
 432.90625 904 452.966796875 893 473.616210938 874 c 0
 489.794921875 858 500.737304688 852 515.737304688 852 c 0
 538.737304688 852 555.029296875 865 566.493164062 913 c 1
 626.493164062 913 l 1
 609.38671875 833 562.923828125 785 499.923828125 785 c 0x9a80
5.5068359375 0 m 1xa640
 130.69921875 710 l 1
 267.69921875 710 l 1
 493.60546875 131 l 1x5640
 595.69921875 710 l 1
 703.69921875 710 l 1
 578.506835938 0 l 1
 436.506835938 0 l 1
 213.307617188 566 l 1
 113.506835938 0 l 1
 5.5068359375 0 l 1xa640
EndSplineSet
Validated: 524289
EndChar

StartChar: Eng
Encoding: 330 330 74
Width: 745
GlyphClass: 2
Flags: HMW
HStem: -154 88<394 494 494 506 394 494> 0 21G<86 86 86 194 517 517 517 554> 565 145<194 194> 690 20G<86 223 223 223 551 659 659 659>
VStem: 86 108<0 565 0 710> 551 108<132 710> 554 105<-8 -7 -7 0 0 0>
AnchorPoint: "Anchor-3" 449.173 710 basechar 0
AnchorPoint: "Anchor-0" 297.532 -150 basechar 0
LayerCount: 2
Fore
SplineSet
36.9814453125 0 m 1xea
 162.172851562 710 l 1
 299.172851562 710 l 1
 525.255859375 132 l 1
 627.172851562 710 l 1
 735.172851562 710 l 1
 608.747070312 -7 l 2xdc
 592.876953125 -97 525.827148438 -154 429.827148438 -154 c 2
 317.827148438 -154 l 1
 333.34375 -66 l 1
 433.34375 -66 l 2
 473.34375 -66 497.045898438 -45 503.5703125 -8 c 2
 504.981445312 0 l 1
 467.981445312 0 l 1
 244.60546875 565 l 1
 144.981445312 0 l 1
 36.9814453125 0 l 1xea
EndSplineSet
Validated: 524289
EndChar

StartChar: O
Encoding: 79 79 75
Width: 751
GlyphClass: 2
Flags: HMW
HStem: -16 99<306.5 444 306.5 479> 627 99<306.5 444>
VStem: 44 112<268.5 439.5 268.5 469> 595 112<268.5 439.5>
AnchorPoint: "Anchor-3" 437.596 710 basechar 0
AnchorPoint: "Anchor-1" 376 355 basechar 0
AnchorPoint: "Anchor-0" 312.404 0 basechar 0
LayerCount: 2
Fore
SplineSet
309.583007812 -16 m 0
 103.583007812 -16 3.2685546875 124 43.8232421875 354 c 0
 84.37890625 584 234.416992188 726 440.416992188 726 c 0
 648.416992188 726 747.37890625 584 706.823242188 354 c 0
 666.268554688 124 517.583007812 -16 309.583007812 -16 c 0
327.0390625 83 m 0
 465.0390625 83 564.671875 183 594.823242188 354 c 0
 624.975585938 525 560.9609375 627 422.9609375 627 c 0
 285.9609375 627 185.975585938 525 155.823242188 354 c 0
 125.671875 183 190.0390625 83 327.0390625 83 c 0
EndSplineSet
Validated: 524321
Substitution2: "Single Substitution lookup 27 subtable" ordmasculine
Substitution2: "'aalt' Access All Alternates in Latin lookup 0 subtable" ordmasculine
EndChar

StartChar: Oacute
Encoding: 211 211 76
Width: 751
GlyphClass: 2
Flags: HMW
HStem: -16 99<306.5 444 306.5 479> 627 99<306.5 444> 774 134<328 503 391 413>
VStem: 44 112<268.5 439.5 268.5 469> 595 112<268.5 439.5>
AnchorPoint: "Anchor-3" 421.551 710 basechar 0
AnchorPoint: "Anchor-1" 359.954 355 basechar 0
AnchorPoint: "Anchor-0" 296.358 0 basechar 0
LayerCount: 2
Fore
SplineSet
385.834960938 774 m 1
 472.462890625 908 l 1
 584.462890625 908 l 1
 470.834960938 774 l 1
 385.834960938 774 l 1
293.537109375 -16 m 0
 87.537109375 -16 -12.77734375 124 27.7783203125 354 c 0
 68.3330078125 584 218.37109375 726 424.37109375 726 c 0
 632.37109375 726 731.333007812 584 690.778320312 354 c 0
 650.22265625 124 501.537109375 -16 293.537109375 -16 c 0
310.993164062 83 m 0
 448.993164062 83 548.625976562 183 578.778320312 354 c 0
 608.9296875 525 544.915039062 627 406.915039062 627 c 0
 269.915039062 627 169.9296875 525 139.778320312 354 c 0
 109.625976562 183 173.993164062 83 310.993164062 83 c 0
EndSplineSet
Validated: 524321
EndChar

StartChar: Ocircumflex
Encoding: 212 212 77
Width: 751
GlyphClass: 2
Flags: HMW
HStem: -16 99<306.5 444 306.5 479> 627 99<306.5 444> 774 139<228 431 228 431 320 441 320 523>
VStem: 44 112<268.5 439.5 268.5 469> 595 112<268.5 439.5>
AnchorPoint: "Anchor-3" 421.109 710 basechar 0
AnchorPoint: "Anchor-1" 359.514 355 basechar 0
AnchorPoint: "Anchor-0" 295.917 0 basechar 0
LayerCount: 2
Fore
SplineSet
285.39453125 774 m 1
 401.904296875 913 l 1
 512.904296875 913 l 1
 580.39453125 774 l 1
 498.39453125 774 l 1
 448.087890625 863 l 1
 366.39453125 774 l 1
 285.39453125 774 l 1
293.095703125 -16 m 0
 87.095703125 -16 -13.2177734375 124 27.3369140625 354 c 0
 67.892578125 584 217.930664062 726 423.930664062 726 c 0
 631.930664062 726 730.892578125 584 690.336914062 354 c 0
 649.782226562 124 501.095703125 -16 293.095703125 -16 c 0
310.552734375 83 m 0
 448.552734375 83 548.185546875 183 578.336914062 354 c 0
 608.489257812 525 544.474609375 627 406.474609375 627 c 0
 269.474609375 627 169.489257812 525 139.336914062 354 c 0
 109.185546875 183 173.552734375 83 310.552734375 83 c 0
EndSplineSet
Validated: 524321
EndChar

StartChar: Odieresis
Encoding: 214 214 78
Width: 751
GlyphClass: 2
Flags: HMW
HStem: -16 99<306.5 444 306.5 479> 627 99<306.5 444> 786 106<228 335 228 335 416 522 228 416>
VStem: 44 112<268.5 439.5 268.5 469> 228 107<786 892 786 892> 416 106<786 892 786 892> 595 112<268.5 439.5>
AnchorPoint: "Anchor-3" 422.961 710 basechar 0
AnchorPoint: "Anchor-1" 361.365 355 basechar 0
AnchorPoint: "Anchor-0" 297.769 0 basechar 0
LayerCount: 2
Fore
SplineSet
289.361328125 786 m 1
 308.052734375 892 l 1
 415.052734375 892 l 1
 396.361328125 786 l 1
 289.361328125 786 l 1
477.361328125 786 m 1
 496.052734375 892 l 1
 602.052734375 892 l 1
 583.361328125 786 l 1
 477.361328125 786 l 1
294.947265625 -16 m 0
 88.947265625 -16 -11.3662109375 124 29.1884765625 354 c 0
 69.744140625 584 219.782226562 726 425.782226562 726 c 0
 633.782226562 726 732.744140625 584 692.188476562 354 c 0
 651.633789062 124 502.947265625 -16 294.947265625 -16 c 0
312.404296875 83 m 0
 450.404296875 83 550.036132812 183 580.188476562 354 c 0
 610.340820312 525 546.326171875 627 408.326171875 627 c 0
 271.326171875 627 171.340820312 525 141.188476562 354 c 0
 111.036132812 183 175.404296875 83 312.404296875 83 c 0
EndSplineSet
Validated: 524321
Substitution2: "'ss08' Style Set 8 in Latin lookup 41 subtable" Odieresis.ss08
Substitution2: "'aalt' Access All Alternates in Latin lookup 0 subtable" Odieresis.ss08
EndChar

StartChar: Ograve
Encoding: 210 210 79
Width: 751
GlyphClass: 2
Flags: HMW
HStem: -16 99<306.5 444 306.5 479> 627 99<306.5 444> 779 135<339 339 339 360 249 423>
VStem: 44 112<268.5 439.5 268.5 469> 595 112<268.5 439.5>
AnchorPoint: "Anchor-3" 421.021 710 basechar 0
AnchorPoint: "Anchor-1" 359.425 355 basechar 0
AnchorPoint: "Anchor-0" 295.829 0 basechar 0
LayerCount: 2
Fore
SplineSet
397.1875 779 m 1
 330.9921875 914 l 1
 441.9921875 914 l 1
 481.1875 779 l 1
 397.1875 779 l 1
293.0078125 -16 m 0
 87.0078125 -16 -13.306640625 124 27.2490234375 354 c 0
 67.8037109375 584 217.842773438 726 423.842773438 726 c 0
 631.842773438 726 730.803710938 584 690.249023438 354 c 0
 649.693359375 124 501.0078125 -16 293.0078125 -16 c 0
310.463867188 83 m 0
 448.463867188 83 548.096679688 183 578.249023438 354 c 0
 608.400390625 525 544.385742188 627 406.385742188 627 c 0
 269.385742188 627 169.400390625 525 139.249023438 354 c 0
 109.096679688 183 173.463867188 83 310.463867188 83 c 0
EndSplineSet
Validated: 524321
EndChar

StartChar: Ohungarumlaut
Encoding: 336 336 80
Width: 751
GlyphClass: 2
Flags: HMW
HStem: -16 99<306.5 444 306.5 479> 627 99<306.5 444> 774 134<257 432 321 342 404 432 467 488 404 404>
VStem: 44 112<268.5 439.5 268.5 469> 595 112<268.5 439.5>
AnchorPoint: "Anchor-3" 421.551 710 basechar 0
AnchorPoint: "Anchor-1" 359.954 355 basechar 0
AnchorPoint: "Anchor-0" 296.358 0 basechar 0
LayerCount: 2
Fore
SplineSet
314.834960938 774 m 1
 402.462890625 908 l 1
 513.462890625 908 l 1
 399.834960938 774 l 1
 314.834960938 774 l 1
461.834960938 774 m 1
 548.462890625 908 l 1
 659.462890625 908 l 1
 545.834960938 774 l 1
 461.834960938 774 l 1
293.537109375 -16 m 0
 87.537109375 -16 -12.77734375 124 27.7783203125 354 c 0
 68.3330078125 584 218.37109375 726 424.37109375 726 c 0
 632.37109375 726 731.333007812 584 690.778320312 354 c 0
 650.22265625 124 501.537109375 -16 293.537109375 -16 c 0
310.993164062 83 m 0
 448.993164062 83 548.625976562 183 578.778320312 354 c 0
 608.9296875 525 544.915039062 627 406.915039062 627 c 0
 269.915039062 627 169.9296875 525 139.778320312 354 c 0
 109.625976562 183 173.993164062 83 310.993164062 83 c 0
EndSplineSet
Validated: 524321
EndChar

StartChar: Omacron
Encoding: 332 332 81
Width: 751
GlyphClass: 2
Flags: HMW
HStem: -16 99<306.5 444 306.5 479> 627 99<306.5 444> 797 85<236 514 236 514>
VStem: 44 112<268.5 439.5 268.5 469> 236 278<797 882 797 882> 595 112<268.5 439.5>
AnchorPoint: "Anchor-3" 423.843 710 basechar 0
AnchorPoint: "Anchor-1" 362.246 355 basechar 0
AnchorPoint: "Anchor-0" 298.65 0 basechar 0
LayerCount: 2
Fore
SplineSet
300.182617188 797 m 1
 315.170898438 882 l 1
 593.170898438 882 l 1
 578.182617188 797 l 1
 300.182617188 797 l 1
295.829101562 -16 m 0
 89.8291015625 -16 -10.4853515625 124 30.0703125 354 c 0
 70.625 584 220.6640625 726 426.6640625 726 c 0
 634.6640625 726 733.625 584 693.0703125 354 c 0
 652.514648438 124 503.829101562 -16 295.829101562 -16 c 0
313.28515625 83 m 0
 451.28515625 83 550.91796875 183 581.0703125 354 c 0
 611.221679688 525 547.20703125 627 409.20703125 627 c 0
 272.20703125 627 172.221679688 525 142.0703125 354 c 0
 111.91796875 183 176.28515625 83 313.28515625 83 c 0
EndSplineSet
Validated: 524321
EndChar

StartChar: Oslash
Encoding: 216 216 82
Width: 751
GlyphClass: 2
Flags: HMW
HStem: -16 99<352 444 352 479> 627 99<306.5 398>
VStem: 44 112<316 439.5 316 469> 595 112<268.5 392>
AnchorPoint: "Anchor-3" 437.596 710 basechar 0
AnchorPoint: "Anchor-1" 376 355 basechar 0
AnchorPoint: "Anchor-0" 312.404 0 basechar 0
LayerCount: 2
Fore
SplineSet
8.5830078125 -16 m 1
 88.9814453125 77 l 1
 39.265625 141 22.8408203125 235 43.8232421875 354 c 0
 84.37890625 584 234.416992188 726 440.416992188 726 c 0
 509.416992188 726 566.595703125 710 610.482421875 681 c 1
 649.416992188 726 l 1
 742.416992188 726 l 1
 662.018554688 633 l 1
 711.557617188 568 727.806640625 473 706.823242188 354 c 0
 666.268554688 124 517.583007812 -16 309.583007812 -16 c 0
 241.583007812 -16 184.404296875 0 140.517578125 29 c 1
 101.583007812 -16 l 1
 8.5830078125 -16 l 1
155.823242188 354 m 0
 142.422851562 278 147.490234375 216 169.555664062 171 c 1
 536.142578125 594 l 1
 507.021484375 616 468.9609375 627 422.9609375 627 c 0
 285.9609375 627 185.975585938 525 155.823242188 354 c 0
327.0390625 83 m 0
 465.0390625 83 564.671875 183 594.823242188 354 c 0
 608.224609375 430 603.333007812 493 580.444335938 539 c 1
 214.681640625 115 l 1
 243.978515625 94 281.0390625 83 327.0390625 83 c 0
EndSplineSet
Validated: 524321
EndChar

StartChar: Otilde
Encoding: 213 213 83
Width: 751
GlyphClass: 2
Flags: HMW
HStem: -16 99<306.5 444 306.5 479> 627 99<306.5 444> 785 67<429.5 448.5 429.5 464> 837 67<302.5 323>
VStem: 44 112<268.5 439.5 268.5 469> 213 59<778 778> 477 60<913 913> 595 112<268.5 439.5>
AnchorPoint: "Anchor-3" 421.109 710 basechar 0
AnchorPoint: "Anchor-1" 359.514 355 basechar 0
AnchorPoint: "Anchor-0" 295.917 0 basechar 0
LayerCount: 2
Fore
SplineSet
492.333984375 785 m 0xeb
 465.333984375 785 444.920898438 794 425.271484375 813 c 0
 408.268554688 830 400.502929688 837 382.502929688 837 c 0
 359.502929688 837 341.2109375 824 330.099609375 778 c 1
 271.099609375 778 l 1
 286.381835938 859 334.317382812 904 393.317382812 904 c 0xdd
 425.317382812 904 445.376953125 893 466.02734375 874 c 0
 482.206054688 858 493.147460938 852 508.147460938 852 c 0
 531.147460938 852 547.440429688 865 558.904296875 913 c 1
 618.904296875 913 l 1
 601.797851562 833 554.333984375 785 492.333984375 785 c 0xeb
293.095703125 -16 m 0
 87.095703125 -16 -13.2177734375 124 27.3369140625 354 c 0
 67.892578125 584 217.930664062 726 423.930664062 726 c 0
 631.930664062 726 730.892578125 584 690.336914062 354 c 0
 649.782226562 124 501.095703125 -16 293.095703125 -16 c 0
310.552734375 83 m 0
 448.552734375 83 548.185546875 183 578.336914062 354 c 0
 608.489257812 525 544.474609375 627 406.474609375 627 c 0
 269.474609375 627 169.489257812 525 139.336914062 354 c 0
 109.185546875 183 173.552734375 83 310.552734375 83 c 0
EndSplineSet
Validated: 524321
EndChar

StartChar: OE
Encoding: 338 338 84
Width: 1099
GlyphClass: 2
Flags: HMW
HStem: -16 99<301 424.5> 0 99<713 1045 713 1045> 308 96<713 1025 713 1025> 611 99<713 1037 713 713> 627 99<300.5 424.5 270 448.5>
VStem: 44 112<274.5 432.5 274.5 465.5> 595 118<274.5 308 404 432> 605 108<0 308 90 308>
AnchorPoint: "Anchor-3" 610.596 710 basechar 0
AnchorPoint: "Anchor-0" 485.404 0 basechar 0
LayerCount: 2
Fore
SplineSet
308.583007812 -16 m 0xb5
 101.583007812 -16 4.6787109375 132 43.8232421875 354 c 0
 83.14453125 577 231.416992188 726 439.416992188 726 c 0xae
 540.416992188 726 611.716796875 688 651.7265625 620 c 1
 667.595703125 710 l 1x75
 1099.59570312 710 l 1
 1082.13964844 611 l 1
 758.139648438 611 l 1
 721.639648438 404 l 1
 1033.63964844 404 l 1
 1016.71289062 308 l 1
 704.712890625 308 l 1
 667.860351562 99 l 1x76
 999.860351562 99 l 1
 982.404296875 0 l 1
 542.404296875 0 l 1x75
 558.2734375 90 l 1
 494.458984375 23 409.583007812 -16 308.583007812 -16 c 0xb5
326.0390625 83 m 0
 475.0390625 83 566.788085938 195 594.823242188 354 c 0
 622.331054688 510 570.9609375 627 421.9609375 627 c 0
 274.9609375 627 183.506835938 511 155.823242188 354 c 0
 127.788085938 195 180.0390625 83 326.0390625 83 c 0
EndSplineSet
Validated: 524321
EndChar

StartChar: P
Encoding: 80 80 85
Width: 657
GlyphClass: 2
Flags: HMW
HStem: 0 21G<86 86 86 194> 266 98<194 348 348 351 194 348> 611 99<194 348 194 194>
VStem: 86 108<0 266 364 611> 497 112<448 529.5>
AnchorPoint: "Anchor-3" 391.596 710 basechar 0
AnchorPoint: "Anchor-0" 266.404 0 basechar 0
LayerCount: 2
Fore
SplineSet
23.404296875 0 m 1
 148.595703125 710 l 1
 413.595703125 710 l 2
 575.595703125 710 656.9609375 627 632.627929688 489 c 0
 608.118164062 350 497.306640625 266 335.306640625 266 c 2
 178.306640625 266 l 1
 131.404296875 0 l 1
 23.404296875 0 l 1
195.586914062 364 m 1
 349.586914062 364 l 2
 447.586914062 364 506.168945312 407 520.627929688 489 c 0
 534.91015625 570 491.139648438 611 393.139648438 611 c 2
 239.139648438 611 l 1
 195.586914062 364 l 1
EndSplineSet
Validated: 524321
EndChar

StartChar: Thorn
Encoding: 222 222 86
Width: 627
GlyphClass: 2
Flags: HMW
HStem: 0 21G<86 86 86 194> 150 98<194 322 322 323 194 322> 483 99<194 322 194 323> 690 20G<86 194 194 194>
VStem: 86 108<0 150 0 248 248 483 582 710> 467 112<327 405>
AnchorPoint: "Anchor-3" 376.596 710 basechar 0
AnchorPoint: "Anchor-0" 251.404 0 basechar 0
LayerCount: 2
Fore
SplineSet
23.404296875 0 m 1
 148.595703125 710 l 1
 256.595703125 710 l 1
 234.026367188 582 l 1
 363.026367188 582 l 2
 525.026367188 582 604.919921875 502 580.939453125 366 c 0
 556.783203125 229 448.852539062 150 286.852539062 150 c 2
 157.852539062 150 l 1
 131.404296875 0 l 1
 23.404296875 0 l 1
344.5703125 483 m 2
 216.5703125 483 l 1
 175.1328125 248 l 1
 303.1328125 248 l 2
 400.1328125 248 455.186523438 288 468.939453125 366 c 0
 482.693359375 444 441.5703125 483 344.5703125 483 c 2
EndSplineSet
Validated: 524321
EndChar

StartChar: Q
Encoding: 81 81 87
Width: 745
GlyphClass: 2
Flags: HMW
HStem: -16 99<299.5 384.5 299.5 396> 627 99<298.5 445.5>
VStem: 44 112<280.5 428 280.5 458> 589 112<302.5 428>
AnchorPoint: "Anchor-3" 439.093 710 basechar 0
AnchorPoint: "Anchor-0" 313.9 0 basechar 0
LayerCount: 2
Fore
SplineSet
484.0859375 -67 m 1
 440.134765625 7 l 1
 405.666015625 -7 359.079101562 -16 311.079101562 -16 c 0
 105.079101562 -16 11.4677734375 145 48.3203125 354 c 0
 84.99609375 562 231.9140625 726 441.9140625 726 c 0
 654.9140625 726 741.99609375 562 705.3203125 354 c 0
 682.220703125 223 614.6484375 112 517.01171875 46 c 1
 587.0859375 -67 l 1
 484.0859375 -67 l 1
328.53515625 83 m 0
 353.53515625 83 374.887695312 85 391.122070312 92 c 1
 312.515625 219 l 1
 415.515625 219 l 1
 467.646484375 129 l 1
 531.93359375 176 575.158203125 251 593.3203125 354 c 0
 619.416015625 502 571.45703125 627 424.45703125 627 c 0
 277.45703125 627 186.416015625 502 160.3203125 354 c 0
 134.400390625 207 183.53515625 83 328.53515625 83 c 0
EndSplineSet
Validated: 524321
EndChar

StartChar: R
Encoding: 82 82 88
Width: 680
GlyphClass: 2
Flags: HMW
HStem: 0 21G<86 86 86 194 513 513 513 622> 277 99<194 371 371 382 194 371> 611 99<194 362 194 194>
VStem: 86 108<0 277 376 611> 503 112<455.5 531>
AnchorPoint: "Anchor-3" 402.596 710 basechar 0
AnchorPoint: "Anchor-0" 290.404 0 basechar 0
LayerCount: 2
Fore
SplineSet
23.404296875 0 m 1
 148.595703125 710 l 1
 431.595703125 710 l 2
 582.595703125 710 662.9609375 627 639.862304688 496 c 0
 625.2265625 413 559.118164062 350 489.591796875 330 c 1
 552.828125 320 583.775390625 280 576.903320312 207 c 2
 559.404296875 0 l 1
 450.404296875 0 l 1
 467.434570312 193 l 2
 473.662109375 251 446.24609375 277 368.24609375 277 c 2
 180.24609375 277 l 1
 131.404296875 0 l 1
 23.404296875 0 l 1
197.703125 376 m 1
 374.703125 376 l 2
 455.703125 376 514.108398438 418 527.333007812 493 c 0
 540.734375 569 498.139648438 611 407.139648438 611 c 2
 239.139648438 611 l 1
 197.703125 376 l 1
EndSplineSet
Validated: 524321
Substitution2: "'ss04' Style Set 4 in Latin lookup 37 subtable" R.ss04
Substitution2: "'aalt' Access All Alternates in Latin lookup 0 subtable" R.ss04
EndChar

StartChar: Racute
Encoding: 340 340 89
Width: 680
GlyphClass: 2
Flags: HMW
HStem: 0 21G<86 86 86 194 513 513 513 622> 277 99<194 371 371 382 194 371> 611 99<194 362 194 194> 774 134<292 467 356 377>
VStem: 86 108<0 277 376 611> 503 112<455.5 531>
AnchorPoint: "Anchor-3" 385.14 710 basechar 0
AnchorPoint: "Anchor-0" 272.947 0 basechar 0
LayerCount: 2
Fore
SplineSet
348.424804688 774 m 1
 436.052734375 908 l 1
 547.052734375 908 l 1
 433.424804688 774 l 1
 348.424804688 774 l 1
5.947265625 0 m 1
 131.139648438 710 l 1
 414.139648438 710 l 2
 565.139648438 710 645.504882812 627 622.405273438 496 c 0
 607.770507812 413 541.662109375 350 472.135742188 330 c 1
 535.372070312 320 566.319335938 280 559.447265625 207 c 2
 541.947265625 0 l 1
 432.947265625 0 l 1
 449.978515625 193 l 2
 456.206054688 251 428.790039062 277 350.790039062 277 c 2
 162.790039062 277 l 1
 113.947265625 0 l 1
 5.947265625 0 l 1
180.24609375 376 m 1
 357.24609375 376 l 2
 438.24609375 376 496.65234375 418 509.876953125 493 c 0
 523.27734375 569 480.68359375 611 389.68359375 611 c 2
 221.68359375 611 l 1
 180.24609375 376 l 1
EndSplineSet
Validated: 524321
Substitution2: "'ss04' Style Set 4 in Latin lookup 37 subtable" Racute.ss04
Substitution2: "'aalt' Access All Alternates in Latin lookup 0 subtable" Racute.ss04
EndChar

StartChar: Rcaron
Encoding: 344 344 90
Width: 680
GlyphClass: 2
Flags: HMW
HStem: 0 21G<86 86 86 194 513 513 513 622> 277 99<194 371 371 382 194 371> 611 99<194 362 194 194> 774 139<192 395 192 284>
VStem: 86 108<0 277 376 611> 503 112<455.5 531>
AnchorPoint: "Anchor-3" 384.699 710 basechar 0
AnchorPoint: "Anchor-0" 272.507 0 basechar 0
LayerCount: 2
Fore
SplineSet
272.493164062 913 m 1
 354.493164062 913 l 1
 404.799804688 824 l 1
 485.493164062 913 l 1
 567.493164062 913 l 1
 450.983398438 774 l 1
 339.983398438 774 l 1
 272.493164062 913 l 1
5.5068359375 0 m 1
 130.69921875 710 l 1
 413.69921875 710 l 2
 564.69921875 710 645.063476562 627 621.96484375 496 c 0
 607.330078125 413 541.220703125 350 471.694335938 330 c 1
 534.931640625 320 565.877929688 280 559.006835938 207 c 2
 541.506835938 0 l 1
 432.506835938 0 l 1
 449.538085938 193 l 2
 455.764648438 251 428.349609375 277 350.349609375 277 c 2
 162.349609375 277 l 1
 113.506835938 0 l 1
 5.5068359375 0 l 1
179.805664062 376 m 1
 356.805664062 376 l 2
 437.805664062 376 496.2109375 418 509.435546875 493 c 0
 522.836914062 569 480.2421875 611 389.2421875 611 c 2
 221.2421875 611 l 1
 179.805664062 376 l 1
EndSplineSet
Validated: 524321
Substitution2: "'ss04' Style Set 4 in Latin lookup 37 subtable" Rcaron.ss04
Substitution2: "'aalt' Access All Alternates in Latin lookup 0 subtable" Rcaron.ss04
EndChar

StartChar: uni0156
Encoding: 342 342 91
Width: 680
GlyphClass: 2
Flags: HMW
HStem: -150 98<298 334 298 408> 0 21G<86 86 86 194 513 513 513 622> 277 99<194 371 371 382 194 371> 611 99<194 362 194 194>
VStem: 86 108<0 277 376 611> 298 110<-141 -52 -141 -52 -141 -52> 503 112<455.5 531>
AnchorPoint: "Anchor-3" 424.108 710 basechar 0
AnchorPoint: "Anchor-0" 268.892 -244 basechar 0
LayerCount: 2
Fore
SplineSet
44.916015625 0 m 1
 170.108398438 710 l 1
 453.108398438 710 l 2
 604.108398438 710 684.47265625 627 661.374023438 496 c 0
 646.739257812 413 580.629882812 350 511.103515625 330 c 1
 574.340820312 320 605.287109375 280 598.415039062 207 c 2
 580.916015625 0 l 1
 471.916015625 0 l 1
 488.947265625 193 l 2
 495.173828125 251 467.758789062 277 389.758789062 277 c 2
 201.758789062 277 l 1
 152.916015625 0 l 1
 44.916015625 0 l 1
219.21484375 376 m 1
 396.21484375 376 l 2
 477.21484375 376 535.620117188 418 548.844726562 493 c 0
 562.24609375 569 519.651367188 611 428.651367188 611 c 2
 260.651367188 611 l 1
 219.21484375 376 l 1
195.891601562 -244 m 1
 266.466796875 -150 l 1
 230.466796875 -150 l 1
 247.747070312 -52 l 1
 357.747070312 -52 l 1
 342.053710938 -141 l 1
 263.891601562 -244 l 1
 195.891601562 -244 l 1
EndSplineSet
Validated: 524321
Substitution2: "'ss04' Style Set 4 in Latin lookup 37 subtable" uni0156.ss04
Substitution2: "'aalt' Access All Alternates in Latin lookup 0 subtable" uni0156.ss04
EndChar

StartChar: S
Encoding: 83 83 92
Width: 654
GlyphClass: 2
Flags: HMW
HStem: -16 98<291 389.5 291 418.5> 628 98<272 361.5>
VStem: 69 111<493 555 493 581> 489 111<150.5 214>
AnchorPoint: "Anchor-3" 377.596 710 basechar 0
AnchorPoint: "Anchor-0" 271.404 0 basechar 0
LayerCount: 2
Fore
SplineSet
276.583007812 -16 m 0
 106.583007812 -16 18.0390625 83 31.783203125 229 c 1
 144.016601562 236 l 1
 139.560546875 137 189.862304688 82 295.862304688 82 c 0
 386.862304688 82 447.034179688 117 458.84765625 184 c 0
 469.427734375 244 444.952148438 281 294.65234375 319 c 0
 131.881835938 360 78.521484375 409 98.09375 520 c 0
 119.60546875 642 227.416992188 726 380.416992188 726 c 0
 542.416992188 726 618.313476562 629 610.685546875 495 c 1
 498.627929688 489 l 1
 503.086914062 571 458.137695312 628 361.137695312 628 c 0
 279.137695312 628 220.731445312 586 209.798828125 524 c 0
 198.8671875 462 229.811523438 439 361.993164062 406 c 0
 538.41015625 363 589.244140625 294 570.90625 190 c 0
 548.512695312 63 429.583007812 -16 276.583007812 -16 c 0
EndSplineSet
Validated: 524321
EndChar

StartChar: Sacute
Encoding: 346 346 93
Width: 654
GlyphClass: 2
Flags: HMW
HStem: -16 98<291 389.5 291 418.5> 628 98<272 361.5> 774 134<268 442 331 352>
VStem: 69 111<493 555 493 581> 489 111<150.5 214>
AnchorPoint: "Anchor-3" 361.551 710 basechar 0
AnchorPoint: "Anchor-0" 255.358 0 basechar 0
LayerCount: 2
Fore
SplineSet
325.834960938 774 m 1
 412.462890625 908 l 1
 523.462890625 908 l 1
 409.834960938 774 l 1
 325.834960938 774 l 1
260.537109375 -16 m 0
 90.537109375 -16 1.9931640625 83 15.7373046875 229 c 1
 127.971679688 236 l 1
 123.514648438 137 173.817382812 82 279.817382812 82 c 0
 370.817382812 82 430.98828125 117 442.802734375 184 c 0
 453.381835938 244 428.90625 281 278.606445312 319 c 0
 115.8359375 360 62.4755859375 409 82.0478515625 520 c 0
 103.560546875 642 211.37109375 726 364.37109375 726 c 0
 526.37109375 726 602.267578125 629 594.639648438 495 c 1
 482.58203125 489 l 1
 487.041015625 571 442.091796875 628 345.091796875 628 c 0
 263.091796875 628 204.685546875 586 193.75390625 524 c 0
 182.821289062 462 213.765625 439 345.947265625 406 c 0
 522.365234375 363 573.198242188 294 554.860351562 190 c 0
 532.466796875 63 413.537109375 -16 260.537109375 -16 c 0
EndSplineSet
Validated: 524321
EndChar

StartChar: Scaron
Encoding: 352 352 94
Width: 654
GlyphClass: 2
Flags: HMW
HStem: -16 98<291 389.5 291 418.5> 628 98<272 361.5> 774 139<168 370 168 260>
VStem: 69 111<493 555 493 581> 489 111<150.5 214>
AnchorPoint: "Anchor-3" 361.109 710 basechar 0
AnchorPoint: "Anchor-0" 254.917 0 basechar 0
LayerCount: 2
Fore
SplineSet
249.904296875 913 m 1
 330.904296875 913 l 1
 381.2109375 824 l 1
 462.904296875 913 l 1
 543.904296875 913 l 1
 427.39453125 774 l 1
 317.39453125 774 l 1
 249.904296875 913 l 1
260.095703125 -16 m 0
 90.095703125 -16 1.552734375 83 15.2958984375 229 c 1
 127.530273438 236 l 1
 123.07421875 137 173.375976562 82 279.375976562 82 c 0
 370.375976562 82 430.547851562 117 442.361328125 184 c 0
 452.94140625 244 428.46484375 281 278.166015625 319 c 0
 115.395507812 360 62.03515625 409 81.607421875 520 c 0
 103.119140625 642 210.930664062 726 363.930664062 726 c 0
 525.930664062 726 601.827148438 629 594.19921875 495 c 1
 482.141601562 489 l 1
 486.599609375 571 441.650390625 628 344.650390625 628 c 0
 262.650390625 628 204.245117188 586 193.3125 524 c 0
 182.380859375 462 213.325195312 439 345.505859375 406 c 0
 521.923828125 363 572.7578125 294 554.419921875 190 c 0
 532.026367188 63 413.095703125 -16 260.095703125 -16 c 0
EndSplineSet
Validated: 524321
EndChar

StartChar: Scedilla
Encoding: 350 350 95
Width: 654
GlyphClass: 2
Flags: HMW
HStem: -224 62<307 339.5 307 359> -81 47<303 347> -81 163<303 333> -13 21G<293 293> 628 98<272 361.5>
VStem: 69 111<493 555 493 581> 375 68<-136 -111.5> 489 111<150.5 214>
AnchorPoint: "Anchor-3" 395.935 710 basechar 0
AnchorPoint: "Anchor-0" 289.742 0 basechar 0
LayerCount: 2
Fore
SplineSet
242.245117188 -224 m 0xcf
 177.245117188 -224 142.240234375 -190 135.350585938 -144 c 1
 195.23046875 -122 l 1
 202.29296875 -150 218.176757812 -162 250.176757812 -162 c 0
 283.176757812 -162 304.645507812 -148 308.876953125 -124 c 0
 313.28515625 -99 304.458984375 -81 244.458984375 -81 c 1xaf
 218.278320312 -48 l 1
 246.44921875 -13 l 1x9f
 107.447265625 4 37.021484375 98 50.12109375 229 c 1
 162.35546875 236 l 1
 157.8984375 137 208.201171875 82 314.201171875 82 c 0xaf
 405.201171875 82 465.372070312 117 477.186523438 184 c 0
 487.765625 244 463.290039062 281 312.990234375 319 c 0
 150.219726562 360 96.859375 409 116.431640625 520 c 0
 137.944335938 642 245.754882812 726 398.754882812 726 c 0
 560.754882812 726 636.651367188 629 629.0234375 495 c 1
 516.965820312 489 l 1
 521.424804688 571 476.475585938 628 379.475585938 628 c 0
 297.475585938 628 239.069335938 586 228.137695312 524 c 0
 217.205078125 462 248.149414062 439 380.331054688 406 c 0
 556.749023438 363 607.58203125 294 589.244140625 190 c 0
 567.732421875 68 456.978515625 -10 312.920898438 -16 c 1
 296.747070312 -34 l 1
 361.041015625 -38 385.517578125 -75 376.524414062 -126 c 0
 365.768554688 -187 308.245117188 -224 242.245117188 -224 c 0xcf
EndSplineSet
Validated: 524321
Substitution2: "'locl' Localized Forms in Latin lookup 10 subtable" uni0218
Substitution2: "'aalt' Access All Alternates in Latin lookup 0 subtable" uni0218
EndChar

StartChar: Scircumflex
Encoding: 348 348 96
Width: 654
GlyphClass: 2
Flags: HMW
HStem: -16 98<291 389.5 291 418.5> 628 98<272 361.5> 774 139<168 370 168 370 260 381 260 462>
VStem: 69 111<493 555 493 581> 489 111<150.5 214>
AnchorPoint: "Anchor-3" 361.109 710 basechar 0
AnchorPoint: "Anchor-0" 254.917 0 basechar 0
LayerCount: 2
Fore
SplineSet
225.39453125 774 m 1
 341.904296875 913 l 1
 451.904296875 913 l 1
 519.39453125 774 l 1
 438.39453125 774 l 1
 388.087890625 863 l 1
 306.39453125 774 l 1
 225.39453125 774 l 1
260.095703125 -16 m 0
 90.095703125 -16 1.552734375 83 15.2958984375 229 c 1
 127.530273438 236 l 1
 123.07421875 137 173.375976562 82 279.375976562 82 c 0
 370.375976562 82 430.547851562 117 442.361328125 184 c 0
 452.94140625 244 428.46484375 281 278.166015625 319 c 0
 115.395507812 360 62.03515625 409 81.607421875 520 c 0
 103.119140625 642 210.930664062 726 363.930664062 726 c 0
 525.930664062 726 601.827148438 629 594.19921875 495 c 1
 482.141601562 489 l 1
 486.599609375 571 441.650390625 628 344.650390625 628 c 0
 262.650390625 628 204.245117188 586 193.3125 524 c 0
 182.380859375 462 213.325195312 439 345.505859375 406 c 0
 521.923828125 363 572.7578125 294 554.419921875 190 c 0
 532.026367188 63 413.095703125 -16 260.095703125 -16 c 0
EndSplineSet
Validated: 524321
EndChar

StartChar: uni0218
Encoding: 536 536 97
Width: 654
GlyphClass: 2
Flags: HMW
HStem: -150 98<279 315 279 389> -16 98<291 389.5 291 418.5> 628 98<272 361.5>
VStem: 69 111<493 555 493 581> 279 110<-141 -52 -141 -52 -141 -52> 489 111<150.5 214>
AnchorPoint: "Anchor-3" 397.697 710 basechar 0
AnchorPoint: "Anchor-0" 248.481 -244 basechar 0
LayerCount: 2
Fore
SplineSet
296.68359375 -16 m 0
 126.68359375 -16 38.140625 83 51.8837890625 229 c 1
 164.118164062 236 l 1
 159.662109375 137 209.963867188 82 315.963867188 82 c 0
 406.963867188 82 467.135742188 117 478.94921875 184 c 0
 489.529296875 244 465.052734375 281 314.75390625 319 c 0
 151.983398438 360 98.623046875 409 118.1953125 520 c 0
 139.70703125 642 247.518554688 726 400.518554688 726 c 0
 562.518554688 726 638.415039062 629 630.787109375 495 c 1
 518.729492188 489 l 1
 523.1875 571 478.23828125 628 381.23828125 628 c 0
 299.23828125 628 240.833007812 586 229.900390625 524 c 0
 218.96875 462 249.913085938 439 382.09375 406 c 0
 558.51171875 363 609.345703125 294 591.006835938 190 c 0
 568.614257812 63 449.68359375 -16 296.68359375 -16 c 0
175.481445312 -244 m 1
 246.055664062 -150 l 1
 210.055664062 -150 l 1
 227.3359375 -52 l 1
 337.3359375 -52 l 1
 321.643554688 -141 l 1
 243.481445312 -244 l 1
 175.481445312 -244 l 1
EndSplineSet
Validated: 524321
EndChar

StartChar: uni1E9E
Encoding: 7838 7838 98
Width: 708
GlyphClass: 2
Flags: HMW
HStem: 0 99<86 391 261 391 261 391> 341 85<279 410> 611 99<269.5 607 306 475>
VStem: 86 108<0 490 0 559> 538 112<182 258.5>
AnchorPoint: "Anchor-3" 416.596 710 basechar 0
AnchorPoint: "Anchor-0" 291.404 0 basechar 0
LayerCount: 2
Fore
SplineSet
23.404296875 0 m 1
 109.803710938 490 l 2
 134.137695312 628 229.595703125 710 368.595703125 710 c 2
 669.595703125 710 l 1
 651.08203125 605 l 1
 422.51953125 426 l 1
 580.580078125 415 647.883789062 343 626.372070312 221 c 0
 602.391601562 85 488.404296875 0 328.404296875 0 c 2
 198.404296875 0 l 1
 215.860351562 99 l 1
 345.860351562 99 l 2
 436.860351562 99 500.794921875 144 514.196289062 220 c 0
 527.7734375 297 474.53125 341 377.53125 341 c 2
 276.53125 341 l 1
 291.872070312 428 l 1
 520.139648438 611 l 1
 351.139648438 611 l 2
 278.139648438 611 231.734375 569 217.803710938 490 c 2
 131.404296875 0 l 1
 23.404296875 0 l 1
EndSplineSet
Validated: 524321
EndChar

StartChar: T
Encoding: 84 84 99
Width: 568
GlyphClass: 2
Flags: HMW
HStem: 0 21G<230 230 230 338> 611 99<12 230 12 556 338 338 338 556>
VStem: 230 108<0 611 0 611>
AnchorPoint: "Anchor-3" 346.596 710 basechar 0
AnchorPoint: "Anchor-1" 281.531 341 basechar 0
AnchorPoint: "Anchor-0" 221.404 0 basechar 0
LayerCount: 2
Fore
SplineSet
167.404296875 0 m 1
 275.139648438 611 l 1
 57.1396484375 611 l 1
 74.595703125 710 l 1
 618.595703125 710 l 1
 601.139648438 611 l 1
 383.139648438 611 l 1
 275.404296875 0 l 1
 167.404296875 0 l 1
EndSplineSet
Validated: 524289
EndChar

StartChar: Tbar
Encoding: 358 358 100
Width: 568
GlyphClass: 2
Flags: HMW
HStem: 0 21G<230 230 230 338> 296 90<97 230 97 230 338 471> 611 99<12 230 12 556 338 338 338 556>
VStem: 230 108<0 296 0 296 386 611>
AnchorPoint: "Anchor-3" 346.596 710 basechar 0
AnchorPoint: "Anchor-1" 281.531 341 basechar 0
AnchorPoint: "Anchor-0" 221.404 0 basechar 0
LayerCount: 2
Fore
SplineSet
167.404296875 0 m 1
 219.596679688 296 l 1
 86.5966796875 296 l 1
 102.465820312 386 l 1
 235.465820312 386 l 1
 275.139648438 611 l 1
 57.1396484375 611 l 1
 74.595703125 710 l 1
 618.595703125 710 l 1
 601.139648438 611 l 1
 383.139648438 611 l 1
 343.465820312 386 l 1
 476.465820312 386 l 1
 460.596679688 296 l 1
 327.596679688 296 l 1
 275.404296875 0 l 1
 167.404296875 0 l 1
EndSplineSet
Validated: 524289
EndChar

StartChar: Tcaron
Encoding: 356 356 101
Width: 568
GlyphClass: 2
Flags: HMW
HStem: 0 21G<230 230 230 338> 611 99<12 230 12 556 338 338 338 556> 774 139<136 339 136 228>
VStem: 230 108<0 611 0 611>
AnchorPoint: "Anchor-3" 328.699 710 basechar 0
AnchorPoint: "Anchor-1" 263.634 341 basechar 0
AnchorPoint: "Anchor-0" 203.507 0 basechar 0
LayerCount: 2
Fore
SplineSet
216.493164062 913 m 1
 298.493164062 913 l 1
 348.799804688 824 l 1
 430.493164062 913 l 1
 511.493164062 913 l 1
 394.983398438 774 l 1
 283.983398438 774 l 1
 216.493164062 913 l 1
149.506835938 0 m 1
 257.2421875 611 l 1
 39.2421875 611 l 1
 56.69921875 710 l 1
 600.69921875 710 l 1
 583.2421875 611 l 1
 365.2421875 611 l 1
 257.506835938 0 l 1
 149.506835938 0 l 1
EndSplineSet
Validated: 524289
EndChar

StartChar: uni0162
Encoding: 354 354 102
Width: 568
GlyphClass: 2
Flags: HMW
HStem: -224 62<256.5 289 256.5 308.5> -81 47<252 296> 0 21G<230 230 230 250 321 321 321 338> 611 99<12 230 12 556 338 338 338 556>
VStem: 230 108<0 611 0 611> 325 67<-136 -111.5>
AnchorPoint: "Anchor-3" 366.345 710 basechar 0
AnchorPoint: "Anchor-1" 301.28 341 basechar 0
AnchorPoint: "Anchor-0" 241.152 0 basechar 0
LayerCount: 2
Fore
SplineSet
187.15234375 0 m 1xf8
 294.888671875 611 l 1
 76.888671875 611 l 1
 94.3447265625 710 l 1
 638.344726562 710 l 1
 620.888671875 611 l 1
 402.888671875 611 l 1
 295.15234375 0 l 1
 278.15234375 0 l 1xf8
 247.157226562 -34 l 1
 312.452148438 -38 335.927734375 -75 326.935546875 -126 c 0
 316.1796875 -187 259.655273438 -224 192.655273438 -224 c 0
 127.655273438 -224 93.650390625 -190 85.76171875 -144 c 1
 145.640625 -122 l 1
 152.703125 -150 168.587890625 -162 201.587890625 -162 c 0
 233.587890625 -162 256.055664062 -148 260.288085938 -124 c 0xf4
 264.696289062 -99 255.870117188 -81 194.870117188 -81 c 1
 168.688476562 -48 l 1
 207.15234375 0 l 1
 187.15234375 0 l 1xf8
EndSplineSet
Validated: 524321
Substitution2: "'locl' Localized Forms in Latin lookup 10 subtable" uni021A
Substitution2: "'aalt' Access All Alternates in Latin lookup 0 subtable" uni021A
EndChar

StartChar: uni021A
Encoding: 538 538 103
Width: 568
GlyphClass: 2
Flags: HMW
HStem: -150 98<229 264 229 339> 0 21G<230 230 230 338> 611 99<12 230 12 556 338 338 338 556>
VStem: 229 109<-150 611 -52 611> 230 108<0 611 0 611> 230 109<-141 611>
AnchorPoint: "Anchor-3" 368.108 710 basechar 0
AnchorPoint: "Anchor-1" 303.043 341 basechar 0
AnchorPoint: "Anchor-0" 199.892 -244 basechar 0
LayerCount: 2
Fore
SplineSet
188.916015625 0 m 1xe8
 296.651367188 611 l 1
 78.6513671875 611 l 1
 96.1083984375 710 l 1
 640.108398438 710 l 1
 622.651367188 611 l 1
 404.651367188 611 l 1
 296.916015625 0 l 1
 188.916015625 0 l 1xe8
125.891601562 -244 m 1
 196.466796875 -150 l 1
 161.466796875 -150 l 1
 178.747070312 -52 l 1xf0
 288.747070312 -52 l 1
 273.053710938 -141 l 1xe4
 193.891601562 -244 l 1
 125.891601562 -244 l 1
EndSplineSet
Validated: 524289
EndChar

StartChar: U
Encoding: 85 85 104
Width: 694
GlyphClass: 2
Flags: HMW
HStem: -16 99<293.5 400.5 293.5 431.5> 691 20G<71 179 179 179 515 623 623 623>
VStem: 71 108<251 711> 515 108<251 711>
AnchorPoint: "Anchor-3" 410.919 710 basechar 0
AnchorPoint: "Anchor-2" 399.079 2 basechar 0
AnchorPoint: "Anchor-0" 285.727 0 basechar 0
LayerCount: 2
Fore
SplineSet
282.905273438 -16 m 0
 112.905273438 -16 25.06640625 87 53.984375 251 c 2
 135.094726562 711 l 1
 243.094726562 711 l 1
 161.984375 251 l 2
 142.94140625 143 193.361328125 83 300.361328125 83 c 0
 407.361328125 83 478.94140625 143 497.984375 251 c 2
 579.094726562 711 l 1
 687.094726562 711 l 1
 605.984375 251 l 2
 577.06640625 87 451.905273438 -16 282.905273438 -16 c 0
EndSplineSet
Validated: 524321
EndChar

StartChar: Uacute
Encoding: 218 218 105
Width: 694
GlyphClass: 2
Flags: HMW
HStem: -16 99<293.5 400.5 293.5 431.5> 691 20G<71 179 179 179 515 623 623 623> 774 134<300 475 363 385>
VStem: 71 108<251 711> 515 108<251 711>
AnchorPoint: "Anchor-3" 393.551 710 basechar 0
AnchorPoint: "Anchor-2" 381.711 2 basechar 0
AnchorPoint: "Anchor-0" 268.358 0 basechar 0
LayerCount: 2
Fore
SplineSet
357.834960938 774 m 1
 444.462890625 908 l 1
 556.462890625 908 l 1
 442.834960938 774 l 1
 357.834960938 774 l 1
265.537109375 -16 m 0
 95.537109375 -16 7.6982421875 87 36.6162109375 251 c 2
 117.7265625 711 l 1
 225.7265625 711 l 1
 144.616210938 251 l 2
 125.573242188 143 175.993164062 83 282.993164062 83 c 0
 389.993164062 83 461.573242188 143 480.616210938 251 c 2
 561.7265625 711 l 1
 669.7265625 711 l 1
 588.616210938 251 l 2
 559.698242188 87 434.537109375 -16 265.537109375 -16 c 0
EndSplineSet
Validated: 524321
EndChar

StartChar: Ubreve
Encoding: 364 364 106
Width: 694
GlyphClass: 2
Flags: HMW
HStem: -16 99<293.5 400.5 293.5 431.5> 691 20G<71 179 179 179 515 623 623 623> 777 69<325 369 325 390>
VStem: 71 108<251 711> 515 108<251 711>
AnchorPoint: "Anchor-3" 393.197 710 basechar 0
AnchorPoint: "Anchor-2" 381.358 2 basechar 0
AnchorPoint: "Anchor-0" 268.006 0 basechar 0
LayerCount: 2
Fore
SplineSet
405.01171875 777 m 0
 320.01171875 777 273.00390625 828 283.815429688 912 c 1
 350.815429688 912 l 1
 348.705078125 866 373.177734375 846 417.177734375 846 c 0
 461.177734375 846 492.705078125 866 505.815429688 912 c 1
 573.815429688 912 l 1
 555.00390625 828 491.01171875 777 405.01171875 777 c 0
265.184570312 -16 m 0
 95.1845703125 -16 7.345703125 87 36.263671875 251 c 2
 117.374023438 711 l 1
 225.374023438 711 l 1
 144.263671875 251 l 2
 125.220703125 143 175.640625 83 282.640625 83 c 0
 389.640625 83 461.220703125 143 480.263671875 251 c 2
 561.374023438 711 l 1
 669.374023438 711 l 1
 588.263671875 251 l 2
 559.345703125 87 434.184570312 -16 265.184570312 -16 c 0
EndSplineSet
Validated: 524321
EndChar

StartChar: Ucircumflex
Encoding: 219 219 107
Width: 694
GlyphClass: 2
Flags: HMW
HStem: -16 99<293.5 400.5 293.5 431.5> 691 20G<71 179 179 179 515 623 623 623> 774 139<200 403 200 403 292 413 292 495>
VStem: 71 108<251 711> 515 108<251 711>
AnchorPoint: "Anchor-3" 393.109 710 basechar 0
AnchorPoint: "Anchor-2" 381.27 2 basechar 0
AnchorPoint: "Anchor-0" 267.917 0 basechar 0
LayerCount: 2
Fore
SplineSet
257.39453125 774 m 1
 373.904296875 913 l 1
 484.904296875 913 l 1
 552.39453125 774 l 1
 470.39453125 774 l 1
 420.087890625 863 l 1
 338.39453125 774 l 1
 257.39453125 774 l 1
265.095703125 -16 m 0
 95.095703125 -16 7.2578125 87 36.17578125 251 c 2
 117.286132812 711 l 1
 225.286132812 711 l 1
 144.17578125 251 l 2
 125.131835938 143 175.552734375 83 282.552734375 83 c 0
 389.552734375 83 461.131835938 143 480.17578125 251 c 2
 561.286132812 711 l 1
 669.286132812 711 l 1
 588.17578125 251 l 2
 559.2578125 87 434.095703125 -16 265.095703125 -16 c 0
EndSplineSet
Validated: 524321
EndChar

StartChar: Udieresis
Encoding: 220 220 108
Width: 694
GlyphClass: 2
Flags: HMW
HStem: -16 99<293.5 400.5 293.5 431.5> 691 20G<71 179 179 179 515 623 623 623> 786 106<200 307 200 307 388 494 200 388>
VStem: 71 108<251 711> 200 107<786 892 786 892> 388 106<786 892 786 892> 515 108<251 711>
AnchorPoint: "Anchor-3" 394.961 710 basechar 0
AnchorPoint: "Anchor-2" 383.121 2 basechar 0
AnchorPoint: "Anchor-0" 269.769 0 basechar 0
LayerCount: 2
Fore
SplineSet
261.361328125 786 m 1
 280.052734375 892 l 1
 387.052734375 892 l 1
 368.361328125 786 l 1
 261.361328125 786 l 1
449.361328125 786 m 1
 468.052734375 892 l 1
 574.052734375 892 l 1
 555.361328125 786 l 1
 449.361328125 786 l 1
266.947265625 -16 m 0
 96.947265625 -16 9.109375 87 38.0263671875 251 c 2
 119.137695312 711 l 1
 227.137695312 711 l 1
 146.026367188 251 l 2
 126.983398438 143 177.404296875 83 284.404296875 83 c 0
 391.404296875 83 462.983398438 143 482.026367188 251 c 2
 563.137695312 711 l 1
 671.137695312 711 l 1
 590.026367188 251 l 2xf2
 561.109375 87 435.947265625 -16 266.947265625 -16 c 0
EndSplineSet
Validated: 524321
Substitution2: "'ss08' Style Set 8 in Latin lookup 41 subtable" Udieresis.ss08
Substitution2: "'aalt' Access All Alternates in Latin lookup 0 subtable" Udieresis.ss08
EndChar

StartChar: Ugrave
Encoding: 217 217 109
Width: 694
GlyphClass: 2
Flags: HMW
HStem: -16 99<293.5 400.5 293.5 431.5> 691 20G<71 179 179 179 515 623 623 623> 779 135<311 311 311 332 221 395>
VStem: 71 108<251 711> 515 108<251 711>
AnchorPoint: "Anchor-3" 393.021 710 basechar 0
AnchorPoint: "Anchor-2" 381.182 2 basechar 0
AnchorPoint: "Anchor-0" 267.829 0 basechar 0
LayerCount: 2
Fore
SplineSet
369.1875 779 m 1
 302.9921875 914 l 1
 413.9921875 914 l 1
 453.1875 779 l 1
 369.1875 779 l 1
265.0078125 -16 m 0
 95.0078125 -16 7.169921875 87 36.0869140625 251 c 2
 117.197265625 711 l 1
 225.197265625 711 l 1
 144.086914062 251 l 2
 125.043945312 143 175.463867188 83 282.463867188 83 c 0
 389.463867188 83 461.043945312 143 480.086914062 251 c 2
 561.197265625 711 l 1
 669.197265625 711 l 1
 588.086914062 251 l 2
 559.169921875 87 434.0078125 -16 265.0078125 -16 c 0
EndSplineSet
Validated: 524321
EndChar

StartChar: Uhungarumlaut
Encoding: 368 368 110
Width: 694
GlyphClass: 2
Flags: HMW
HStem: -16 99<293.5 400.5 293.5 431.5> 691 20G<71 179 179 179 515 623 623 623> 774 134<229 404 293 314 376 404 439 460 376 376>
VStem: 71 108<251 711> 515 108<251 711>
AnchorPoint: "Anchor-3" 393.551 710 basechar 0
AnchorPoint: "Anchor-2" 381.711 2 basechar 0
AnchorPoint: "Anchor-0" 268.358 0 basechar 0
LayerCount: 2
Fore
SplineSet
286.834960938 774 m 1
 374.462890625 908 l 1
 485.462890625 908 l 1
 371.834960938 774 l 1
 286.834960938 774 l 1
433.834960938 774 m 1
 520.462890625 908 l 1
 631.462890625 908 l 1
 517.834960938 774 l 1
 433.834960938 774 l 1
265.537109375 -16 m 0
 95.537109375 -16 7.6982421875 87 36.6162109375 251 c 2
 117.7265625 711 l 1
 225.7265625 711 l 1
 144.616210938 251 l 2
 125.573242188 143 175.993164062 83 282.993164062 83 c 0
 389.993164062 83 461.573242188 143 480.616210938 251 c 2
 561.7265625 711 l 1
 669.7265625 711 l 1
 588.616210938 251 l 2
 559.698242188 87 434.537109375 -16 265.537109375 -16 c 0
EndSplineSet
Validated: 524321
EndChar

StartChar: Umacron
Encoding: 362 362 111
Width: 694
GlyphClass: 2
Flags: HMW
HStem: -16 99<293.5 400.5 293.5 431.5> 691 20G<71 179 179 179 515 623 623 623> 797 85<208 486 208 486>
VStem: 71 108<251 711> 208 278<797 882 797 882> 515 108<251 711>
AnchorPoint: "Anchor-3" 395.843 710 basechar 0
AnchorPoint: "Anchor-2" 384.003 2 basechar 0
AnchorPoint: "Anchor-0" 270.65 0 basechar 0
LayerCount: 2
Fore
SplineSet
272.182617188 797 m 1
 287.170898438 882 l 1
 565.170898438 882 l 1
 550.182617188 797 l 1
 272.182617188 797 l 1
267.829101562 -16 m 0
 97.8291015625 -16 9.9912109375 87 38.908203125 251 c 2
 120.018554688 711 l 1
 228.018554688 711 l 1
 146.908203125 251 l 2
 127.865234375 143 178.28515625 83 285.28515625 83 c 0
 392.28515625 83 463.865234375 143 482.908203125 251 c 2
 564.018554688 711 l 1
 672.018554688 711 l 1
 590.908203125 251 l 2xf4
 561.991210938 87 436.829101562 -16 267.829101562 -16 c 0
EndSplineSet
Validated: 524321
EndChar

StartChar: Uogonek
Encoding: 370 370 112
Width: 694
GlyphClass: 2
Flags: HMW
HStem: -210 75<416 422> -16 99<293.5 349.5 347 360> 691 20G<71 179 179 179 515 623 623 623>
VStem: 71 108<251 711> 303 93<-117 -115.5> 515 108<251 711>
AnchorPoint: "Anchor-3" 428.022 710 basechar 0
AnchorPoint: "Anchor-2" 416.183 2 basechar 0
AnchorPoint: "Anchor-0" 302.83 0 basechar 0
LayerCount: 2
Fore
SplineSet
300.008789062 -16 m 0
 130.008789062 -16 42.1708984375 87 71.087890625 251 c 2
 152.198242188 711 l 1
 260.198242188 711 l 1
 179.087890625 251 l 2
 160.044921875 143 210.46484375 83 317.46484375 83 c 0
 424.46484375 83 496.044921875 143 515.087890625 251 c 2
 596.198242188 711 l 1
 704.198242188 711 l 1
 623.087890625 251 l 2
 601.223632812 127 524.530273438 38 416.182617188 2 c 1
 375.248046875 -43 l 2
 346.60546875 -75 335.431640625 -93 332.610351562 -109 c 0
 329.7890625 -125 340.026367188 -135 356.026367188 -135 c 0
 374.026367188 -135 391.907226562 -130 405.494140625 -121 c 1
 419.385742188 -184 l 1
 400.741210938 -199 359.801757812 -210 321.801757812 -210 c 0
 259.801757812 -210 226.385742188 -184 235.026367188 -135 c 0
 241.90234375 -96 278.30859375 -54 310.479492188 -19 c 2
 313.008789062 -16 l 1
 309.008789062 -16 305.008789062 -16 300.008789062 -16 c 0
EndSplineSet
Validated: 524321
EndChar

StartChar: Uring
Encoding: 366 366 113
Width: 694
GlyphClass: 2
Flags: HMW
HStem: -16 99<293.5 400.5 293.5 431.5> 691 20G<71 179 179 179 515 623 623 623> 754 54<335.5 358.5 335.5 374> 889 55<335.5 358.5>
VStem: 71 108<251 711> 252 55<837.5 860.5 837.5 876> 388 55<837.5 860.5> 515 108<251 711>
AnchorPoint: "Anchor-3" 390.376 710 basechar 0
AnchorPoint: "Anchor-2" 378.537 2 basechar 0
AnchorPoint: "Anchor-0" 265.185 0 basechar 0
LayerCount: 2
Fore
SplineSet
398.134765625 754 m 0
 344.134765625 754 310.364257812 795 319.885742188 849 c 0
 329.407226562 903 377.63671875 944 431.63671875 944 c 0
 485.63671875 944 520.407226562 903 510.885742188 849 c 0
 501.364257812 795 452.134765625 754 398.134765625 754 c 0
407.65625 808 m 0
 430.65625 808 451.830078125 826 455.885742188 849 c 0
 459.94140625 872 444.939453125 889 421.939453125 889 c 0
 398.939453125 889 378.94140625 872 374.885742188 849 c 0
 370.830078125 826 384.65625 808 407.65625 808 c 0
262.36328125 -16 m 0
 92.36328125 -16 4.5244140625 87 33.4423828125 251 c 2
 114.552734375 711 l 1
 222.552734375 711 l 1
 141.442382812 251 l 2
 122.399414062 143 172.819335938 83 279.819335938 83 c 0
 386.819335938 83 458.399414062 143 477.442382812 251 c 2
 558.552734375 711 l 1
 666.552734375 711 l 1
 585.442382812 251 l 2
 556.524414062 87 431.36328125 -16 262.36328125 -16 c 0
EndSplineSet
Validated: 524321
EndChar

StartChar: Utilde
Encoding: 360 360 114
Width: 694
GlyphClass: 2
Flags: HMW
HStem: -16 99<293.5 400.5 293.5 431.5> 691 20G<71 179 179 179 515 623 623 623> 785 67<401.5 420.5 401.5 436> 837 67<274.5 295>
VStem: 71 108<251 711> 185 59<778 778> 449 60<913 913> 515 108<251 711>
AnchorPoint: "Anchor-3" 393.109 710 basechar 0
AnchorPoint: "Anchor-2" 381.27 2 basechar 0
AnchorPoint: "Anchor-0" 267.917 0 basechar 0
LayerCount: 2
Fore
SplineSet
464.333984375 785 m 0xea
 437.333984375 785 416.920898438 794 397.271484375 813 c 0
 380.268554688 830 372.502929688 837 354.502929688 837 c 0
 331.502929688 837 313.2109375 824 302.099609375 778 c 1
 243.099609375 778 l 1
 258.381835938 859 306.317382812 904 365.317382812 904 c 0xd5
 397.317382812 904 417.376953125 893 438.02734375 874 c 0
 454.206054688 858 465.147460938 852 480.147460938 852 c 0
 503.147460938 852 519.440429688 865 530.904296875 913 c 1
 590.904296875 913 l 1
 573.797851562 833 526.333984375 785 464.333984375 785 c 0xea
265.095703125 -16 m 0
 95.095703125 -16 7.2578125 87 36.17578125 251 c 2
 117.286132812 711 l 1
 225.286132812 711 l 1
 144.17578125 251 l 2xd9
 125.131835938 143 175.552734375 83 282.552734375 83 c 0
 389.552734375 83 461.131835938 143 480.17578125 251 c 2
 561.286132812 711 l 1
 669.286132812 711 l 1
 588.17578125 251 l 2
 559.2578125 87 434.095703125 -16 265.095703125 -16 c 0
EndSplineSet
Validated: 524321
EndChar

StartChar: V
Encoding: 86 86 115
Width: 688
GlyphClass: 2
Flags: HMW
HStem: 0 21G<276 276 276 411> 0 120<276 344 344 344 344 411> 690 20G<20 135 135 135 553 668 668 668>
VStem: 20 648<710 710>
AnchorPoint: "Anchor-3" 406.596 710 basechar 0
AnchorPoint: "Anchor-0" 281.404 0 basechar 0
LayerCount: 2
Fore
SplineSet
213.404296875 0 m 1xb0
 82.595703125 710 l 1
 197.595703125 710 l 1
 302.563476562 120 l 1x70
 615.595703125 710 l 1
 730.595703125 710 l 1
 348.404296875 0 l 1
 213.404296875 0 l 1xb0
EndSplineSet
Validated: 524289
EndChar

StartChar: W
Encoding: 87 87 116
Width: 968
GlyphClass: 2
Flags: HMW
HStem: 0 21G<226 226 226 352 616 616 616 742> 0 149<226 291 291 291 291 352> 690 20G<38 153 153 153 429 539 539 539 814 931 931 931>
VStem: 38 893<710 710>
AnchorPoint: "Anchor-3" 546.596 710 basechar 0
AnchorPoint: "Anchor-0" 421.404 0 basechar 0
LayerCount: 2
Fore
SplineSet
163.404296875 0 m 1xb0
 100.595703125 710 l 1
 215.595703125 710 l 1
 254.676757812 149 l 1
 491.595703125 710 l 1
 601.595703125 710 l 1
 640.676757812 149 l 1x70
 876.595703125 710 l 1
 993.595703125 710 l 1
 679.404296875 0 l 1
 553.404296875 0 l 1
 512.741210938 518 l 1
 289.404296875 0 l 1
 163.404296875 0 l 1xb0
EndSplineSet
Validated: 524289
EndChar

StartChar: Wacute
Encoding: 7810 7810 117
Width: 968
GlyphClass: 2
Flags: HMW
HStem: 0 21G<226 226 226 352 616 616 616 742> 0 149<226 291 291 291 291 352> 690 20G<38 153 153 153 429 539 539 539 814 931 931 931> 774 134<436 611 500 521>
VStem: 38 893<710 710>
AnchorPoint: "Anchor-3" 529.14 710 basechar 0
AnchorPoint: "Anchor-0" 403.947 0 basechar 0
LayerCount: 2
Fore
SplineSet
492.424804688 774 m 1xb8
 580.052734375 908 l 1
 691.052734375 908 l 1
 577.424804688 774 l 1
 492.424804688 774 l 1xb8
145.947265625 0 m 1
 83.1396484375 710 l 1
 198.139648438 710 l 1
 237.220703125 149 l 1
 474.139648438 710 l 1
 584.139648438 710 l 1
 623.220703125 149 l 1x78
 859.139648438 710 l 1
 976.139648438 710 l 1
 661.947265625 0 l 1
 535.947265625 0 l 1
 495.28515625 518 l 1
 271.947265625 0 l 1
 145.947265625 0 l 1
EndSplineSet
Validated: 524289
EndChar

StartChar: Wcircumflex
Encoding: 372 372 118
Width: 968
GlyphClass: 2
Flags: HMW
HStem: 0 21G<226 226 226 352 616 616 616 742> 0 149<226 291 291 291 291 352> 690 20G<38 153 153 153 429 539 539 539 814 931 931 931> 774 139<336 539 336 539 428 550 428 631>
VStem: 38 893<710 710>
AnchorPoint: "Anchor-3" 528.699 710 basechar 0
AnchorPoint: "Anchor-0" 403.507 0 basechar 0
LayerCount: 2
Fore
SplineSet
391.983398438 774 m 1xb8
 508.493164062 913 l 1
 619.493164062 913 l 1
 686.983398438 774 l 1
 605.983398438 774 l 1
 555.676757812 863 l 1
 473.983398438 774 l 1
 391.983398438 774 l 1xb8
145.506835938 0 m 1
 82.69921875 710 l 1
 197.69921875 710 l 1
 236.779296875 149 l 1
 473.69921875 710 l 1
 583.69921875 710 l 1
 622.779296875 149 l 1x78
 858.69921875 710 l 1
 975.69921875 710 l 1
 661.506835938 0 l 1
 535.506835938 0 l 1
 494.84375 518 l 1
 271.506835938 0 l 1
 145.506835938 0 l 1
EndSplineSet
Validated: 524289
EndChar

StartChar: Wdieresis
Encoding: 7812 7812 119
Width: 968
GlyphClass: 2
Flags: HMW
HStem: 0 21G<226 226 226 352 616 616 616 742> 0 149<226 291 291 291 291 352> 690 20G<38 153 153 153 429 539 539 539 814 931 931 931> 786 106<337 443 337 443 524 631 337 524>
VStem: 337 106<786 892 786 892> 524 107<786 892 786 892>
AnchorPoint: "Anchor-3" 530.551 710 basechar 0
AnchorPoint: "Anchor-0" 405.358 0 basechar 0
LayerCount: 2
Fore
SplineSet
396.951171875 786 m 1xbc
 415.641601562 892 l 1
 521.641601562 892 l 1
 502.951171875 786 l 1
 396.951171875 786 l 1xbc
583.951171875 786 m 1
 602.641601562 892 l 1
 709.641601562 892 l 1
 690.951171875 786 l 1
 583.951171875 786 l 1
147.358398438 0 m 1
 84.55078125 710 l 1
 199.55078125 710 l 1
 238.630859375 149 l 1
 475.55078125 710 l 1
 585.55078125 710 l 1
 624.630859375 149 l 1x7c
 860.55078125 710 l 1
 977.55078125 710 l 1
 663.358398438 0 l 1
 537.358398438 0 l 1
 496.6953125 518 l 1
 273.358398438 0 l 1
 147.358398438 0 l 1
EndSplineSet
Validated: 524289
Substitution2: "'ss08' Style Set 8 in Latin lookup 41 subtable" Wdieresis.ss08
Substitution2: "'aalt' Access All Alternates in Latin lookup 0 subtable" Wdieresis.ss08
EndChar

StartChar: Wgrave
Encoding: 7808 7808 120
Width: 968
GlyphClass: 2
Flags: HMW
HStem: 0 21G<226 226 226 352 616 616 616 742> 0 149<226 291 291 291 291 352> 690 20G<38 153 153 153 429 539 539 539 814 931 931 931> 779 135<447 447 447 468 357 532>
VStem: 38 893<710 710>
AnchorPoint: "Anchor-3" 528.61 710 basechar 0
AnchorPoint: "Anchor-0" 403.419 0 basechar 0
LayerCount: 2
Fore
SplineSet
503.77734375 779 m 1xb8
 437.581054688 914 l 1
 548.581054688 914 l 1
 588.77734375 779 l 1
 503.77734375 779 l 1xb8
145.418945312 0 m 1
 82.6103515625 710 l 1
 197.610351562 710 l 1
 236.69140625 149 l 1
 473.610351562 710 l 1
 583.610351562 710 l 1
 622.69140625 149 l 1x78
 858.610351562 710 l 1
 975.610351562 710 l 1
 661.418945312 0 l 1
 535.418945312 0 l 1
 494.755859375 518 l 1
 271.418945312 0 l 1
 145.418945312 0 l 1
EndSplineSet
Validated: 524289
EndChar

StartChar: X
Encoding: 88 88 121
Width: 633
GlyphClass: 2
Flags: HMW
HStem: 0 21G<14 14 14 140 492 492 492 619> 690 20G<16 143 143 143 490 616 616 616>
VStem: 14 605<0 0>
AnchorPoint: "Anchor-3" 379.596 710 basechar 0
AnchorPoint: "Anchor-0" 254.404 0 basechar 0
LayerCount: 2
Fore
SplineSet
-48.595703125 0 m 1
 250.176757812 356 l 1
 78.595703125 710 l 1
 205.595703125 710 l 1
 332.98828125 440 l 1
 552.595703125 710 l 1
 678.595703125 710 l 1
 382.529296875 358 l 1
 556.404296875 0 l 1
 429.404296875 0 l 1
 301.717773438 274 l 1
 77.404296875 0 l 1
 -48.595703125 0 l 1
EndSplineSet
Validated: 524289
EndChar

StartChar: Y
Encoding: 89 89 122
Width: 594
GlyphClass: 2
Flags: HMW
HStem: 0 21G<243 243 243 351> 690 20G<-6 118 118 118 477 601 601 601>
VStem: 243 108<0 285 0 285>
AnchorPoint: "Anchor-3" 359.596 710 basechar 0
AnchorPoint: "Anchor-0" 234.404 0 basechar 0
LayerCount: 2
Fore
SplineSet
180.404296875 0 m 1
 230.657226562 285 l 1
 56.595703125 710 l 1
 180.595703125 710 l 1
 303.700195312 393 l 1
 539.595703125 710 l 1
 663.595703125 710 l 1
 338.657226562 285 l 1
 288.404296875 0 l 1
 180.404296875 0 l 1
EndSplineSet
Validated: 524289
EndChar

StartChar: Yacute
Encoding: 221 221 123
Width: 594
GlyphClass: 2
Flags: HMW
HStem: 0 21G<243 243 243 351> 690 20G<-6 118 118 118 477 601 601 601> 774 134<250 425 314 335>
VStem: 243 108<0 285 0 285>
AnchorPoint: "Anchor-3" 342.14 710 basechar 0
AnchorPoint: "Anchor-0" 216.947 0 basechar 0
LayerCount: 2
Fore
SplineSet
306.424804688 774 m 1
 394.052734375 908 l 1
 505.052734375 908 l 1
 391.424804688 774 l 1
 306.424804688 774 l 1
162.947265625 0 m 1
 213.201171875 285 l 1
 39.1396484375 710 l 1
 163.139648438 710 l 1
 286.244140625 393 l 1
 522.139648438 710 l 1
 646.139648438 710 l 1
 321.201171875 285 l 1
 270.947265625 0 l 1
 162.947265625 0 l 1
EndSplineSet
Validated: 524289
EndChar

StartChar: Ycircumflex
Encoding: 374 374 124
Width: 594
GlyphClass: 2
Flags: HMW
HStem: 0 21G<243 243 243 351> 690 20G<-6 118 118 118 477 601 601 601> 774 139<150 353 150 353 242 363 242 445>
VStem: 243 108<0 285 0 285>
AnchorPoint: "Anchor-3" 341.699 710 basechar 0
AnchorPoint: "Anchor-0" 216.507 0 basechar 0
LayerCount: 2
Fore
SplineSet
205.983398438 774 m 1
 322.493164062 913 l 1
 433.493164062 913 l 1
 500.983398438 774 l 1
 418.983398438 774 l 1
 368.676757812 863 l 1
 287.983398438 774 l 1
 205.983398438 774 l 1
162.506835938 0 m 1
 212.759765625 285 l 1
 38.69921875 710 l 1
 162.69921875 710 l 1
 285.803710938 393 l 1
 521.69921875 710 l 1
 645.69921875 710 l 1
 320.759765625 285 l 1
 270.506835938 0 l 1
 162.506835938 0 l 1
EndSplineSet
Validated: 524289
EndChar

StartChar: Ydieresis
Encoding: 376 376 125
Width: 594
GlyphClass: 2
Flags: HMW
HStem: 0 21G<243 243 243 351> 690 20G<-6 118 118 118 477 601 601 601> 786 106<150 257 150 257 338 444 150 338>
VStem: 150 107<786 892 786 892> 243 108<0 285 0 285> 338 106<786 892 786 892>
AnchorPoint: "Anchor-3" 343.551 710 basechar 0
AnchorPoint: "Anchor-0" 218.358 0 basechar 0
LayerCount: 2
Fore
SplineSet
209.951171875 786 m 1xf4
 228.641601562 892 l 1
 335.641601562 892 l 1
 316.951171875 786 l 1
 209.951171875 786 l 1xf4
397.951171875 786 m 1
 416.641601562 892 l 1
 522.641601562 892 l 1
 503.951171875 786 l 1
 397.951171875 786 l 1
164.358398438 0 m 1xe8
 214.611328125 285 l 1
 40.55078125 710 l 1
 164.55078125 710 l 1
 287.654296875 393 l 1
 523.55078125 710 l 1
 647.55078125 710 l 1
 322.611328125 285 l 1
 272.358398438 0 l 1
 164.358398438 0 l 1xe8
EndSplineSet
Validated: 524289
Substitution2: "'ss08' Style Set 8 in Latin lookup 41 subtable" Ydieresis.ss08
Substitution2: "'aalt' Access All Alternates in Latin lookup 0 subtable" Ydieresis.ss08
EndChar

StartChar: Ygrave
Encoding: 7922 7922 126
Width: 594
GlyphClass: 2
Flags: HMW
HStem: 0 21G<243 243 243 351> 690 20G<-6 118 118 118 477 601 601 601> 779 135<261 261 261 282 171 346>
VStem: 243 108<0 285 0 285>
AnchorPoint: "Anchor-3" 341.61 710 basechar 0
AnchorPoint: "Anchor-0" 216.419 0 basechar 0
LayerCount: 2
Fore
SplineSet
317.77734375 779 m 1
 251.581054688 914 l 1
 362.581054688 914 l 1
 402.77734375 779 l 1
 317.77734375 779 l 1
162.418945312 0 m 1
 212.671875 285 l 1
 38.6103515625 710 l 1
 162.610351562 710 l 1
 285.71484375 393 l 1
 521.610351562 710 l 1
 645.610351562 710 l 1
 320.671875 285 l 1
 270.418945312 0 l 1
 162.418945312 0 l 1
EndSplineSet
Validated: 524289
EndChar

StartChar: uni1EF8
Encoding: 7928 7928 127
Width: 594
GlyphClass: 2
Flags: HMW
HStem: 0 21G<243 243 243 351> 690 20G<-6 118 118 118 477 601 601 601> 785 67<351.5 370.5 351.5 386.5> 837 67<224.5 245>
VStem: 135 59<778 778> 243 108<0 285 0 285> 399 60<913 913>
AnchorPoint: "Anchor-3" 341.699 710 basechar 0
AnchorPoint: "Anchor-0" 216.507 0 basechar 0
LayerCount: 2
Fore
SplineSet
412.923828125 785 m 0xe6
 385.923828125 785 366.510742188 794 345.860351562 813 c 0
 328.858398438 830 321.092773438 837 303.092773438 837 c 0
 280.092773438 837 261.799804688 824 250.689453125 778 c 1
 191.689453125 778 l 1
 206.971679688 859 254.90625 904 313.90625 904 c 0xdc
 345.90625 904 365.966796875 893 386.616210938 874 c 0
 402.794921875 858 413.737304688 852 428.737304688 852 c 0
 451.737304688 852 468.029296875 865 479.493164062 913 c 1
 539.493164062 913 l 1
 522.38671875 833 475.923828125 785 412.923828125 785 c 0xe6
162.506835938 0 m 1
 212.759765625 285 l 1
 38.69921875 710 l 1
 162.69921875 710 l 1
 285.803710938 393 l 1
 521.69921875 710 l 1
 645.69921875 710 l 1
 320.759765625 285 l 1
 270.506835938 0 l 1
 162.506835938 0 l 1
EndSplineSet
Validated: 524289
EndChar

StartChar: Z
Encoding: 90 90 128
Width: 561
GlyphClass: 2
Flags: HMW
HStem: 0 99<154 533 154 533> 611 99<42 394 42 522>
VStem: 28 505<0 99 0 100 0 100>
AnchorPoint: "Anchor-3" 351.596 710 basechar 0
AnchorPoint: "Anchor-0" 226.404 0 basechar 0
LayerCount: 2
Fore
SplineSet
-34.595703125 0 m 1
 -16.9638671875 100 l 1
 439.139648438 611 l 1
 87.1396484375 611 l 1
 104.595703125 710 l 1
 584.595703125 710 l 1
 566.963867188 610 l 1
 108.860351562 99 l 1
 487.860351562 99 l 1
 470.404296875 0 l 1
 -34.595703125 0 l 1
EndSplineSet
Validated: 524289
EndChar

StartChar: Zacute
Encoding: 377 377 129
Width: 561
GlyphClass: 2
Flags: HMW
HStem: 0 99<154 533 154 533> 611 99<42 394 42 522> 774 134<241 416 305 326>
VStem: 28 505<0 99 0 100 0 100>
AnchorPoint: "Anchor-3" 334.14 710 basechar 0
AnchorPoint: "Anchor-0" 208.947 0 basechar 0
LayerCount: 2
Fore
SplineSet
297.424804688 774 m 1
 385.052734375 908 l 1
 496.052734375 908 l 1
 382.424804688 774 l 1
 297.424804688 774 l 1
-52.052734375 0 m 1
 -34.419921875 100 l 1
 421.68359375 611 l 1
 69.68359375 611 l 1
 87.1396484375 710 l 1
 567.139648438 710 l 1
 549.506835938 610 l 1
 91.404296875 99 l 1
 470.404296875 99 l 1
 452.947265625 0 l 1
 -52.052734375 0 l 1
EndSplineSet
Validated: 524289
EndChar

StartChar: Zcaron
Encoding: 381 381 130
Width: 561
GlyphClass: 2
Flags: HMW
HStem: 0 99<154 533 154 533> 611 99<42 394 42 522> 774 139<141 344 141 233>
VStem: 28 505<0 99 0 100 0 100>
AnchorPoint: "Anchor-3" 333.699 710 basechar 0
AnchorPoint: "Anchor-0" 208.507 0 basechar 0
LayerCount: 2
Fore
SplineSet
221.493164062 913 m 1
 303.493164062 913 l 1
 353.799804688 824 l 1
 434.493164062 913 l 1
 516.493164062 913 l 1
 399.983398438 774 l 1
 288.983398438 774 l 1
 221.493164062 913 l 1
-52.4931640625 0 m 1
 -34.8603515625 100 l 1
 421.2421875 611 l 1
 69.2421875 611 l 1
 86.69921875 710 l 1
 566.69921875 710 l 1
 549.06640625 610 l 1
 90.962890625 99 l 1
 469.962890625 99 l 1
 452.506835938 0 l 1
 -52.4931640625 0 l 1
EndSplineSet
Validated: 524289
EndChar

StartChar: Zdotaccent
Encoding: 379 379 131
Width: 561
GlyphClass: 2
Flags: HMW
HStem: 0 99<154 533 154 533> 611 99<42 394 42 522> 787 106<233 344 233 344>
VStem: 233 111<787 893 787 893>
AnchorPoint: "Anchor-3" 335.462 710 basechar 0
AnchorPoint: "Anchor-0" 210.27 0 basechar 0
LayerCount: 2
Fore
SplineSet
293.0390625 787 m 1
 311.73046875 893 l 1
 422.73046875 893 l 1
 404.0390625 787 l 1
 293.0390625 787 l 1
-50.73046875 0 m 1
 -33.09765625 100 l 1
 423.005859375 611 l 1
 71.005859375 611 l 1
 88.4619140625 710 l 1
 568.461914062 710 l 1
 550.829101562 610 l 1
 92.7265625 99 l 1
 471.7265625 99 l 1
 454.26953125 0 l 1
 -50.73046875 0 l 1
EndSplineSet
Validated: 524289
Substitution2: "'ss08' Style Set 8 in Latin lookup 41 subtable" Zdotaccent.ss08
Substitution2: "'aalt' Access All Alternates in Latin lookup 0 subtable" Zdotaccent.ss08
EndChar

StartChar: uniA78B
Encoding: 42891 42891 132
Width: 193
GlyphClass: 1
Flags: HMW
HStem: 690 20G<44 149 149 149>
VStem: 44 105<583 710 583 710>
LayerCount: 2
Fore
SplineSet
23.6435546875 343 m 1
 53.962890625 583 l 1
 76.3564453125 710 l 1
 181.356445312 710 l 1
 158.962890625 583 l 1
 103.643554688 343 l 1
 23.6435546875 343 l 1
EndSplineSet
Validated: 524289
EndChar

StartChar: uni013B.loclMAH
Encoding: 65538 -1 133
Width: 583
GlyphClass: 2
Flags: HMW
HStem: -150 98<258 294 258 368> 0 99<194 540 194 540> 690 20G<86 194 194 194>
VStem: 86 108<99 710 99 710 99 710> 258 110<-141 -52 -141 -52 -141 -52>
AnchorPoint: "Anchor-4" 426.722 532 basechar 0
AnchorPoint: "Anchor-3" 224.108 710 basechar 0
AnchorPoint: "Anchor-1" 202.92 380 basechar 0
AnchorPoint: "Anchor-0" 228.892 -244 basechar 0
LayerCount: 2
Fore
SplineSet
44.916015625 0 m 1
 170.108398438 710 l 1
 278.108398438 710 l 1
 170.372070312 99 l 1
 516.372070312 99 l 1
 498.916015625 0 l 1
 44.916015625 0 l 1
155.891601562 -244 m 1
 226.466796875 -150 l 1
 190.466796875 -150 l 1
 207.747070312 -52 l 1
 317.747070312 -52 l 1
 302.053710938 -141 l 1
 223.891601562 -244 l 1
 155.891601562 -244 l 1
EndSplineSet
Validated: 524289
EndChar

StartChar: uni0145.loclMAH
Encoding: 65539 -1 134
Width: 745
GlyphClass: 2
Flags: HMW
HStem: -150 98<315 351 315 425> 0 21G<86 86 86 194 517 517 517 659> 0 131<517 551 551 551 551 659> 566 144<194 194> 690 20G<86 223 223 223 551 659 659 659>
VStem: 86 108<0 566 0 710> 315 110<-141 -52 -141 -52 -141 -52> 551 108<131 710 0 710>
AnchorPoint: "Anchor-3" 468.108 710 basechar 0
AnchorPoint: "Anchor-0" 285.892 -244 basechar 0
LayerCount: 2
Fore
SplineSet
44.916015625 0 m 1xd7
 170.108398438 710 l 1
 307.108398438 710 l 1
 533.014648438 131 l 1xaf
 635.108398438 710 l 1
 743.108398438 710 l 1
 617.916015625 0 l 1
 475.916015625 0 l 1
 252.716796875 566 l 1
 152.916015625 0 l 1
 44.916015625 0 l 1xd7
212.891601562 -244 m 1
 283.466796875 -150 l 1
 247.466796875 -150 l 1
 264.747070312 -52 l 1
 374.747070312 -52 l 1
 359.053710938 -141 l 1
 280.891601562 -244 l 1
 212.891601562 -244 l 1
EndSplineSet
Validated: 524289
EndChar

StartChar: R.ss04
Encoding: 65540 -1 135
Width: 688
GlyphClass: 2
Flags: HMW
HStem: 0 21G<86 86 86 194 512 512 512 630> 278 98<194 348 348 357 194 348> 611 99<194 348 194 194>
VStem: 86 108<0 278 376 611> 497 112<455 531>
AnchorPoint: "Anchor-3" 397.596 710 basechar 0
AnchorPoint: "Anchor-0" 272.404 0 basechar 0
LayerCount: 2
Fore
SplineSet
23.404296875 0 m 1
 148.595703125 710 l 1
 413.595703125 710 l 2
 576.595703125 710 657.313476562 629 633.157226562 492 c 0
 616.052734375 395 552.357421875 323 453.419921875 295 c 1
 567.404296875 0 l 1
 449.404296875 0 l 1
 343.422851562 278 l 1
 180.422851562 278 l 1
 131.404296875 0 l 1
 23.404296875 0 l 1
197.703125 376 m 1
 351.703125 376 l 2
 446.703125 376 507.932617188 417 521.333007812 493 c 0
 534.734375 569 488.139648438 611 393.139648438 611 c 2
 239.139648438 611 l 1
 197.703125 376 l 1
EndSplineSet
Validated: 524321
EndChar

StartChar: Racute.ss04
Encoding: 65541 -1 136
Width: 688
GlyphClass: 2
Flags: HMW
HStem: 0 21G<86 86 86 194 512 512 512 630> 278 98<194 348 348 357 194 348> 611 99<194 348 194 194> 774 134<288 463 352 373>
VStem: 86 108<0 278 376 611> 497 112<455 531>
AnchorPoint: "Anchor-3" 380.14 710 basechar 0
AnchorPoint: "Anchor-0" 254.947 0 basechar 0
LayerCount: 2
Fore
SplineSet
344.424804688 774 m 1
 432.052734375 908 l 1
 543.052734375 908 l 1
 429.424804688 774 l 1
 344.424804688 774 l 1
5.947265625 0 m 1
 131.139648438 710 l 1
 396.139648438 710 l 2
 559.139648438 710 639.857421875 629 615.700195312 492 c 0
 598.596679688 395 534.901367188 323 435.963867188 295 c 1
 549.947265625 0 l 1
 431.947265625 0 l 1
 325.966796875 278 l 1
 162.966796875 278 l 1
 113.947265625 0 l 1
 5.947265625 0 l 1
180.24609375 376 m 1
 334.24609375 376 l 2
 429.24609375 376 490.475585938 417 503.876953125 493 c 0
 517.27734375 569 470.68359375 611 375.68359375 611 c 2
 221.68359375 611 l 1
 180.24609375 376 l 1
EndSplineSet
Validated: 524321
EndChar

StartChar: Rcaron.ss04
Encoding: 65542 -1 137
Width: 688
GlyphClass: 2
Flags: HMW
HStem: 0 21G<86 86 86 194 512 512 512 630> 278 98<194 348 348 357 194 348> 611 99<194 348 194 194> 774 139<188 391 188 280>
VStem: 86 108<0 278 376 611> 497 112<455 531>
AnchorPoint: "Anchor-3" 379.699 710 basechar 0
AnchorPoint: "Anchor-0" 254.507 0 basechar 0
LayerCount: 2
Fore
SplineSet
268.493164062 913 m 1
 350.493164062 913 l 1
 399.799804688 824 l 1
 481.493164062 913 l 1
 563.493164062 913 l 1
 446.983398438 774 l 1
 335.983398438 774 l 1
 268.493164062 913 l 1
5.5068359375 0 m 1
 130.69921875 710 l 1
 395.69921875 710 l 2
 558.69921875 710 639.416015625 629 615.259765625 492 c 0
 598.15625 395 534.459960938 323 435.5234375 295 c 1
 549.506835938 0 l 1
 431.506835938 0 l 1
 325.525390625 278 l 1
 162.525390625 278 l 1
 113.506835938 0 l 1
 5.5068359375 0 l 1
179.805664062 376 m 1
 333.805664062 376 l 2
 428.805664062 376 490.03515625 417 503.435546875 493 c 0
 516.836914062 569 470.2421875 611 375.2421875 611 c 2
 221.2421875 611 l 1
 179.805664062 376 l 1
EndSplineSet
Validated: 524321
EndChar

StartChar: uni0156.ss04
Encoding: 65543 -1 138
Width: 688
GlyphClass: 2
Flags: HMW
HStem: -150 98<280 316 280 390> 0 21G<86 86 86 194 512 512 512 630> 278 98<194 348 348 357 194 348> 611 99<194 348 194 194>
VStem: 86 108<0 278 376 611> 280 110<-141 -52 -141 -52 -141 -52> 497 112<455 531>
AnchorPoint: "Anchor-3" 419.108 710 basechar 0
AnchorPoint: "Anchor-0" 250.892 -244 basechar 0
LayerCount: 2
Fore
SplineSet
44.916015625 0 m 1
 170.108398438 710 l 1
 435.108398438 710 l 2
 598.108398438 710 678.825195312 629 654.668945312 492 c 0
 637.565429688 395 573.869140625 323 474.932617188 295 c 1
 588.916015625 0 l 1
 470.916015625 0 l 1
 364.934570312 278 l 1
 201.934570312 278 l 1
 152.916015625 0 l 1
 44.916015625 0 l 1
219.21484375 376 m 1
 373.21484375 376 l 2
 468.21484375 376 529.444335938 417 542.844726562 493 c 0
 556.24609375 569 509.651367188 611 414.651367188 611 c 2
 260.651367188 611 l 1
 219.21484375 376 l 1
177.891601562 -244 m 1
 248.466796875 -150 l 1
 212.466796875 -150 l 1
 229.747070312 -52 l 1
 339.747070312 -52 l 1
 324.053710938 -141 l 1
 245.891601562 -244 l 1
 177.891601562 -244 l 1
EndSplineSet
Validated: 524321
EndChar

StartChar: I.ss05
Encoding: 65544 -1 139
Width: 441
GlyphClass: 2
Flags: HMW
HStem: 0 99<44 167 44 167 275 397> 611 99<50 167 50 391 275 275 275 391>
VStem: 167 108<99 611 99 611>
AnchorPoint: "Anchor-3" 283.596 710 basechar 0
AnchorPoint: "Anchor-2" 334.404 0 basechar 0
AnchorPoint: "Anchor-0" 158.404 0 basechar 0
LayerCount: 2
Fore
SplineSet
-18.595703125 0 m 1
 -1.1396484375 99 l 1
 121.860351562 99 l 1
 212.139648438 611 l 1
 95.1396484375 611 l 1
 112.595703125 710 l 1
 453.595703125 710 l 1
 436.139648438 611 l 1
 320.139648438 611 l 1
 229.860351562 99 l 1
 351.860351562 99 l 1
 334.404296875 0 l 1
 -18.595703125 0 l 1
EndSplineSet
Validated: 524289
EndChar

StartChar: Iacute.ss05
Encoding: 65545 -1 140
Width: 441
GlyphClass: 2
Flags: HMW
HStem: 0 99<44 167 44 167 275 397> 611 99<50 167 50 391 275 275 275 391> 774 134<173 348 237 258>
VStem: 167 108<99 611 99 611>
AnchorPoint: "Anchor-3" 266.14 710 basechar 0
AnchorPoint: "Anchor-2" 316.947 0 basechar 0
AnchorPoint: "Anchor-0" 140.947 0 basechar 0
LayerCount: 2
Fore
SplineSet
229.424804688 774 m 1
 317.052734375 908 l 1
 428.052734375 908 l 1
 314.424804688 774 l 1
 229.424804688 774 l 1
-36.052734375 0 m 1
 -18.595703125 99 l 1
 104.404296875 99 l 1
 194.68359375 611 l 1
 77.68359375 611 l 1
 95.1396484375 710 l 1
 436.139648438 710 l 1
 418.68359375 611 l 1
 302.68359375 611 l 1
 212.404296875 99 l 1
 334.404296875 99 l 1
 316.947265625 0 l 1
 -36.052734375 0 l 1
EndSplineSet
Validated: 524289
EndChar

StartChar: Icircumflex.ss05
Encoding: 65546 -1 141
Width: 441
GlyphClass: 2
Flags: HMW
HStem: 0 99<44 167 44 167 275 397> 611 99<50 167 50 391 275 275 275 391> 774 139<73 276 73 276 165 286 165 368>
VStem: 167 108<99 611 99 611>
AnchorPoint: "Anchor-3" 265.699 710 basechar 0
AnchorPoint: "Anchor-2" 316.507 0 basechar 0
AnchorPoint: "Anchor-0" 140.507 0 basechar 0
LayerCount: 2
Fore
SplineSet
128.983398438 774 m 1
 245.493164062 913 l 1
 356.493164062 913 l 1
 423.983398438 774 l 1
 341.983398438 774 l 1
 292.676757812 863 l 1
 210.983398438 774 l 1
 128.983398438 774 l 1
-36.4931640625 0 m 1
 -19.037109375 99 l 1
 103.962890625 99 l 1
 194.2421875 611 l 1
 77.2421875 611 l 1
 94.69921875 710 l 1
 435.69921875 710 l 1
 418.2421875 611 l 1
 302.2421875 611 l 1
 211.962890625 99 l 1
 333.962890625 99 l 1
 316.506835938 0 l 1
 -36.4931640625 0 l 1
EndSplineSet
Validated: 524289
EndChar

StartChar: Idieresis.ss05
Encoding: 65547 -1 142
Width: 441
GlyphClass: 2
Flags: HMW
HStem: 0 99<44 167 44 167 275 397> 611 99<50 167 50 391 275 275 275 391> 786 106<74 180 74 180 261 368 74 261>
VStem: 74 106<786 892 786 892> 167 108<99 611 99 611> 261 107<786 892 786 892>
AnchorPoint: "Anchor-3" 267.551 710 basechar 0
AnchorPoint: "Anchor-2" 318.358 0 basechar 0
AnchorPoint: "Anchor-0" 142.358 0 basechar 0
LayerCount: 2
Fore
SplineSet
133.951171875 786 m 1xf4
 152.641601562 892 l 1
 258.641601562 892 l 1
 239.951171875 786 l 1
 133.951171875 786 l 1xf4
320.951171875 786 m 1
 339.641601562 892 l 1
 446.641601562 892 l 1
 427.951171875 786 l 1
 320.951171875 786 l 1
-34.6416015625 0 m 1
 -17.185546875 99 l 1
 105.814453125 99 l 1
 196.09375 611 l 1
 79.09375 611 l 1
 96.55078125 710 l 1
 437.55078125 710 l 1
 420.09375 611 l 1
 304.09375 611 l 1
 213.814453125 99 l 1xe8
 335.814453125 99 l 1
 318.358398438 0 l 1
 -34.6416015625 0 l 1
EndSplineSet
Validated: 524289
Substitution2: "'ss08' Style Set 8 in Latin lookup 41 subtable" Idieresis.ss05.ss08
Substitution2: "'aalt' Access All Alternates in Latin lookup 0 subtable" Idieresis.ss05.ss08
EndChar

StartChar: Idotaccent.ss05
Encoding: 65548 -1 143
Width: 441
GlyphClass: 2
Flags: HMW
HStem: 0 99<44 167 44 167 275 397> 611 99<50 167 50 391 275 275 275 391> 787 106<165 276 165 276>
VStem: 165 111<787 893 787 893> 167 108<99 611 99 611>
AnchorPoint: "Anchor-3" 267.462 710 basechar 0
AnchorPoint: "Anchor-2" 318.27 0 basechar 0
AnchorPoint: "Anchor-0" 142.27 0 basechar 0
LayerCount: 2
Fore
SplineSet
225.0390625 787 m 1xf0
 243.73046875 893 l 1
 354.73046875 893 l 1
 336.0390625 787 l 1
 225.0390625 787 l 1xf0
-34.73046875 0 m 1
 -17.2734375 99 l 1
 105.7265625 99 l 1
 196.005859375 611 l 1
 79.005859375 611 l 1
 96.4619140625 710 l 1
 437.461914062 710 l 1
 420.005859375 611 l 1
 304.005859375 611 l 1
 213.7265625 99 l 1xe8
 335.7265625 99 l 1
 318.26953125 0 l 1
 -34.73046875 0 l 1
EndSplineSet
Validated: 524289
Substitution2: "'ss08' Style Set 8 in Latin lookup 41 subtable" Idotaccent.ss05.ss08
Substitution2: "'aalt' Access All Alternates in Latin lookup 0 subtable" Idotaccent.ss05.ss08
EndChar

StartChar: Igrave.ss05
Encoding: 65549 -1 144
Width: 441
GlyphClass: 2
Flags: HMW
HStem: 0 99<44 167 44 167 275 397> 611 99<50 167 50 391 275 275 275 391> 779 135<184 184 184 205 94 269>
VStem: 167 108<99 611 99 611>
AnchorPoint: "Anchor-3" 265.61 710 basechar 0
AnchorPoint: "Anchor-2" 316.419 0 basechar 0
AnchorPoint: "Anchor-0" 140.419 0 basechar 0
LayerCount: 2
Fore
SplineSet
240.77734375 779 m 1
 174.581054688 914 l 1
 285.581054688 914 l 1
 325.77734375 779 l 1
 240.77734375 779 l 1
-36.5810546875 0 m 1
 -19.125 99 l 1
 103.875 99 l 1
 194.154296875 611 l 1
 77.154296875 611 l 1
 94.6103515625 710 l 1
 435.610351562 710 l 1
 418.154296875 611 l 1
 302.154296875 611 l 1
 211.875 99 l 1
 333.875 99 l 1
 316.418945312 0 l 1
 -36.5810546875 0 l 1
EndSplineSet
Validated: 524289
EndChar

StartChar: Imacron.ss05
Encoding: 65550 -1 145
Width: 441
GlyphClass: 2
Flags: HMW
HStem: 0 99<44 167 44 167 275 397> 611 99<50 167 50 391 275 275 275 391> 797 85<81 360 81 360>
VStem: 81 279<797 882 797 882> 167 108<99 611 99 611>
AnchorPoint: "Anchor-3" 268.432 710 basechar 0
AnchorPoint: "Anchor-2" 319.24 0 basechar 0
AnchorPoint: "Anchor-0" 143.24 0 basechar 0
LayerCount: 2
Fore
SplineSet
143.772460938 797 m 1xf0
 158.759765625 882 l 1
 437.759765625 882 l 1
 422.772460938 797 l 1
 143.772460938 797 l 1xf0
-33.759765625 0 m 1
 -16.3037109375 99 l 1
 106.696289062 99 l 1
 196.975585938 611 l 1
 79.9755859375 611 l 1
 97.431640625 710 l 1
 438.431640625 710 l 1
 420.975585938 611 l 1
 304.975585938 611 l 1
 214.696289062 99 l 1xe8
 336.696289062 99 l 1
 319.240234375 0 l 1
 -33.759765625 0 l 1
EndSplineSet
Validated: 524289
EndChar

StartChar: Iogonek.ss05
Encoding: 65551 -1 146
Width: 441
GlyphClass: 2
Flags: HMW
HStem: -212 75<353 359> 0 99<44 167 44 167 275 311> 611 99<50 167 50 391 275 275 275 391>
VStem: 167 108<99 611 99 611> 240 93<-120 -117.5>
AnchorPoint: "Anchor-3" 302.287 710 basechar 0
AnchorPoint: "Anchor-2" 353.095 0 basechar 0
AnchorPoint: "Anchor-0" 177.095 0 basechar 0
LayerCount: 2
Fore
SplineSet
0.0947265625 0 m 1xe8
 17.55078125 99 l 1
 140.55078125 99 l 1
 230.830078125 611 l 1
 113.830078125 611 l 1
 131.287109375 710 l 1
 472.287109375 710 l 1
 454.830078125 611 l 1
 338.830078125 611 l 1
 248.55078125 99 l 1x70
 370.55078125 99 l 1
 353.094726562 0 l 1
 312.16015625 -45 l 2
 283.517578125 -77 272.34375 -95 269.345703125 -112 c 0
 266.524414062 -128 276.9375 -137 292.9375 -137 c 0
 310.9375 -137 328.819335938 -132 342.23046875 -124 c 1
 356.297851562 -186 l 1
 337.653320312 -201 296.712890625 -212 258.712890625 -212 c 0
 196.712890625 -212 163.297851562 -186 171.9375 -137 c 0
 178.814453125 -98 215.043945312 -57 247.391601562 -21 c 2
 267.094726562 0 l 1
 0.0947265625 0 l 1xe8
EndSplineSet
Validated: 524321
EndChar

StartChar: Itilde.ss05
Encoding: 65552 -1 147
Width: 441
GlyphClass: 2
Flags: HMW
HStem: 0 99<44 167 44 167 275 397> 611 99<50 167 50 391 275 275 275 391> 785 67<274.5 294 274.5 310> 837 67<148 168>
VStem: 50 68 58 60<778 778> 167 108<99 611 99 611> 323 59<913 913>
AnchorPoint: "Anchor-3" 265.699 710 basechar 0
AnchorPoint: "Anchor-2" 316.507 0 basechar 0
AnchorPoint: "Anchor-0" 140.507 0 basechar 0
LayerCount: 2
Fore
SplineSet
336.923828125 785 m 0xe3
 308.923828125 785 289.510742188 794 269.860351562 813 c 0
 251.858398438 830 244.092773438 837 226.092773438 837 c 0
 204.092773438 837 184.799804688 824 174.689453125 778 c 1
 114.689453125 778 l 1
 130.971679688 859 177.90625 904 236.90625 904 c 0xd6
 268.90625 904 288.966796875 893 309.616210938 874 c 0
 325.794921875 858 336.737304688 852 351.737304688 852 c 0
 375.737304688 852 391.029296875 865 403.493164062 913 c 1
 462.493164062 913 l 1
 445.38671875 833 398.923828125 785 336.923828125 785 c 0xe3
-36.4931640625 0 m 1
 -19.037109375 99 l 1
 103.962890625 99 l 1
 194.2421875 611 l 1
 77.2421875 611 l 1
 94.69921875 710 l 1xca
 435.69921875 710 l 1
 418.2421875 611 l 1
 302.2421875 611 l 1
 211.962890625 99 l 1
 333.962890625 99 l 1
 316.506835938 0 l 1
 -36.4931640625 0 l 1
EndSplineSet
Validated: 524289
EndChar

StartChar: G.ss06
Encoding: 65553 -1 148
Width: 703
GlyphClass: 2
Flags: HMW
HStem: -16 99<294.5 428.5 294.5 462> 271 91<371 561 371 664> 627 99<295 427>
VStem: 44 112<276 428.5 276 458> 561 103<271 271>
AnchorPoint: "Anchor-3" 432.596 710 basechar 0
AnchorPoint: "Anchor-0" 310.404 0 basechar 0
LayerCount: 2
Fore
SplineSet
302.583007812 -16 m 0
 90.5830078125 -16 7.1474609375 146 43.8232421875 354 c 0
 80.5 562 227.416992188 726 437.416992188 726 c 0
 602.416992188 726 682.842773438 632 685.275390625 487 c 1
 571.216796875 481 l 1
 570.028320312 565 530.9609375 627 418.9609375 627 c 0
 266.9609375 627 182.096679688 503 155.823242188 354 c 0
 128.31640625 198 174.0390625 83 319.0390625 83 c 0
 442.0390625 83 522.321289062 164 546.188476562 271 c 1
 356.188476562 271 l 1
 372.234375 362 l 1
 665.234375 362 l 1
 657.65234375 319 l 2
 619.91796875 105 490.583007812 -16 302.583007812 -16 c 0
EndSplineSet
Validated: 524321
EndChar

StartChar: Gbreve.ss06
Encoding: 65554 -1 149
Width: 703
GlyphClass: 2
Flags: HMW
HStem: -16 99<294.5 428.5 294.5 462> 271 91<371 561 371 664> 627 99<295 427> 777 69<348 392 348 413>
VStem: 44 112<276 428.5 276 458> 561 103<271 271>
AnchorPoint: "Anchor-3" 416.197 710 basechar 0
AnchorPoint: "Anchor-0" 294.006 0 basechar 0
LayerCount: 2
Fore
SplineSet
428.01171875 777 m 0
 343.01171875 777 296.00390625 828 306.815429688 912 c 1
 373.815429688 912 l 1
 371.705078125 866 396.177734375 846 440.177734375 846 c 0
 484.177734375 846 515.705078125 866 529.815429688 912 c 1
 596.815429688 912 l 1
 578.00390625 828 514.01171875 777 428.01171875 777 c 0
286.184570312 -16 m 0
 74.1845703125 -16 -9.2509765625 146 27.4248046875 354 c 0
 64.1015625 562 211.018554688 726 421.018554688 726 c 0
 586.018554688 726 666.444335938 632 668.876953125 487 c 1
 554.818359375 481 l 1
 553.629882812 565 514.5625 627 402.5625 627 c 0
 250.5625 627 165.698242188 503 139.424804688 354 c 0
 111.91796875 198 157.640625 83 302.640625 83 c 0
 425.640625 83 505.922851562 164 529.790039062 271 c 1
 339.790039062 271 l 1
 355.8359375 362 l 1
 648.8359375 362 l 1
 641.25390625 319 l 2
 603.51953125 105 474.184570312 -16 286.184570312 -16 c 0
EndSplineSet
Validated: 524321
EndChar

StartChar: Gcircumflex.ss06
Encoding: 65555 -1 150
Width: 703
GlyphClass: 2
Flags: HMW
HStem: -16 99<294.5 428.5 294.5 462> 271 91<371 561 371 664> 627 99<295 427> 774 139<223 426 223 426 315 436 315 518>
VStem: 44 112<276 428.5 276 458> 561 103<271 271>
AnchorPoint: "Anchor-3" 416.109 710 basechar 0
AnchorPoint: "Anchor-0" 293.917 0 basechar 0
LayerCount: 2
Fore
SplineSet
280.39453125 774 m 1
 396.904296875 913 l 1
 507.904296875 913 l 1
 575.39453125 774 l 1
 493.39453125 774 l 1
 443.087890625 863 l 1
 362.39453125 774 l 1
 280.39453125 774 l 1
286.095703125 -16 m 0
 74.095703125 -16 -9.3388671875 146 27.3369140625 354 c 0
 64.0126953125 562 210.930664062 726 420.930664062 726 c 0
 585.930664062 726 666.356445312 632 668.7890625 487 c 1
 554.73046875 481 l 1
 553.541992188 565 514.474609375 627 402.474609375 627 c 0
 250.474609375 627 165.609375 503 139.336914062 354 c 0
 111.830078125 198 157.552734375 83 302.552734375 83 c 0
 425.552734375 83 505.834960938 164 529.702148438 271 c 1
 339.702148438 271 l 1
 355.748046875 362 l 1
 648.748046875 362 l 1
 641.166015625 319 l 2
 603.431640625 105 474.095703125 -16 286.095703125 -16 c 0
EndSplineSet
Validated: 524321
EndChar

StartChar: uni0122.ss06
Encoding: 65556 -1 151
Width: 703
GlyphClass: 2
Flags: HMW
HStem: -150 98<318 353 318 428> -16 99<294.5 428.5 294.5 462> 271 91<371 561 371 664> 627 99<295 427>
VStem: 44 112<276 428.5 276 458> 318 110<-141 -52 -141 -52 -141 -52> 561 103<271 271>
AnchorPoint: "Anchor-3" 452.697 710 basechar 0
AnchorPoint: "Anchor-0" 287.481 -244 basechar 0
LayerCount: 2
Fore
SplineSet
322.68359375 -16 m 0
 110.68359375 -16 27.2490234375 146 63.9248046875 354 c 0
 100.600585938 562 247.518554688 726 457.518554688 726 c 0
 622.518554688 726 702.944335938 632 705.375976562 487 c 1
 591.318359375 481 l 1
 590.129882812 565 551.0625 627 439.0625 627 c 0
 287.0625 627 202.197265625 503 175.924804688 354 c 0
 148.41796875 198 194.140625 83 339.140625 83 c 0
 462.140625 83 542.422851562 164 566.290039062 271 c 1
 376.290039062 271 l 1
 392.3359375 362 l 1
 685.3359375 362 l 1
 677.75390625 319 l 2
 640.01953125 105 510.68359375 -16 322.68359375 -16 c 0
213.481445312 -244 m 1
 284.055664062 -150 l 1
 249.055664062 -150 l 1
 266.3359375 -52 l 1
 376.3359375 -52 l 1
 360.643554688 -141 l 1
 281.481445312 -244 l 1
 213.481445312 -244 l 1
EndSplineSet
Validated: 524321
EndChar

StartChar: Gdotaccent.ss06
Encoding: 65557 -1 152
Width: 703
GlyphClass: 2
Flags: HMW
HStem: -16 99<294.5 428.5 294.5 462> 271 91<371 561 371 664> 627 99<295 427> 787 106<315 426 315 426>
VStem: 44 112<276 428.5 276 458> 315 111<787 893 787 893> 561 103<271 271>
AnchorPoint: "Anchor-3" 417.873 710 basechar 0
AnchorPoint: "Anchor-0" 295.681 0 basechar 0
LayerCount: 2
Fore
SplineSet
376.450195312 787 m 1
 395.140625 893 l 1
 506.140625 893 l 1
 487.450195312 787 l 1
 376.450195312 787 l 1
287.859375 -16 m 0
 75.859375 -16 -7.5751953125 146 29.1005859375 354 c 0
 65.7763671875 562 212.694335938 726 422.694335938 726 c 0
 587.694335938 726 668.119140625 632 670.551757812 487 c 1
 556.494140625 481 l 1
 555.305664062 565 516.237304688 627 404.237304688 627 c 0
 252.237304688 627 167.373046875 503 141.100585938 354 c 0
 113.59375 198 159.315429688 83 304.315429688 83 c 0
 427.315429688 83 507.598632812 164 531.46484375 271 c 1
 341.46484375 271 l 1
 357.510742188 362 l 1
 650.510742188 362 l 1
 642.928710938 319 l 2
 605.1953125 105 475.859375 -16 287.859375 -16 c 0
EndSplineSet
Validated: 524321
Substitution2: "'ss08' Style Set 8 in Latin lookup 41 subtable" Gdotaccent.ss06.ss08
Substitution2: "'aalt' Access All Alternates in Latin lookup 0 subtable" Gdotaccent.ss06.ss08
EndChar

StartChar: uni1E20.ss06
Encoding: 65558 -1 153
Width: 703
GlyphClass: 2
Flags: HMW
HStem: -16 99<294.5 428.5 294.5 462> 271 91<371 561 371 664> 627 99<295 427> 797 85<231 510 231 510>
VStem: 44 112<276 428.5 276 458> 231 279<797 882 797 882> 561 103<271 271>
AnchorPoint: "Anchor-3" 418.843 710 basechar 0
AnchorPoint: "Anchor-0" 296.65 0 basechar 0
LayerCount: 2
Fore
SplineSet
295.182617188 797 m 1
 310.170898438 882 l 1
 589.170898438 882 l 1
 574.182617188 797 l 1
 295.182617188 797 l 1
288.829101562 -16 m 0
 76.8291015625 -16 -6.60546875 146 30.0703125 354 c 0
 66.74609375 562 213.6640625 726 423.6640625 726 c 0
 588.6640625 726 669.088867188 632 671.521484375 487 c 1
 557.463867188 481 l 1
 556.275390625 565 517.20703125 627 405.20703125 627 c 0
 253.20703125 627 168.342773438 503 142.0703125 354 c 0
 114.563476562 198 160.28515625 83 305.28515625 83 c 0
 428.28515625 83 508.568359375 164 532.434570312 271 c 1
 342.434570312 271 l 1
 358.48046875 362 l 1
 651.48046875 362 l 1
 643.8984375 319 l 2
 606.165039062 105 476.829101562 -16 288.829101562 -16 c 0
EndSplineSet
Validated: 524321
EndChar

StartChar: Adieresis.ss08
Encoding: 65559 -1 154
Width: 689
GlyphClass: 2
Flags: HMW
HStem: 0 21G<20 20 20 135 554 554 554 669> 185 98<233 456 233 489 199 456> 607 103<344 344> 690 20G<276 413 413 413> 782 114<232.5 266 422.5 456>
VStem: 193 113<821 856> 383 113<821 856>
AnchorPoint: "Anchor-3" 390.197 710 basechar 0
AnchorPoint: "Anchor-2" 590.006 0 basechar 0
AnchorPoint: "Anchor-0" 265.006 0 basechar 0
LayerCount: 2
Fore
SplineSet
307.893554688 782 m 0xde
 274.893554688 782 255.595703125 803 261.944335938 839 c 0
 267.939453125 873 294.994140625 896 327.994140625 896 c 0
 361.994140625 896 380.939453125 873 374.944335938 839 c 0
 368.595703125 803 341.893554688 782 307.893554688 782 c 0xde
497.893554688 782 m 0
 464.893554688 782 445.595703125 803 451.944335938 839 c 0
 457.939453125 873 484.994140625 896 517.994140625 896 c 0
 551.994140625 896 570.939453125 873 564.944335938 839 c 0
 558.595703125 803 531.893554688 782 497.893554688 782 c 0
-58.994140625 0 m 1
 322.197265625 710 l 1
 459.197265625 710 l 1
 590.005859375 0 l 1
 475.005859375 0 l 1
 442.625976562 185 l 1
 152.625976562 185 l 1
 56.005859375 0 l 1
 -58.994140625 0 l 1
203.90625 283 m 1
 426.90625 283 l 1
 372.036132812 607 l 1xee
 203.90625 283 l 1
EndSplineSet
Validated: 524321
EndChar

StartChar: Cdotaccent.ss08
Encoding: 65560 -1 155
Width: 713
GlyphClass: 2
Flags: HMW
HStem: -16 99<304.5 425.5 304.5 455.5> 627 99<304.5 423> 782 114<351 384.5>
VStem: 44 112<269 438.5 269 468.5> 311 114<821 856>
AnchorPoint: "Anchor-3" 414.608 710 basechar 0
AnchorPoint: "Anchor-0" 292.416 0 basechar 0
LayerCount: 2
Fore
SplineSet
428.303710938 782 m 0
 394.303710938 782 375.006835938 803 381.354492188 839 c 0
 387.349609375 873 414.405273438 896 448.405273438 896 c 0
 481.405273438 896 501.349609375 873 495.354492188 839 c 0
 489.006835938 803 461.303710938 782 428.303710938 782 c 0
287.594726562 -16 m 0
 95.5947265625 -16 -11.8955078125 123 28.8359375 354 c 0
 69.21484375 583 224.4296875 726 419.4296875 726 c 0
 595.4296875 726 672.854492188 632 675.524414062 477 c 1
 561.465820312 471 l 1
 559.5703125 568 509.973632812 627 401.973632812 627 c 0
 272.973632812 627 170.634765625 523 140.8359375 354 c 0
 110.860351562 184 178.05078125 83 305.05078125 83 c 0
 420.05078125 83 492.512695312 148 528.203125 254 c 1
 640.145507812 248 l 1
 584.756835938 87 462.594726562 -16 287.594726562 -16 c 0
EndSplineSet
Validated: 524321
EndChar

StartChar: Edieresis.ss08
Encoding: 65561 -1 156
Width: 609
GlyphClass: 2
Flags: HMW
HStem: 0 99<194 556 194 556> 308 96<194 536 194 536> 611 99<194 548 194 194> 782 114<207 240.5 397 430.5>
VStem: 86 108<99 308 404 611> 167 113<821 856> 357 113<821 856>
AnchorPoint: "Anchor-3" 365.197 710 basechar 0
AnchorPoint: "Anchor-2" 477.006 0 basechar 0
AnchorPoint: "Anchor-0" 241.006 0 basechar 0
LayerCount: 2
Fore
SplineSet
282.893554688 782 m 0xf6
 248.893554688 782 229.595703125 803 235.944335938 839 c 0
 241.939453125 873 268.994140625 896 302.994140625 896 c 0
 335.994140625 896 354.939453125 873 348.944335938 839 c 0
 342.595703125 803 315.893554688 782 282.893554688 782 c 0xf6
472.893554688 782 m 0
 438.893554688 782 419.595703125 803 425.944335938 839 c 0
 431.939453125 873 458.994140625 896 492.994140625 896 c 0
 525.994140625 896 544.939453125 873 538.944335938 839 c 0
 532.595703125 803 505.893554688 782 472.893554688 782 c 0
7.005859375 0 m 1xe8
 132.197265625 710 l 1
 594.197265625 710 l 1
 576.741210938 611 l 1
 222.741210938 611 l 1
 186.241210938 404 l 1
 528.241210938 404 l 1
 511.314453125 308 l 1
 169.314453125 308 l 1
 132.461914062 99 l 1
 494.461914062 99 l 1
 477.005859375 0 l 1
 7.005859375 0 l 1xe8
EndSplineSet
Validated: 524321
EndChar

StartChar: Edotaccent.ss08
Encoding: 65562 -1 157
Width: 609
GlyphClass: 2
Flags: HMW
HStem: 0 99<194 556 194 556> 308 96<194 536 194 536> 611 99<194 548 194 194> 782 114<302.5 336>
VStem: 86 108<99 308 404 611> 262 115<821 856>
AnchorPoint: "Anchor-3" 365.197 710 basechar 0
AnchorPoint: "Anchor-2" 477.006 0 basechar 0
AnchorPoint: "Anchor-0" 241.006 0 basechar 0
LayerCount: 2
Fore
SplineSet
377.893554688 782 m 0
 344.893554688 782 324.595703125 803 330.944335938 839 c 0
 336.939453125 873 364.994140625 896 397.994140625 896 c 0
 431.994140625 896 451.939453125 873 445.944335938 839 c 0
 439.595703125 803 411.893554688 782 377.893554688 782 c 0
7.005859375 0 m 1
 132.197265625 710 l 1
 594.197265625 710 l 1
 576.741210938 611 l 1
 222.741210938 611 l 1
 186.241210938 404 l 1
 528.241210938 404 l 1
 511.314453125 308 l 1
 169.314453125 308 l 1
 132.461914062 99 l 1
 494.461914062 99 l 1
 477.005859375 0 l 1
 7.005859375 0 l 1
EndSplineSet
Validated: 524321
EndChar

StartChar: Gdotaccent.ss08
Encoding: 65563 -1 158
Width: 713
GlyphClass: 2
Flags: HMW
HStem: -16 99<296 414> 0 21G<590 664 590 590> 271 91<371 561 371 664> 627 99<295 425> 782 114<353.5 387>
VStem: 44 112<276.5 428.5 276.5 460.5> 313 114<821 856> 561 103<271 271> 587.5 76.5
AnchorPoint: "Anchor-3" 416.608 710 basechar 0
AnchorPoint: "Anchor-0" 294.416 0 basechar 0
LayerCount: 2
Fore
SplineSet
430.303710938 782 m 0xbe80
 397.303710938 782 377.006835938 803 383.354492188 839 c 0
 389.349609375 873 417.405273438 896 450.405273438 896 c 0
 484.405273438 896 503.349609375 873 497.354492188 839 c 0
 491.006835938 803 464.303710938 782 430.303710938 782 c 0xbe80
284.594726562 -16 m 0
 82.5947265625 -16 -9.2509765625 138 28.8359375 354 c 0
 66.3935546875 567 215.4296875 726 419.4296875 726 c 0
 594.4296875 726 666.620117188 625 670.287109375 487 c 1
 556.229492188 481 l 1
 554.5703125 568 513.973632812 627 401.973632812 627 c 0
 253.973632812 627 167.108398438 503 140.8359375 354 c 0
 113.504882812 199 159.05078125 83 307.05078125 83 c 0
 423.05078125 83 508.862304688 167 531.201171875 271 c 1xb5
 341.201171875 271 l 1
 357.24609375 362 l 1
 650.24609375 362 l 1
 586.416015625 0 l 1
 512.416015625 0 l 1x7480
 527.340820312 113 l 1
 478.763671875 36 382.594726562 -16 284.594726562 -16 c 0
EndSplineSet
Validated: 524321
EndChar

StartChar: Idieresis.ss08
Encoding: 65564 -1 159
Width: 280
GlyphClass: 2
Flags: HMW
HStem: 0 21G<86 86 86 194> 690 20G<86 194 194 194> 782 114<28 62 218 252>
VStem: -11 112<821 856> 86 108<0 710 0 710> 179 112<821 856>
AnchorPoint: "Anchor-3" 186.197 710 basechar 0
AnchorPoint: "Anchor-2" 115.006 0 basechar 0
AnchorPoint: "Anchor-0" 61.0059 0 basechar 0
LayerCount: 2
Fore
SplineSet
103.893554688 782 m 0xf4
 69.8935546875 782 51.595703125 803 57.9443359375 839 c 0
 63.939453125 873 89.994140625 896 123.994140625 896 c 0
 157.994140625 896 175.939453125 873 169.944335938 839 c 0
 163.595703125 803 137.893554688 782 103.893554688 782 c 0xf4
293.893554688 782 m 0
 259.893554688 782 241.595703125 803 247.944335938 839 c 0
 253.939453125 873 279.994140625 896 313.994140625 896 c 0
 347.994140625 896 365.939453125 873 359.944335938 839 c 0
 353.595703125 803 327.893554688 782 293.893554688 782 c 0
7.005859375 0 m 1xe8
 132.197265625 710 l 1
 240.197265625 710 l 1
 115.005859375 0 l 1
 7.005859375 0 l 1xe8
EndSplineSet
Validated: 524321
EndChar

StartChar: Idotaccent.ss08
Encoding: 65565 -1 160
Width: 280
GlyphClass: 2
Flags: HMW
HStem: 0 21G<86 86 86 194> 690 20G<86 194 194 194> 782 114<124 157.5>
VStem: 84 114<821 856> 86 108<0 710 0 710>
AnchorPoint: "Anchor-3" 186.197 710 basechar 0
AnchorPoint: "Anchor-2" 115.006 0 basechar 0
AnchorPoint: "Anchor-0" 61.0059 0 basechar 0
LayerCount: 2
Fore
SplineSet
199.893554688 782 m 0xf0
 165.893554688 782 146.595703125 803 152.944335938 839 c 0
 158.939453125 873 185.994140625 896 219.994140625 896 c 0
 252.994140625 896 272.939453125 873 266.944335938 839 c 0
 260.595703125 803 232.893554688 782 199.893554688 782 c 0xf0
7.005859375 0 m 1xe8
 132.197265625 710 l 1
 240.197265625 710 l 1
 115.005859375 0 l 1
 7.005859375 0 l 1xe8
EndSplineSet
Validated: 524321
EndChar

StartChar: Odieresis.ss08
Encoding: 65566 -1 161
Width: 751
GlyphClass: 2
Flags: HMW
HStem: -16 99<306.5 444 306.5 479> 627 99<306.5 444> 782 114<263.5 297 453.5 487>
VStem: 44 112<268.5 439.5 268.5 469> 224 113<821 856> 414 113<821 856> 595 112<268.5 439.5>
AnchorPoint: "Anchor-3" 422.608 710 basechar 0
AnchorPoint: "Anchor-1" 361.012 355 basechar 0
AnchorPoint: "Anchor-0" 297.416 0 basechar 0
LayerCount: 2
Fore
SplineSet
340.303710938 782 m 0
 307.303710938 782 288.006835938 803 294.354492188 839 c 0
 300.349609375 873 327.405273438 896 360.405273438 896 c 0
 394.405273438 896 413.349609375 873 407.354492188 839 c 0
 401.006835938 803 374.303710938 782 340.303710938 782 c 0
530.303710938 782 m 0
 497.303710938 782 478.006835938 803 484.354492188 839 c 0
 490.349609375 873 517.405273438 896 550.405273438 896 c 0
 584.405273438 896 603.349609375 873 597.354492188 839 c 0
 591.006835938 803 564.303710938 782 530.303710938 782 c 0
294.594726562 -16 m 0
 88.5947265625 -16 -11.7197265625 124 28.8359375 354 c 0
 69.390625 584 219.4296875 726 425.4296875 726 c 0
 633.4296875 726 732.390625 584 691.8359375 354 c 0
 651.280273438 124 502.594726562 -16 294.594726562 -16 c 0
312.05078125 83 m 0
 450.05078125 83 549.68359375 183 579.8359375 354 c 0
 609.98828125 525 545.973632812 627 407.973632812 627 c 0
 270.973632812 627 170.98828125 525 140.8359375 354 c 0
 110.68359375 183 175.05078125 83 312.05078125 83 c 0
EndSplineSet
Validated: 524321
EndChar

StartChar: Udieresis.ss08
Encoding: 65567 -1 162
Width: 694
GlyphClass: 2
Flags: HMW
HStem: -16 99<293.5 400.5 293.5 431.5> 691 20G<71 179 179 179 515 623 623 623> 782 114<235.5 269 425.5 459>
VStem: 71 108<251 711> 196 113<821 856> 386 113<821 856> 515 108<251 711>
AnchorPoint: "Anchor-3" 394.608 710 basechar 0
AnchorPoint: "Anchor-2" 382.769 2 basechar 0
AnchorPoint: "Anchor-0" 269.416 0 basechar 0
LayerCount: 2
Fore
SplineSet
312.303710938 782 m 0
 279.303710938 782 260.006835938 803 266.354492188 839 c 0
 272.349609375 873 299.405273438 896 332.405273438 896 c 0
 366.405273438 896 385.349609375 873 379.354492188 839 c 0
 373.006835938 803 346.303710938 782 312.303710938 782 c 0
502.303710938 782 m 0
 469.303710938 782 450.006835938 803 456.354492188 839 c 0
 462.349609375 873 489.405273438 896 522.405273438 896 c 0
 556.405273438 896 575.349609375 873 569.354492188 839 c 0
 563.006835938 803 536.303710938 782 502.303710938 782 c 0
266.594726562 -16 m 0
 96.5947265625 -16 8.7568359375 87 37.673828125 251 c 2
 118.784179688 711 l 1
 226.784179688 711 l 1
 145.673828125 251 l 2
 126.630859375 143 177.05078125 83 284.05078125 83 c 0
 391.05078125 83 462.630859375 143 481.673828125 251 c 2
 562.784179688 711 l 1
 670.784179688 711 l 1
 589.673828125 251 l 2xf2
 560.756835938 87 435.594726562 -16 266.594726562 -16 c 0
EndSplineSet
Validated: 524321
EndChar

StartChar: Wdieresis.ss08
Encoding: 65568 -1 163
Width: 968
GlyphClass: 2
Flags: HMW
HStem: 0 21G<226 226 226 352 616 616 616 742> 0 149<226 291 291 291 291 352> 690 20G<38 153 153 153 429 539 539 539 814 931 931 931> 782 114<372 405.5 562 595.5>
VStem: 332 113<821 856> 522 113<821 856>
AnchorPoint: "Anchor-3" 530.197 710 basechar 0
AnchorPoint: "Anchor-0" 405.006 0 basechar 0
LayerCount: 2
Fore
SplineSet
447.893554688 782 m 0xbc
 413.893554688 782 394.595703125 803 400.944335938 839 c 0
 406.939453125 873 433.994140625 896 467.994140625 896 c 0
 500.994140625 896 519.939453125 873 513.944335938 839 c 0
 507.595703125 803 480.893554688 782 447.893554688 782 c 0xbc
637.893554688 782 m 0
 603.893554688 782 584.595703125 803 590.944335938 839 c 0
 596.939453125 873 623.994140625 896 657.994140625 896 c 0
 690.994140625 896 709.939453125 873 703.944335938 839 c 0
 697.595703125 803 670.893554688 782 637.893554688 782 c 0
147.005859375 0 m 1
 84.197265625 710 l 1
 199.197265625 710 l 1
 238.278320312 149 l 1
 475.197265625 710 l 1
 585.197265625 710 l 1
 624.278320312 149 l 1x7c
 860.197265625 710 l 1
 977.197265625 710 l 1
 663.005859375 0 l 1
 537.005859375 0 l 1
 496.342773438 518 l 1
 273.005859375 0 l 1
 147.005859375 0 l 1
EndSplineSet
Validated: 524321
EndChar

StartChar: Ydieresis.ss08
Encoding: 65569 -1 164
Width: 594
GlyphClass: 2
Flags: HMW
HStem: 0 21G<243 243 243 351> 690 20G<-6 118 118 118 477 601 601 601> 782 114<185.5 219 375.5 409>
VStem: 146 113<821 856> 243 108<0 285 0 285> 336 113<821 856>
AnchorPoint: "Anchor-3" 343.197 710 basechar 0
AnchorPoint: "Anchor-0" 218.006 0 basechar 0
LayerCount: 2
Fore
SplineSet
260.893554688 782 m 0xf4
 227.893554688 782 208.595703125 803 214.944335938 839 c 0
 220.939453125 873 247.994140625 896 280.994140625 896 c 0
 314.994140625 896 333.939453125 873 327.944335938 839 c 0
 321.595703125 803 294.893554688 782 260.893554688 782 c 0xf4
450.893554688 782 m 0
 417.893554688 782 398.595703125 803 404.944335938 839 c 0
 410.939453125 873 437.994140625 896 470.994140625 896 c 0
 504.994140625 896 523.939453125 873 517.944335938 839 c 0
 511.595703125 803 484.893554688 782 450.893554688 782 c 0
164.005859375 0 m 1xe8
 214.258789062 285 l 1
 40.197265625 710 l 1
 164.197265625 710 l 1
 287.301757812 393 l 1
 523.197265625 710 l 1
 647.197265625 710 l 1
 322.258789062 285 l 1
 272.005859375 0 l 1
 164.005859375 0 l 1xe8
EndSplineSet
Validated: 524321
EndChar

StartChar: Zdotaccent.ss08
Encoding: 65570 -1 165
Width: 561
GlyphClass: 2
Flags: HMW
HStem: 0 99<154 533 154 533> 611 99<42 394 42 522> 782 114<272.5 306>
VStem: 232 115<821 856>
AnchorPoint: "Anchor-3" 335.197 710 basechar 0
AnchorPoint: "Anchor-0" 210.006 0 basechar 0
LayerCount: 2
Fore
SplineSet
347.893554688 782 m 0
 314.893554688 782 294.595703125 803 300.944335938 839 c 0
 306.939453125 873 334.994140625 896 367.994140625 896 c 0
 401.994140625 896 421.939453125 873 415.944335938 839 c 0
 409.595703125 803 381.893554688 782 347.893554688 782 c 0
-50.994140625 0 m 1
 -33.361328125 100 l 1
 422.741210938 611 l 1
 70.7412109375 611 l 1
 88.197265625 710 l 1
 568.197265625 710 l 1
 550.565429688 610 l 1
 92.4619140625 99 l 1
 471.461914062 99 l 1
 454.005859375 0 l 1
 -50.994140625 0 l 1
EndSplineSet
Validated: 524321
EndChar

StartChar: Idieresis.ss05.ss08
Encoding: 65571 -1 166
Width: 441
GlyphClass: 2
Flags: HMW
HStem: 0 99<44 167 44 167 275 397> 611 99<50 167 50 391 275 275 275 391> 782 114<109 142.5 299 332.5>
VStem: 69 113<821 856> 167 108<99 611 99 611> 259 113<821 856>
AnchorPoint: "Anchor-3" 267.197 710 basechar 0
AnchorPoint: "Anchor-2" 318.006 0 basechar 0
AnchorPoint: "Anchor-0" 142.006 0 basechar 0
LayerCount: 2
Fore
SplineSet
184.893554688 782 m 0xf4
 150.893554688 782 131.595703125 803 137.944335938 839 c 0
 143.939453125 873 170.994140625 896 204.994140625 896 c 0
 237.994140625 896 256.939453125 873 250.944335938 839 c 0
 244.595703125 803 217.893554688 782 184.893554688 782 c 0xf4
374.893554688 782 m 0
 340.893554688 782 321.595703125 803 327.944335938 839 c 0
 333.939453125 873 360.994140625 896 394.994140625 896 c 0
 427.994140625 896 446.939453125 873 440.944335938 839 c 0
 434.595703125 803 407.893554688 782 374.893554688 782 c 0
-34.994140625 0 m 1
 -17.5380859375 99 l 1
 105.461914062 99 l 1
 195.741210938 611 l 1
 78.7412109375 611 l 1
 96.197265625 710 l 1
 437.197265625 710 l 1
 419.741210938 611 l 1
 303.741210938 611 l 1
 213.461914062 99 l 1xc8
 335.461914062 99 l 1
 318.005859375 0 l 1
 -34.994140625 0 l 1
EndSplineSet
Validated: 524321
EndChar

StartChar: Idotaccent.ss05.ss08
Encoding: 65572 -1 167
Width: 441
GlyphClass: 2
Flags: HMW
HStem: 0 99<44 167 44 167 275 397> 611 99<50 167 50 391 275 275 275 391> 782 114<204.5 238>
VStem: 164 115<821 856> 167 108<99 611 99 611>
AnchorPoint: "Anchor-3" 267.197 710 basechar 0
AnchorPoint: "Anchor-2" 318.006 0 basechar 0
AnchorPoint: "Anchor-0" 142.006 0 basechar 0
LayerCount: 2
Fore
SplineSet
279.893554688 782 m 0xf0
 246.893554688 782 226.595703125 803 232.944335938 839 c 0
 238.939453125 873 266.994140625 896 299.994140625 896 c 0
 333.994140625 896 353.939453125 873 347.944335938 839 c 0
 341.595703125 803 313.893554688 782 279.893554688 782 c 0xf0
-34.994140625 0 m 1
 -17.5380859375 99 l 1
 105.461914062 99 l 1
 195.741210938 611 l 1
 78.7412109375 611 l 1
 96.197265625 710 l 1
 437.197265625 710 l 1
 419.741210938 611 l 1
 303.741210938 611 l 1
 213.461914062 99 l 1xc8
 335.461914062 99 l 1
 318.005859375 0 l 1
 -34.994140625 0 l 1
EndSplineSet
Validated: 524321
EndChar

StartChar: Gdotaccent.ss06.ss08
Encoding: 65573 -1 168
Width: 703
GlyphClass: 2
Flags: HMW
HStem: -16 99<294.5 428.5 294.5 462> 271 91<371 561 371 664> 627 99<295 427> 782 114<354.5 388>
VStem: 44 112<276 428.5 276 458> 314 114<821 856> 561 103<271 271>
AnchorPoint: "Anchor-3" 417.608 710 basechar 0
AnchorPoint: "Anchor-0" 295.416 0 basechar 0
LayerCount: 2
Fore
SplineSet
431.303710938 782 m 0
 398.303710938 782 378.006835938 803 384.354492188 839 c 0
 390.349609375 873 418.405273438 896 451.405273438 896 c 0
 485.405273438 896 504.349609375 873 498.354492188 839 c 0
 492.006835938 803 465.303710938 782 431.303710938 782 c 0
287.594726562 -16 m 0
 75.5947265625 -16 -7.83984375 146 28.8359375 354 c 0
 65.51171875 562 212.4296875 726 422.4296875 726 c 0
 587.4296875 726 667.854492188 632 670.287109375 487 c 1
 556.229492188 481 l 1
 555.041015625 565 515.973632812 627 403.973632812 627 c 0
 251.973632812 627 167.108398438 503 140.8359375 354 c 0
 113.329101562 198 159.05078125 83 304.05078125 83 c 0
 427.05078125 83 507.333984375 164 531.201171875 271 c 1
 341.201171875 271 l 1
 357.24609375 362 l 1
 650.24609375 362 l 1
 642.6640625 319 l 2
 604.930664062 105 475.594726562 -16 287.594726562 -16 c 0
EndSplineSet
Validated: 524321
EndChar

StartChar: A_I.dlig
Encoding: 65574 -1 169
Width: 1130
GlyphClass: 3
Flags: HMW
HStem: 0 99<554 855 733 855 963 1086 733 855> 185 98<233 456 233 489 199 456> 611 99<739 855 963 963 963 1080>
VStem: 855 108<99 611 99 611>
AnchorPoint: "Anchor-8" 406.596 710 baselig 0
AnchorPoint: "Anchor-7" 606.404 0 baselig 0
AnchorPoint: "Anchor-5" 281.404 0 baselig 0
AnchorPoint: "Anchor-8" 971.596 710 baselig 1
AnchorPoint: "Anchor-5" 846.404 0 baselig 1
AnchorPoint: "Anchor-7" 1023.4 0 baselig 1
LayerCount: 2
Fore
SplineSet
-42.595703125 0 m 1
 338.595703125 710 l 1
 475.595703125 710 l 1
 606.404296875 0 l 1
 491.404296875 0 l 1
 459.024414062 185 l 1
 169.024414062 185 l 1
 72.404296875 0 l 1
 -42.595703125 0 l 1
670.404296875 0 m 1
 687.860351562 99 l 1
 809.860351562 99 l 1
 900.139648438 611 l 1
 784.139648438 611 l 1
 801.595703125 710 l 1
 1142.59570312 710 l 1
 1125.13964844 611 l 1
 1008.13964844 611 l 1
 917.860351562 99 l 1
 1040.86035156 99 l 1
 1023.40429688 0 l 1
 670.404296875 0 l 1
220.3046875 283 m 1
 443.3046875 283 l 1
 388.434570312 607 l 1
 220.3046875 283 l 1
EndSplineSet
Validated: 524289
Ligature2: "'dlig' Discretionary Ligatures in Latin lookup 32 subtable" A I
EndChar

StartChar: U_I.dlig
Encoding: 65575 -1 170
Width: 1135
GlyphClass: 3
Flags: HMW
HStem: -16 99<293.5 400.5 293.5 431.5> 0 99<738 860 738 860 969 1091> 611 99<744 860 744 1085 969 969 969 1085>
VStem: 71 108<251 711> 515 108<251 711> 860 109<99 611 99 611>
AnchorPoint: "Anchor-8" 410.919 710 baselig 0
AnchorPoint: "Anchor-7" 399.079 2 baselig 0
AnchorPoint: "Anchor-5" 285.727 0 baselig 0
AnchorPoint: "Anchor-8" 977.919 710 baselig 1
AnchorPoint: "Anchor-5" 852.727 0 baselig 1
AnchorPoint: "Anchor-7" 1029.73 0 baselig 1
LayerCount: 2
Fore
SplineSet
282.905273438 -16 m 0xbc
 112.905273438 -16 25.06640625 87 53.984375 251 c 2
 135.094726562 711 l 1
 243.094726562 711 l 1
 161.984375 251 l 2
 142.94140625 143 193.361328125 83 300.361328125 83 c 0
 407.361328125 83 478.94140625 143 497.984375 251 c 2
 579.094726562 711 l 1
 687.094726562 711 l 1
 605.984375 251 l 2
 577.06640625 87 451.905273438 -16 282.905273438 -16 c 0xbc
676.7265625 0 m 1x7c
 694.182617188 99 l 1
 816.182617188 99 l 1
 906.461914062 611 l 1
 790.461914062 611 l 1
 807.918945312 710 l 1
 1148.91894531 710 l 1
 1131.46191406 611 l 1
 1015.46191406 611 l 1
 925.182617188 99 l 1
 1047.18261719 99 l 1
 1029.7265625 0 l 1
 676.7265625 0 l 1x7c
EndSplineSet
Validated: 524321
Ligature2: "'dlig' Discretionary Ligatures in Latin lookup 32 subtable" U I
EndChar

StartChar: a
Encoding: 97 97 171
Width: 565
GlyphClass: 2
Flags: HMW
HStem: -12 84<212.5 265.5> -3 87<478.5 548> 454 90<246 318>
VStem: 42 110<120 163.5 120 178.5> 395 106<217 251 251 251>
AnchorPoint: "Anchor-3" 330.903 532 basechar 0
AnchorPoint: "Anchor-2" 501.097 0 basechar 0
AnchorPoint: "Anchor-0" 228.097 0 basechar 0
LayerCount: 2
Fore
SplineSet
174.981445312 -12 m 0xa8
 63.9814453125 -12 2.326171875 41 18.548828125 133 c 0
 34.5947265625 224 96.234375 273 217.290039062 296 c 2
 406.4609375 331 l 1
 420.919921875 413 389.149414062 454 313.149414062 454 c 0
 245.149414062 454 201.68359375 423 177.456054688 365 c 1
 69.6904296875 372 l 1
 108.380859375 478 203.018554688 544 329.018554688 544 c 0
 473.018554688 544 535.736328125 463 511.403320312 325 c 2
 474.903320312 118 l 2
 470.319335938 92 476.908203125 84 496.908203125 84 c 2
 515.908203125 84 l 1
 501.096679688 0 l 1
 493.744140625 -2 477.568359375 -3 461.568359375 -3 c 0x78
 400.568359375 -3 368.624023438 20 371.555664062 82 c 1
 334.681640625 26 257.981445312 -12 174.981445312 -12 c 0xa8
206.79296875 72 m 0
 302.79296875 72 371.372070312 132 386.360351562 217 c 2
 392.35546875 251 l 1
 231.065429688 221 l 2
 164.94921875 209 137.541015625 184 130.311523438 143 c 0xb8
 122.201171875 97 149.79296875 72 206.79296875 72 c 0
EndSplineSet
Validated: 524321
Substitution2: "'ss02' Style Set 2 in Latin lookup 35 subtable" a.ss02
Substitution2: "'ss01' Style Set 1 in Latin lookup 34 subtable" a.ss01
Substitution2: "Single Substitution lookup 27 subtable" ordfeminine
AlternateSubs2: "'aalt' Access All Alternates in Latin lookup 1 subtable" ordfeminine a.ss01 a.ss02
EndChar

StartChar: aacute
Encoding: 225 225 172
Width: 565
GlyphClass: 2
Flags: HMW
HStem: -12 84<212.5 265.5> -3 87<478.5 548> 454 90<246 318> 596 134<237 412 300 322>
VStem: 42 110<120 163.5 120 178.5> 395 106<217 251 251 251>
AnchorPoint: "Anchor-3" 314.505 532 basechar 0
AnchorPoint: "Anchor-2" 484.698 0 basechar 0
AnchorPoint: "Anchor-0" 211.698 0 basechar 0
LayerCount: 2
Fore
SplineSet
278.7890625 596 m 1xb4
 365.416992188 730 l 1
 477.416992188 730 l 1
 363.7890625 596 l 1
 278.7890625 596 l 1xb4
158.583007812 -12 m 0
 47.5830078125 -12 -14.072265625 41 2.150390625 133 c 0
 18.1962890625 224 79.8359375 273 200.891601562 296 c 2
 390.0625 331 l 1
 404.521484375 413 372.750976562 454 296.750976562 454 c 0
 228.750976562 454 185.28515625 423 161.057617188 365 c 1
 53.2919921875 372 l 1
 91.9833984375 478 186.620117188 544 312.620117188 544 c 0
 456.620117188 544 519.337890625 463 495.004882812 325 c 2
 458.504882812 118 l 2
 453.920898438 92 460.509765625 84 480.509765625 84 c 2
 499.509765625 84 l 1
 484.698242188 0 l 1
 477.345703125 -2 461.169921875 -3 445.169921875 -3 c 0x7c
 384.169921875 -3 352.225585938 20 355.157226562 82 c 1
 318.283203125 26 241.583007812 -12 158.583007812 -12 c 0
190.39453125 72 m 0
 286.39453125 72 354.973632812 132 369.961914062 217 c 2
 375.95703125 251 l 1
 214.666992188 221 l 2
 148.55078125 209 121.142578125 184 113.913085938 143 c 0xbc
 105.802734375 97 133.39453125 72 190.39453125 72 c 0
EndSplineSet
Validated: 524321
Substitution2: "'ss02' Style Set 2 in Latin lookup 35 subtable" aacute.ss02
Substitution2: "'ss01' Style Set 1 in Latin lookup 34 subtable" aacute.ss01
AlternateSubs2: "'aalt' Access All Alternates in Latin lookup 1 subtable" aacute.ss01 aacute.ss02
EndChar

StartChar: abreve
Encoding: 259 259 173
Width: 565
GlyphClass: 2
Flags: HMW
HStem: -12 84<212.5 265.5> -3 87<478.5 548> 454 90<246 318> 599 69<262 306 262 327>
VStem: 42 110<120 163.5 120 178.5> 395 106<217 251 251 251>
AnchorPoint: "Anchor-3" 314.152 532 basechar 0
AnchorPoint: "Anchor-2" 484.346 0 basechar 0
AnchorPoint: "Anchor-0" 211.346 0 basechar 0
LayerCount: 2
Fore
SplineSet
325.965820312 599 m 0xb4
 240.965820312 599 193.958984375 650 204.76953125 734 c 1
 271.76953125 734 l 1
 269.659179688 688 294.1328125 668 338.1328125 668 c 0
 382.1328125 668 413.659179688 688 426.76953125 734 c 1
 494.76953125 734 l 1
 475.958984375 650 411.965820312 599 325.965820312 599 c 0xb4
158.23046875 -12 m 0
 47.23046875 -12 -14.4248046875 41 1.7978515625 133 c 0
 17.8427734375 224 79.4833984375 273 200.5390625 296 c 2
 389.709960938 331 l 1
 404.168945312 413 372.3984375 454 296.3984375 454 c 0
 228.3984375 454 184.932617188 423 160.705078125 365 c 1
 52.939453125 372 l 1
 91.6298828125 478 186.267578125 544 312.267578125 544 c 0
 456.267578125 544 518.985351562 463 494.65234375 325 c 2
 458.15234375 118 l 2
 453.568359375 92 460.157226562 84 480.157226562 84 c 2
 499.157226562 84 l 1
 484.345703125 0 l 1
 476.993164062 -2 460.817382812 -3 444.817382812 -3 c 0x7c
 383.817382812 -3 351.872070312 20 354.8046875 82 c 1
 317.930664062 26 241.23046875 -12 158.23046875 -12 c 0
190.041015625 72 m 0
 286.041015625 72 354.62109375 132 369.609375 217 c 2
 375.604492188 251 l 1
 214.314453125 221 l 2
 148.198242188 209 120.790039062 184 113.560546875 143 c 0xbc
 105.44921875 97 133.041015625 72 190.041015625 72 c 0
EndSplineSet
Validated: 524321
Substitution2: "'ss02' Style Set 2 in Latin lookup 35 subtable" abreve.ss02
Substitution2: "'ss01' Style Set 1 in Latin lookup 34 subtable" abreve.ss01
AlternateSubs2: "'aalt' Access All Alternates in Latin lookup 1 subtable" abreve.ss01 abreve.ss02
EndChar

StartChar: uni01CE
Encoding: 462 462 174
Width: 565
GlyphClass: 2
Flags: HMW
HStem: -12 84<212.5 265.5> -3 87<478.5 548> 454 90<246 318> 596 139<137 340 137 229>
VStem: 42 110<120 163.5 120 178.5> 395 106<217 251 251 251>
AnchorPoint: "Anchor-3" 314.063 532 basechar 0
AnchorPoint: "Anchor-2" 484.258 0 basechar 0
AnchorPoint: "Anchor-0" 211.258 0 basechar 0
LayerCount: 2
Fore
SplineSet
202.858398438 735 m 1xb4
 283.858398438 735 l 1
 334.165039062 646 l 1
 415.858398438 735 l 1
 497.858398438 735 l 1
 381.348632812 596 l 1
 270.348632812 596 l 1
 202.858398438 735 l 1xb4
158.141601562 -12 m 0
 47.1416015625 -12 -14.5126953125 41 1.708984375 133 c 0
 17.7548828125 224 79.3955078125 273 200.450195312 296 c 2
 389.622070312 331 l 1
 404.081054688 413 372.310546875 454 296.310546875 454 c 0
 228.310546875 454 184.84375 423 160.6171875 365 c 1
 52.8515625 372 l 1
 91.5419921875 478 186.1796875 544 312.1796875 544 c 0
 456.1796875 544 518.897460938 463 494.564453125 325 c 2
 458.064453125 118 l 2
 453.479492188 92 460.069335938 84 480.069335938 84 c 2
 499.069335938 84 l 1
 484.2578125 0 l 1
 476.905273438 -2 460.728515625 -3 444.728515625 -3 c 0x7c
 383.728515625 -3 351.784179688 20 354.716796875 82 c 1
 317.842773438 26 241.141601562 -12 158.141601562 -12 c 0
189.953125 72 m 0
 285.953125 72 354.533203125 132 369.520507812 217 c 2
 375.515625 251 l 1
 214.225585938 221 l 2
 148.110351562 209 120.702148438 184 113.47265625 143 c 0xbc
 105.361328125 97 132.953125 72 189.953125 72 c 0
EndSplineSet
Validated: 524321
Substitution2: "'ss02' Style Set 2 in Latin lookup 35 subtable" uni01CE.ss02
Substitution2: "'ss01' Style Set 1 in Latin lookup 34 subtable" uni01CE.ss01
AlternateSubs2: "'aalt' Access All Alternates in Latin lookup 1 subtable" uni01CE.ss01 uni01CE.ss02
EndChar

StartChar: acircumflex
Encoding: 226 226 175
Width: 565
GlyphClass: 2
Flags: HMW
HStem: -12 84<212.5 265.5> -3 87<478.5 548> 454 90<246 318> 596 139<137 340 137 340 229 350 229 432>
VStem: 42 110<120 163.5 120 178.5> 395 106<217 251 251 251>
AnchorPoint: "Anchor-3" 314.063 532 basechar 0
AnchorPoint: "Anchor-2" 484.258 0 basechar 0
AnchorPoint: "Anchor-0" 211.258 0 basechar 0
LayerCount: 2
Fore
SplineSet
178.348632812 596 m 1xb4
 294.858398438 735 l 1
 405.858398438 735 l 1
 473.348632812 596 l 1
 391.348632812 596 l 1
 341.041992188 685 l 1
 259.348632812 596 l 1
 178.348632812 596 l 1xb4
158.141601562 -12 m 0
 47.1416015625 -12 -14.5126953125 41 1.708984375 133 c 0
 17.7548828125 224 79.3955078125 273 200.450195312 296 c 2
 389.622070312 331 l 1
 404.081054688 413 372.310546875 454 296.310546875 454 c 0
 228.310546875 454 184.84375 423 160.6171875 365 c 1
 52.8515625 372 l 1
 91.5419921875 478 186.1796875 544 312.1796875 544 c 0
 456.1796875 544 518.897460938 463 494.564453125 325 c 2
 458.064453125 118 l 2
 453.479492188 92 460.069335938 84 480.069335938 84 c 2
 499.069335938 84 l 1
 484.2578125 0 l 1
 476.905273438 -2 460.728515625 -3 444.728515625 -3 c 0x7c
 383.728515625 -3 351.784179688 20 354.716796875 82 c 1
 317.842773438 26 241.141601562 -12 158.141601562 -12 c 0
189.953125 72 m 0
 285.953125 72 354.533203125 132 369.520507812 217 c 2
 375.515625 251 l 1
 214.225585938 221 l 2
 148.110351562 209 120.702148438 184 113.47265625 143 c 0xbc
 105.361328125 97 132.953125 72 189.953125 72 c 0
EndSplineSet
Validated: 524321
Substitution2: "'ss02' Style Set 2 in Latin lookup 35 subtable" acircumflex.ss02
Substitution2: "'ss01' Style Set 1 in Latin lookup 34 subtable" acircumflex.ss01
AlternateSubs2: "'aalt' Access All Alternates in Latin lookup 1 subtable" acircumflex.ss01 acircumflex.ss02
EndChar

StartChar: adieresis
Encoding: 228 228 176
Width: 565
GlyphClass: 2
Flags: HMW
HStem: -12 84<212.5 265.5> -3 87<478.5 548> 454 90<246 318> 608 106<137 244 137 244 325 431 137 325>
VStem: 42 110<120 163.5 120 178.5> 137 107<608 714 608 714> 325 106<608 714 608 714> 395 106<217 251 251 251>
AnchorPoint: "Anchor-3" 315.915 532 basechar 0
AnchorPoint: "Anchor-2" 486.109 0 basechar 0
AnchorPoint: "Anchor-0" 213.109 0 basechar 0
LayerCount: 2
Fore
SplineSet
182.31640625 608 m 1xb6
 201.006835938 714 l 1
 308.006835938 714 l 1
 289.31640625 608 l 1
 182.31640625 608 l 1xb6
370.31640625 608 m 1
 389.006835938 714 l 1
 495.006835938 714 l 1
 476.31640625 608 l 1
 370.31640625 608 l 1
159.993164062 -12 m 0
 48.9931640625 -12 -12.6611328125 41 3.560546875 133 c 0
 19.6064453125 224 81.24609375 273 202.301757812 296 c 2
 391.473632812 331 l 1
 405.932617188 413 374.162109375 454 298.162109375 454 c 0
 230.162109375 454 186.6953125 423 162.46875 365 c 1
 54.703125 372 l 1
 93.3935546875 478 188.03125 544 314.03125 544 c 0
 458.03125 544 520.749023438 463 496.415039062 325 c 2
 459.916015625 118 l 2
 455.331054688 92 461.920898438 84 481.920898438 84 c 2
 500.920898438 84 l 1
 486.109375 0 l 1
 478.756835938 -2 462.580078125 -3 446.580078125 -3 c 0x79
 385.580078125 -3 353.635742188 20 356.568359375 82 c 1
 319.693359375 26 242.993164062 -12 159.993164062 -12 c 0
191.8046875 72 m 0
 287.8046875 72 356.384765625 132 371.372070312 217 c 2
 377.3671875 251 l 1
 216.077148438 221 l 2
 149.961914062 209 122.553710938 184 115.32421875 143 c 0xb9
 107.212890625 97 134.8046875 72 191.8046875 72 c 0
EndSplineSet
Validated: 524321
Substitution2: "'ss08' Style Set 8 in Latin lookup 41 subtable" adieresis.ss08
Substitution2: "'ss02' Style Set 2 in Latin lookup 35 subtable" adieresis.ss02
Substitution2: "'ss01' Style Set 1 in Latin lookup 34 subtable" adieresis.ss01
AlternateSubs2: "'aalt' Access All Alternates in Latin lookup 1 subtable" adieresis.ss01 adieresis.ss02 adieresis.ss08
EndChar

StartChar: agrave
Encoding: 224 224 177
Width: 565
GlyphClass: 2
Flags: HMW
HStem: -12 84<212.5 265.5> -3 87<478.5 548> 454 90<246 318> 601 135<248 248 248 269 158 332>
VStem: 42 110<120 163.5 120 178.5> 395 106<217 251 251 251>
AnchorPoint: "Anchor-3" 313.976 532 basechar 0
AnchorPoint: "Anchor-2" 484.17 0 basechar 0
AnchorPoint: "Anchor-0" 211.17 0 basechar 0
LayerCount: 2
Fore
SplineSet
290.142578125 601 m 1xb4
 223.946289062 736 l 1
 334.946289062 736 l 1
 374.142578125 601 l 1
 290.142578125 601 l 1xb4
158.053710938 -12 m 0
 47.0537109375 -12 -14.6005859375 41 1.62109375 133 c 0
 17.6669921875 224 79.306640625 273 200.362304688 296 c 2
 389.534179688 331 l 1
 403.993164062 413 372.221679688 454 296.221679688 454 c 0
 228.221679688 454 184.755859375 423 160.529296875 365 c 1
 52.763671875 372 l 1
 91.4541015625 478 186.091796875 544 312.091796875 544 c 0
 456.091796875 544 518.80859375 463 494.475585938 325 c 2
 457.9765625 118 l 2
 453.391601562 92 459.981445312 84 479.981445312 84 c 2
 498.981445312 84 l 1
 484.169921875 0 l 1
 476.817382812 -2 460.640625 -3 444.640625 -3 c 0x7c
 383.640625 -3 351.696289062 20 354.62890625 82 c 1
 317.75390625 26 241.053710938 -12 158.053710938 -12 c 0
189.865234375 72 m 0
 285.865234375 72 354.444335938 132 369.432617188 217 c 2
 375.427734375 251 l 1
 214.137695312 221 l 2
 148.021484375 209 120.614257812 184 113.384765625 143 c 0xbc
 105.2734375 97 132.865234375 72 189.865234375 72 c 0
EndSplineSet
Validated: 524321
Substitution2: "'ss02' Style Set 2 in Latin lookup 35 subtable" agrave.ss02
Substitution2: "'ss01' Style Set 1 in Latin lookup 34 subtable" agrave.ss01
AlternateSubs2: "'aalt' Access All Alternates in Latin lookup 1 subtable" agrave.ss01 agrave.ss02
EndChar

StartChar: amacron
Encoding: 257 257 178
Width: 565
GlyphClass: 2
Flags: HMW
HStem: -12 84<212.5 265.5> -3 87<478.5 548> 454 90<246 318> 619 85<145 423 145 423>
VStem: 42 110<120 163.5 120 178.5> 145 278<619 704 619 704> 395 106<217 251 251 251>
AnchorPoint: "Anchor-3" 316.797 532 basechar 0
AnchorPoint: "Anchor-2" 486.991 0 basechar 0
AnchorPoint: "Anchor-0" 213.991 0 basechar 0
LayerCount: 2
Fore
SplineSet
193.137695312 619 m 1xb4
 208.125 704 l 1
 486.125 704 l 1
 471.137695312 619 l 1
 193.137695312 619 l 1xb4
160.875 -12 m 0
 49.875 -12 -11.779296875 41 4.4423828125 133 c 0
 20.48828125 224 82.1279296875 273 203.18359375 296 c 2
 392.35546875 331 l 1
 406.813476562 413 375.04296875 454 299.04296875 454 c 0
 231.04296875 454 187.577148438 423 163.350585938 365 c 1
 55.5849609375 372 l 1
 94.275390625 478 188.913085938 544 314.913085938 544 c 0
 458.913085938 544 521.629882812 463 497.296875 325 c 2
 460.797851562 118 l 2
 456.212890625 92 462.802734375 84 482.802734375 84 c 2
 501.802734375 84 l 1
 486.991210938 0 l 1
 479.638671875 -2 463.461914062 -3 447.461914062 -3 c 0x7a
 386.461914062 -3 354.517578125 20 357.44921875 82 c 1
 320.575195312 26 243.875 -12 160.875 -12 c 0
192.686523438 72 m 0
 288.686523438 72 357.265625 132 372.25390625 217 c 2
 378.249023438 251 l 1
 216.958984375 221 l 2
 150.842773438 209 123.434570312 184 116.206054688 143 c 0xba
 108.094726562 97 135.686523438 72 192.686523438 72 c 0
EndSplineSet
Validated: 524321
Substitution2: "'ss02' Style Set 2 in Latin lookup 35 subtable" amacron.ss02
Substitution2: "'ss01' Style Set 1 in Latin lookup 34 subtable" amacron.ss01
AlternateSubs2: "'aalt' Access All Alternates in Latin lookup 1 subtable" amacron.ss01 amacron.ss02
EndChar

StartChar: aogonek
Encoding: 261 261 179
Width: 565
GlyphClass: 2
Flags: HMW
HStem: -212 75<504 510> -12 84<212.5 265.5> 454 90<246 318>
VStem: 42 110<120 163.5 120 178.5> 391 93<-120 -117.5> 395 106<217 251 251 251>
AnchorPoint: "Anchor-3" 348.536 532 basechar 0
AnchorPoint: "Anchor-2" 518.729 0 basechar 0
AnchorPoint: "Anchor-0" 245.729 0 basechar 0
LayerCount: 2
Fore
SplineSet
192.614257812 -12 m 0xe8
 81.6142578125 -12 19.958984375 41 36.181640625 133 c 0
 52.2265625 224 113.8671875 273 234.922851562 296 c 2
 424.09375 331 l 1
 438.552734375 413 406.782226562 454 330.782226562 454 c 0
 262.782226562 454 219.31640625 423 195.088867188 365 c 1
 87.3232421875 372 l 1
 126.013671875 478 220.651367188 544 346.651367188 544 c 0
 490.651367188 544 553.369140625 463 529.036132812 325 c 2
 492.536132812 118 l 2x74
 487.952148438 92 494.541015625 84 514.541015625 84 c 2
 533.541015625 84 l 1
 518.729492188 0 l 1
 477.794921875 -45 l 2
 449.15234375 -77 437.978515625 -95 434.981445312 -112 c 0
 432.16015625 -128 442.573242188 -137 458.573242188 -137 c 0
 476.573242188 -137 494.454101562 -132 507.865234375 -124 c 1
 521.932617188 -186 l 1
 503.288085938 -201 462.348632812 -212 424.348632812 -212 c 0
 362.348632812 -212 328.932617188 -186 337.573242188 -137 c 0
 344.44921875 -98 380.678710938 -57 413.026367188 -21 c 2
 435.258789062 3 l 1
 403.021484375 13 387.25390625 37 389.188476562 82 c 1
 352.314453125 26 275.614257812 -12 192.614257812 -12 c 0xe8
224.424804688 72 m 0
 320.424804688 72 389.004882812 132 403.993164062 217 c 2
 409.98828125 251 l 1
 248.698242188 221 l 2
 182.58203125 209 155.173828125 184 147.944335938 143 c 0
 139.833007812 97 167.424804688 72 224.424804688 72 c 0
EndSplineSet
Validated: 524321
Substitution2: "'ss02' Style Set 2 in Latin lookup 35 subtable" aogonek.ss02
Substitution2: "'ss01' Style Set 1 in Latin lookup 34 subtable" aogonek.ss01
AlternateSubs2: "'aalt' Access All Alternates in Latin lookup 1 subtable" aogonek.ss01 aogonek.ss02
EndChar

StartChar: aring
Encoding: 229 229 180
Width: 565
GlyphClass: 2
Flags: HMW
HStem: -12 84<212.5 265.5> -3 87<478.5 548> 454 90<246 318> 576 54<272.5 295.5 272.5 311> 711 55<272.5 295.5>
VStem: 42 110<120 163.5 120 178.5> 189 55<659.5 682.5 659.5 698> 325 55<659.5 682.5> 395 106<217 251 251 251>
AnchorPoint: "Anchor-3" 311.331 532 basechar 0
AnchorPoint: "Anchor-2" 481.524 0 basechar 0
AnchorPoint: "Anchor-0" 208.524 0 basechar 0
LayerCount: 2
Fore
SplineSet
319.088867188 576 m 0xbf
 265.088867188 576 231.318359375 617 240.83984375 671 c 0
 250.361328125 725 298.590820312 766 352.590820312 766 c 0
 406.590820312 766 441.361328125 725 431.83984375 671 c 0
 422.318359375 617 373.088867188 576 319.088867188 576 c 0xbf
328.610351562 630 m 0
 351.610351562 630 372.784179688 648 376.83984375 671 c 0
 380.895507812 694 365.893554688 711 342.893554688 711 c 0
 319.893554688 711 299.895507812 694 295.83984375 671 c 0
 291.784179688 648 305.610351562 630 328.610351562 630 c 0
155.409179688 -12 m 0
 44.4091796875 -12 -17.24609375 41 -1.0234375 133 c 0
 15.021484375 224 76.662109375 273 197.717773438 296 c 2
 386.888671875 331 l 1
 401.34765625 413 369.577148438 454 293.577148438 454 c 0
 225.577148438 454 182.111328125 423 157.883789062 365 c 1
 50.1181640625 372 l 1
 88.80859375 478 183.446289062 544 309.446289062 544 c 0
 453.446289062 544 516.1640625 463 491.831054688 325 c 2
 455.331054688 118 l 2
 450.747070312 92 457.3359375 84 477.3359375 84 c 2
 496.3359375 84 l 1
 481.524414062 0 l 1
 474.171875 -2 457.99609375 -3 441.99609375 -3 c 0x7e80
 380.99609375 -3 349.05078125 20 351.983398438 82 c 1
 315.109375 26 238.409179688 -12 155.409179688 -12 c 0
187.220703125 72 m 0
 283.220703125 72 351.799804688 132 366.788085938 217 c 2
 372.783203125 251 l 1
 211.493164062 221 l 2
 145.376953125 209 117.96875 184 110.739257812 143 c 0xbe80
 102.62890625 97 130.220703125 72 187.220703125 72 c 0
EndSplineSet
Validated: 524321
Substitution2: "'ss02' Style Set 2 in Latin lookup 35 subtable" aring.ss02
Substitution2: "'ss01' Style Set 1 in Latin lookup 34 subtable" aring.ss01
AlternateSubs2: "'aalt' Access All Alternates in Latin lookup 1 subtable" aring.ss01 aring.ss02
EndChar

StartChar: atilde
Encoding: 227 227 181
Width: 565
GlyphClass: 2
Flags: HMW
HStem: -12 84<212.5 265.5> -3 87<478.5 548> 454 90<246 318> 607 67<338.5 357.5 338.5 373> 659 67<211.5 232>
VStem: 42 110<120 163.5 120 178.5> 122 59<600 600> 386 60<735 735> 395 106<217 251 251 251>
AnchorPoint: "Anchor-3" 314.063 532 basechar 0
AnchorPoint: "Anchor-2" 484.258 0 basechar 0
AnchorPoint: "Anchor-0" 211.258 0 basechar 0
LayerCount: 2
Fore
SplineSet
385.288085938 607 m 0xb1
 358.288085938 607 337.875 616 318.225585938 635 c 0
 301.22265625 652 293.45703125 659 275.45703125 659 c 0
 252.45703125 659 234.165039062 646 223.053710938 600 c 1
 164.053710938 600 l 1
 179.336914062 681 227.271484375 726 286.271484375 726 c 0xaa80
 318.271484375 726 338.33203125 715 358.981445312 696 c 0
 375.16015625 680 386.102539062 674 401.102539062 674 c 0
 424.102539062 674 440.39453125 687 451.858398438 735 c 1
 511.858398438 735 l 1
 494.751953125 655 447.288085938 607 385.288085938 607 c 0xb1
158.141601562 -12 m 0
 47.1416015625 -12 -14.5126953125 41 1.708984375 133 c 0
 17.7548828125 224 79.3955078125 273 200.450195312 296 c 2
 389.622070312 331 l 1
 404.081054688 413 372.310546875 454 296.310546875 454 c 0
 228.310546875 454 184.84375 423 160.6171875 365 c 1
 52.8515625 372 l 1
 91.5419921875 478 186.1796875 544 312.1796875 544 c 0
 456.1796875 544 518.897460938 463 494.564453125 325 c 2
 458.064453125 118 l 2
 453.479492188 92 460.069335938 84 480.069335938 84 c 2
 499.069335938 84 l 1
 484.2578125 0 l 1
 476.905273438 -2 460.728515625 -3 444.728515625 -3 c 0x6c80
 383.728515625 -3 351.784179688 20 354.716796875 82 c 1
 317.842773438 26 241.141601562 -12 158.141601562 -12 c 0
189.953125 72 m 0
 285.953125 72 354.533203125 132 369.520507812 217 c 2
 375.515625 251 l 1
 214.225585938 221 l 2
 148.110351562 209 120.702148438 184 113.47265625 143 c 0xac80
 105.361328125 97 132.953125 72 189.953125 72 c 0
EndSplineSet
Validated: 524321
Substitution2: "'ss02' Style Set 2 in Latin lookup 35 subtable" atilde.ss02
Substitution2: "'ss01' Style Set 1 in Latin lookup 34 subtable" atilde.ss01
AlternateSubs2: "'aalt' Access All Alternates in Latin lookup 1 subtable" atilde.ss01 atilde.ss02
EndChar

StartChar: ae
Encoding: 230 230 182
Width: 932
GlyphClass: 2
Flags: HMW
HStem: -12 83 -12 91<609 682.5 609 709> 235 80<508 778 508 891 508 778> 454 90<244 318 609 683.5>
VStem: 42 110<119.5 162 119.5 187> 395 113<235 235 235 243 235 243 235 323> 778 113<235 315>
AnchorPoint: "Anchor-3" 513.903 532 basechar 0
AnchorPoint: "Anchor-2" 748.857 27 basechar 0
AnchorPoint: "Anchor-0" 420.097 0 basechar 0
LayerCount: 2
Fore
SplineSet
175.981445312 -12 m 0x7e
 68.9814453125 -12 1.7978515625 38 18.548828125 133 c 0
 37.591796875 241 121.64453125 281 217.290039062 296 c 2
 405.05078125 323 l 1
 420.096679688 414 391.149414062 454 311.149414062 454 c 0
 243.149414062 454 198.801757812 418 177.456054688 365 c 1
 69.6904296875 372 l 1
 109.380859375 478 203.018554688 544 326.018554688 544 c 0
 411.018554688 544 469.434570312 518 498.088867188 465 c 1
 549.905273438 515 618.018554688 544 696.018554688 544 c 0
 841.018554688 544 921.857421875 441 890.294921875 262 c 2
 885.534179688 235 l 1
 502.534179688 235 l 1
 490.196289062 131 534.026367188 79 618.026367188 79 c 0
 681.026367188 79 728.493164062 110 753.309570312 160 c 1
 863.075195312 153 l 1
 816.619140625 54 718.981445312 -12 600.981445312 -12 c 0
 504.981445312 -12 438.38671875 30 409.08203125 102 c 1
 358.563476562 31 274.981445312 -12 175.981445312 -12 c 0x7e
516.639648438 315 m 1
 786.639648438 315 l 1
 796.21484375 409 753.149414062 454 680.149414062 454 c 0
 604.149414062 454 544.509765625 405 516.639648438 315 c 1
220.616210938 71 m 0
 301.321289062 75 369.961914062 124 386.18359375 216 c 2
 390.944335938 243 l 1
 231.065429688 221 l 2
 159.301757812 211 137.01171875 181 130.311523438 143 c 0xbe
 122.024414062 96 149.086914062 68 220.616210938 71 c 0
EndSplineSet
Validated: 524321
EndChar

StartChar: b
Encoding: 98 98 183
Width: 608
GlyphClass: 2
Flags: HMW
HStem: -12 92<303 363.5> 0 21G<75 174 75 75> 452 92<303 364.5> 690 20G<75 181 181 181>
VStem: 75 100.5 75 106<208.5 324.5 457 710> 456 110<208.5 324.5>
AnchorPoint: "Anchor-3" 337.268 532 basechar 0
AnchorPoint: "Anchor-1" 138.365 266 basechar 0
AnchorPoint: "Anchor-0" 243.462 0 basechar 0
LayerCount: 2
Fore
SplineSet
276.345703125 -12 m 0xb6
 202.345703125 -12 149.340820312 22 129.568359375 80 c 1
 112.461914062 0 l 1x7a
 13.4619140625 0 l 1x76
 138.654296875 710 l 1
 244.654296875 710 l 1
 200.04296875 457 l 1
 235.154296875 503 300.383789062 544 374.383789062 544 c 0
 513.383789062 544 581.340820312 436 551.365234375 266 c 0
 521.389648438 96 415.345703125 -12 276.345703125 -12 c 0xb6
275.568359375 80 m 0
 356.568359375 80 421.086914062 151 441.365234375 266 c 0
 461.995117188 383 423.162109375 452 342.162109375 452 c 0
 252.162109375 452 186.995117188 383 166.365234375 266 c 0xb6
 146.086914062 151 186.568359375 80 275.568359375 80 c 0
EndSplineSet
Validated: 524321
EndChar

StartChar: c
Encoding: 99 99 184
Width: 563
GlyphClass: 2
Flags: HMW
HStem: -12 92<249 328 249 359> 452 92<249 327.5>
VStem: 42 110<207.5 324.5 207.5 350>
AnchorPoint: "Anchor-3" 340.903 532 basechar 0
AnchorPoint: "Anchor-0" 247.097 0 basechar 0
LayerCount: 2
Fore
SplineSet
244.981445312 -12 m 0
 91.9814453125 -12 12.376953125 98 42 266 c 0
 71.623046875 434 190.018554688 544 343.018554688 544 c 0
 472.018554688 544 550.67578125 474 546.98828125 351 c 1
 434.9296875 345 l 1
 436.096679688 414 393.796875 452 326.796875 452 c 0
 236.796875 452 172.629882812 383 152 266 c 0
 131.370117188 149 171.203125 80 261.203125 80 c 0
 329.203125 80 384.903320312 118 408.48046875 195 c 1
 518.422851562 189 l 1
 479.911132812 67 374.981445312 -12 244.981445312 -12 c 0
EndSplineSet
Validated: 524321
EndChar

